{
.appVersion = "3133";
.formatVersion = 3;
axes = (
{
name = wght;
tag = wght;
}
);
customParameters = (
{
name = "Write lastChange";
value = 0;
},
{
name = "Use Typo Metrics";
value = 1;
},
{
name = fsType;
value = (
);
}
);
date = "2022-03-20 03:42:48 +0000";
familyName = "Edu SA Beginner";
featurePrefixes = (
{
automatic = 1;
code = "languagesystem DFLT dflt;
";
name = Languagesystems;
}
);
fontMaster = (
{
axesValues = (
400
);
customParameters = (
{
name = hheaAscender;
value = 1129;
},
{
name = hheaDescender;
value = -356;
},
{
name = hheaLineGap;
value = 0;
},
{
name = typoAscender;
value = 1129;
},
{
name = typoDescender;
value = -356;
},
{
name = typoLineGap;
value = 0;
},
{
name = winAscent;
value = 1129;
},
{
name = winDescent;
value = 368;
}
);
id = m01;
metricValues = (
{
pos = 772;
},
{
over = 5;
pos = 772;
},
{
over = 5;
pos = 675;
},
{
over = 5;
pos = 416;
},
{
over = -5;
},
{
over = -5;
pos = -356;
},
{
}
);
name = Regular;
stemValues = (
59,
55
);
userData = {
com.schriftgestaltung.Glyphs.layerLib.public.default = {
GSOffsetHorizontal = 15;
GSOffsetKeepCompatible = 1;
GSOffsetVertical = 10;
};
com.typemytype.robofont.segmentType = curve;
com.typemytype.robofont.smartSets.uniqueKey = "4714750416";
com.typesupply.metricsMachine4.groupColors = {
public.kern1.H_right = (
1,
0,
0,
0.25
);
public.kern1.O_right = (
1,
0,
0.76,
0.25
);
public.kern1.V_right = (
0,
1,
1,
0.25
);
public.kern1.colon_right = (
0.5,
0,
1,
0.25
);
public.kern1.hyphen_right = (
0,
0,
1,
0.25
);
public.kern1.n_right = (
1,
1,
0,
0.25
);
public.kern1.o_right = (
0,
1,
0,
0.25
);
public.kern1.period_right = (
1,
0,
1,
0.25
);
public.kern1.quote_right = (
1,
0,
0.5,
0.25
);
public.kern1.v_right = (
0,
0.5,
1,
0.25
);
public.kern2.H_left = (
0,
0.9,
0.92,
0.25
);
public.kern2.O_left = (
0,
0,
0.98,
0.25
);
public.kern2.V_left = (
0,
1,
0,
0.25
);
public.kern2.colon_left = (
1,
0,
1,
0.25
);
public.kern2.h_left = (
0.48,
0,
1,
0.25
);
public.kern2.hyphen_left = (
0.5,
0,
1,
0.25
);

glyphs = (
{
color = 6;
glyphname = A;
layers = (
{
layerId = m01;
shapes = (
{
closed = 1;
nodes = (
(11,-5,o),
(26,10,o),
(34,29,cs),
(330,710,l),
(311,713,l),
(410,33,ls),
(412,14,o),
(417,-2,o),
(442,0,cs),
(465,2,o),
(470,19,o),
(467,40,cs),
(359,743,ls),
(356,760,o),
(350,772,o),
(328,772,cs),
(308,772,o),
(301,762,o),
(292,744,cs),
(-20,48,ls),
(-32,21,o),
(-26,5,o),
(-8,0,cs)
);
},
{
closed = 1;
nodes = (
(391,388,l),
(381,442,l),
(191,442,l),
(169,388,l)
);
}
);
vertWidth = 0;
width = 524;
},
{
layerId = m002;
shapes = (
{
closed = 1;
nodes = (
(44,-8,o),
(81,4,o),
(96,39,cs),
(340,619,l),
(321,621,l),
(392,58,ls),
(398,14,o),
(422,-6,o),
(460,0,cs),
(493,5,o),
(508,31,o),
(503,72,cs),
(399,735,ls),
(396,759,o),
(375,772,o),
(342,772,cs),
(305,772,o),
(295,759,o),
(283,732,cs),
(-12,78,ls),
(-27,44,o),
(-11,13,o),
(17,2,cs)
);
},
{
closed = 1;
nodes = (
(406,293,l),
(393,388,l),
(194,388,l),
(153,293,l)
);
}
);
vertWidth = 0;
width = 558;
}
);
unicode = 65;
},
{
color = 6;
glyphname = B;
kernLeft = H_left;
layers = (
{
layerId = m01;
shapes = (
{
closed = 1;
nodes = (
(339,0,o),
(511,82,o),
(525,216,cs),
(541,366,o),
(387,443,o),
(125,423,c),
(120,371,l),
(342,392,o),
(476,329,o),
(466,225,cs),
(455,125,o),
(326,57,o),
(101,55,c),
(170,719,l),
(373,732,o),
(475,661,o),
(466,580,cs),
(456,503,o),
(411,434,o),
(131,424,c),
(126,381,l),
(472,396,o),
(512,478,o),
(525,575,cs),
(542,706,o),
(404,788,o),
(146,772,cs),
(126,771,o),
(115,762,o),
(113,740,cs),
(39,37,ls),
(37,17,o),
(50,0,o),
(68,0,cs)
);
}
);
vertWidth = 0;
width = 598;
},
{
layerId = m002;
shapes = (
{
closed = 1;
nodes = (
(381,0,o),
(562,82,o),
(577,216,cs),
(593,366,o),
(432,448,o),
(139,428,c),
(129,334,l),
(345,349,o),
(465,304,o),
(455,232,cs),
(446,165,o),
(339,118,o),
(163,115,c),
(221,664,l),
(379,675,o),
(466,617,o),
(459,552,cs),
(451,488,o),
(410,437,o),
(147,429,c),
(139,361,l),
(519,375,o),
(565,457,o),
(576,557,cs),
(593,712,o),
(451,790,o),
(178,772,cs),
(139,770,o),
(118,764,o),
(113,715,cs),
(43,63,ls),
(39,27,o),
(63,0,o),
(99,0,cs)
);
}
);
vertWidth = 0;
width = 650;
}
);
unicode = 66;
},
{
color = 6;
glyphname = C;
kernLeft = O_left;
layers = (
{
layerId = m01;
shapes = (
{
closed = 1;
nodes = (
(353,-6,o),
(446,75,o),
(482,149,cs),
(498,179,o),
(500,196,o),
(480,207,cs),
(460,217,o),
(446,204,o),
(432,177,cs),
(402,118,o),
(337,49,o),
(241,49,cs),
(125,49,o),
(78,182,o),
(118,397,cs),
(154,596,o),
(246,723,o),
(360,723,cs),
(417,723,o),
(463,680,o),
(488,662,cs),
(500,652,o),
(522,644,o),
(537,662,cs),
(552,680,o),
(543,697,o),
(532,707,cs),
(499,737,o),
(449,778,o),
(356,778,cs),
(216,778,o),
(102,636,o),
(58,404,cs),
(10,151,o),
(81,-6,o),
(246,-6,cs)
);
}
);
vertWidth = 0;
width = 570;
},
{
layerId = m002;
shapes = (
{
closed = 1;
nodes = (
(404,-6,o),
(503,65,o),
(543,138,cs),
(570,188,o),
(552,227,o),
(523,242,cs),
(493,258,o),
(466,246,o),
(451,215,cs),
(424,157,o),
(367,99,o),
(276,99,cs),
(187,99,o),
(151,194,o),
(176,393,cs),
(197,567,o),
(270,671,o),
(398,671,cs),
(444,671,o),
(493,637,o),
(518,619,cs),
(544,601,o),
(574,605,o),
(593,638,cs),
(613,674,o),
(598,709,o),
(576,725,cs),
(546,747,o),
(462,778,o),
(390,778,cs),
(204,778,o),
(91,649,o),
(56,407,cs),
(19,157,o),
(93,-6,o),
(274,-6,cs)
);
}
);
vertWidth = 0;
width = 632;
}
);
unicode = 67;
},
{
color = 6;
glyphname = D;
kernLeft = H_left;
kernRight = O_right;
layers = (
{
layerId = m01;
shapes = (
{
closed = 1;
nodes = (
(145,0,ls),
(381,0,o),
(510,152,o),
(538,404,cs),
(563,625,o),
(438,772,o),
(215,772,cs),
(149,772,ls),
(122,772,o),
(116,759,o),
(114,740,cs),
(39,32,ls),
(37,14,o),
(48,0,o),
(69,0,cs)
);
},
{
closed = 1;
nodes = (
(171,718,l),
(223,718,ls),
(400,718,o),
(500,589,o),
(480,409,cs),
(454,181,o),
(348,55,o),
(141,55,cs),
(101,55,l)
);
}
);
vertWidth = 0;
width = 590;
},
{
layerId = m002;
shapes = (
{
closed = 1;
nodes = (
(189,0,ls),
(418,0,o),
(568,153,o),
(594,399,cs),
(617,621,o),
(481,772,o),
(253,772,cs),
(169,772,ls),
(133,772,o),
(115,756,o),
(112,723,cs),
(42,58,ls),
(38,26,o),
(63,0,o),
(99,0,cs)
);
},
{
closed = 1;
nodes = (
(226,668,l),
(240,668,ls),
(399,668,o),
(495,581,o),
(479,403,cs),
(461,206,o),
(352,106,o),
(182,106,cs),
(166,106,l)
);
}
);
vertWidth = 0;
width = 647;
}
);
unicode = 68;
},
{
color = 6;
glyphname = E;
kernLeft = H_left;
layers = (
{
layerId = m01;
shapes = (
{
closed = 1;
nodes = (
(442,0,ls),
(466,0,o),
(474,14,o),
(474,29,cs),
(474,43,o),
(466,55,o),
(442,55,cs),
(102,55,l),
(171,718,l),
(518,718,ls),
(542,718,o),
(550,731,o),
(550,745,cs),
(550,759,o),
(542,772,o),
(518,772,cs),
(149,772,ls),
(122,772,o),
(116,759,o),
(114,740,cs),
(39,32,ls),
(37,14,o),
(48,0,o),
(69,0,cs)
);
},
{
closed = 1;
nodes = (
(453,388,ls),
(476,388,o),
(488,402,o),
(488,416,cs),
(488,430,o),
(479,443,o),
(455,443,cs),
(114,443,l),
(108,388,l)
);
}
);
vertWidth = 0;
width = 567;
},
{
layerId = m002;
shapes = (
{
closed = 1;
nodes = (
(484,0,ls),
(519,0,o),
(539,31,o),
(539,62,cs),
(539,90,o),
(517,107,o),
(479,107,cs),
(166,107,l),
(225,665,l),
(554,665,ls),
(589,665,o),
(611,689,o),
(611,720,cs),
(611,750,o),
(586,772,o),
(549,772,cs),
(172,772,ls),
(135,772,o),
(115,759,o),
(112,726,cs),
(42,59,ls),
(38,26,o),
(53,0,o),
(89,0,cs)
);
},
{
closed = 1;
nodes = (
(487,342,ls),
(525,342,o),
(548,365,o),
(548,393,cs),
(548,424,o),
(522,443,o),
(486,443,cs),
(145,443,l),
(133,342,l)
);
}
);
vertWidth = 0;
width = 631;
}
);
unicode = 69;
},
{
color = 6;
glyphname = F;
kernLeft = H_left;
layers = (
{
layerId = m01;
shapes = (
{
closed = 1;
nodes = (
(95,0,o),
(97,18,o),
(99,30,cs),
(171,718,l),
(518,718,ls),
(542,718,o),
(550,731,o),
(550,745,cs),
(550,759,o),
(542,772,o),
(518,772,cs),
(149,772,ls),
(122,772,o),
(116,759,o),
(114,740,cs),
(39,32,ls),
(37,14,o),
(48,0,o),
(69,0,cs)
);
},
{
closed = 1;
nodes = (
(444,388,ls),
(468,388,o),
(478,402,o),
(478,416,cs),
(478,430,o),
(468,443,o),
(444,443,cs),
(115,443,l),
(109,388,l)
);
}
);
vertWidth = 0;
width = 567;
},
{
layerId = m002;
shapes = (
{
closed = 1;
nodes = (
(138,0,o),
(158,25,o),
(162,61,cs),
(226,665,l),
(539,665,ls),
(575,665,o),
(600,683,o),
(600,718,cs),
(600,751,o),
(575,772,o),
(538,772,cs),
(171,772,ls),
(134,772,o),
(116,758,o),
(113,725,cs),
(43,64,ls),
(39,32,o),
(56,0,o),
(89,0,cs)
);
},
{
closed = 1;
nodes = (
(475,330,ls),
(513,330,o),
(530,353,o),
(530,381,cs),
(530,412,o),
(505,431,o),
(469,431,cs),
(141,431,l),
(131,330,l)
);
}
);
vertWidth = 0;
width = 620;
}
);
unicode = 70;
},
{
color = 6;
glyphname = G;
kernLeft = O_left;
layers = (
{
layerId = m01;
shapes = (
{
closed = 1;
nodes = (
(339,-5,o),
(440,113,o),
(516,343,c),
(516,416,l),
(495,416,o),
(489,404,o),
(485,388,cs),
(409,164,o),
(303,50,o),
(229,50,cs),
(124,50,o),
(80,182,o),
(115,397,cs),
(150,599,o),
(247,723,o),
(372,723,cs),
(455,723,o),
(493,682,o),
(519,653,cs),
(532,640,o),
(550,632,o),
(563,644,cs),
(577,657,o),
(574,672,o),
(562,688,cs),
(532,726,o),
(461,778,o),
(380,778,cs),
(223,778,o),
(100,636,o),
(57,405,cs),
(11,152,o),
(71,-5,o),
(219,-5,cs)
);
},
{
closed = 1;
nodes = (
(506,-1,o),
(511,19,o),
(513,43,cs),
(549,384,ls),
(551,404,o),
(536,416,o),
(516,416,c),
(481,308,l),
(454,43,ls),
(451,18,o),
(455,1,o),
(479,0,cs)
);
}
);
vertWidth = 0;
width = 604;
},
{
layerId = m002;
shapes = (
{
closed = 1;
nodes = (
(360,-6,o),
(446,191,o),
(518,339,c),
(520,440,l),
(475,440,o),
(470,429,o),
(409,322,cs),
(372,258,o),
(279,101,o),
(233,101,cs),
(173,101,o),
(151,203,o),
(173,391,cs),
(192,549,o),
(234,671,o),
(369,671,cs),
(436,671,o),
(467,656,o),
(485,619,cs),
(503,582,o),
(520,567,o),
(560,577,cs),
(592,586,o),
(596,618,o),
(587,647,cs),
(561,729,o),
(478,778,o),
(369,778,cs),
(179,778,o),
(89,631,o),
(56,406,cs),
(20,165,o),
(55,-6,o),
(226,-6,cs)
);
},
{
closed = 1;
nodes = (
(527,0,o),
(539,21,o),
(543,50,cs),
(579,380,ls),
(582,417,o),
(557,440,o),
(520,440,c),
(453,328,l),
(424,58,ls),
(421,21,o),
(446,0,o),
(486,0,cs)
);
}
);
vertWidth = 0;
width = 633;
}
);
unicode = 71;
},
{
color = 6;
glyphname = H;
kernLeft = H_left;
kernRight = H_right;
layers = (
{
layerId = m01;
shapes = (
{
closed = 1;
nodes = (
(95,0,o),
(97,18,o),
(99,30,cs),
(173,735,ls),
(176,757,o),
(169,772,o),
(149,772,cs),
(126,772,o),
(116,759,o),
(114,740,cs),
(39,32,ls),
(37,14,o),
(48,0,o),
(69,0,cs)
);
},
{
closed = 1;
nodes = (
(507,388,l),
(513,443,l),
(113,443,l),
(107,388,l)
);
},
{
closed = 1;
nodes = (
(491,0,o),
(497,15,o),
(498,26,cs),
(574,738,ls),
(576,758,o),
(568,772,o),
(544,772,cs),
(523,772,o),
(516,758,o),
(514,746,cs),
(438,32,ls),
(437,18,o),
(441,0,o),
(468,0,cs)
);
}
);
vertWidth = 0;
width = 615;
},
{
layerId = m002;
shapes = (
{
closed = 1;
nodes = (
(143,0,o),
(159,24,o),
(162,48,cs),
(229,709,ls),
(234,751,o),
(213,772,o),
(178,772,cs),
(146,772,o),
(115,757,o),
(112,723,cs),
(43,58,ls),
(39,25,o),
(64,0,o),
(102,0,cs)
);
},
{
closed = 1;
nodes = (
(489,341,l),
(499,448,l),
(184,448,l),
(175,341,l)
);
},
{
closed = 1;
nodes = (
(532,0,o),
(556,20,o),
(558,44,cs),
(628,712,ls),
(632,750,o),
(607,772,o),
(570,772,cs),
(537,772,o),
(513,754,o),
(511,728,cs),
(441,58,ls),
(437,24,o),
(459,0,o),
(498,0,cs)
);
}
);
vertWidth = 0;
width = 672;
}
);
unicode = 72;
},
{
color = 6;
glyphname = I;
layers = (
{
layerId = m01;
shapes = (
{
closed = 1;
nodes = (
(150,0,l),
(233,772,l),
(172,772,l),
(90,0,l)
);
},
{
closed = 1;
nodes = (
(178,0,ls),
(202,0,o),
(207,13,o),
(207,27,cs),
(207,42,o),
(198,55,o),
(175,55,cs),
(69,55,ls),
(45,55,o),
(39,42,o),
(39,27,cs),
(39,13,o),
(49,0,o),
(72,0,cs)
);
},
{
closed = 1;
nodes = (
(253,718,ls),
(277,718,o),
(282,731,o),
(282,745,cs),
(282,759,o),
(273,772,o),
(249,772,cs),
(144,772,ls),
(120,772,o),
(114,759,o),
(114,745,cs),
(114,731,o),
(124,718,o),
(147,718,cs)
);
}
);
vertWidth = 0;
width = 323;
},
{
layerId = m002;
shapes = (
{
closed = 1;
nodes = (
(235,0,l),
(317,772,l),
(198,772,l),
(116,0,l)
);
},
{
closed = 1;
nodes = (
(255,0,ls),
(298,0,o),
(324,21,o),
(324,55,cs),
(324,87,o),
(302,107,o),
(266,107,cs),
(106,107,ls),
(63,107,o),
(37,86,o),
(37,52,cs),
(37,20,o),
(59,0,o),
(95,0,cs)
);
},
{
closed = 1;
nodes = (
(327,665,ls),
(369,665,o),
(396,687,o),
(396,720,cs),
(396,752,o),
(373,772,o),
(337,772,cs),
(177,772,ls),
(134,772,o),
(108,751,o),
(108,718,cs),
(108,685,o),
(131,665,o),
(166,665,cs)
);
}
);
vertWidth = 0;
width = 436;
}
);
unicode = 73;
},
{
color = 6;
glyphname = J;
kernRight = H_right;
layers = (
{
layerId = m01;
shapes = (
{
closed = 1;
nodes = (
(287,-6,o),
(346,68,o),
(364,244,cs),
(417,772,l),
(358,772,l),
(304,244,ls),
(290,105,o),
(245,49,o),
(168,49,cs),
(118,49,o),
(88,84,o),
(64,114,cs),
(51,131,o),
(33,135,o),
(20,122,cs),
(6,108,o),
(10,91,o),
(20,77,cs),
(55,33,o),
(103,-6,o),
(168,-6,cs)
);
},
{
closed = 1;
nodes = (
(441,718,ls),
(465,718,o),
(469,731,o),
(469,745,cs),
(469,759,o),
(461,772,o),
(437,772,cs),
(331,772,ls),
(308,772,o),
(302,759,o),
(302,745,cs),
(302,731,o),
(311,718,o),
(335,718,cs)
);
}
);
vertWidth = 0;
width = 510;
},
{
layerId = m002;
shapes = (
{
closed = 1;
nodes = (
(289,-5,o),
(377,64,o),
(394,229,cs),
(453,772,l),
(335,772,l),
(280,258,ls),
(266,127,o),
(232,101,o),
(188,101,cs),
(156,101,o),
(120,120,o),
(82,158,cs),
(56,184,o),
(19,181,o),
(-5,152,cs),
(-23,131,o),
(-19,94,o),
(-1,75,cs),
(49,23,o),
(108,-5,o),
(173,-5,cs)
);
},
{
closed = 1;
nodes = (
(463,665,ls),
(506,665,o),
(532,687,o),
(532,720,cs),
(532,752,o),
(510,772,o),
(474,772,cs),
(314,772,ls),
(271,772,o),
(245,751,o),
(245,718,cs),
(245,685,o),
(267,665,o),
(303,665,cs)
);
}
);
vertWidth = 0;
width = 571;
}
);
unicode = 74;
},
{
color = 6;
glyphname = K;
kernLeft = H_left;
layers = (
{
layerId = m01;
shapes = (
{
closed = 1;
nodes = (
(486,0,o),
(498,12,o),
(498,27,cs),
(498,36,o),
(494,43,o),
(488,50,cs),
(171,444,l),
(165,394,l),
(549,715,ls),
(564,729,o),
(571,740,o),
(571,750,cs),
(571,764,o),
(562,772,o),
(546,772,cs),
(536,772,o),
(526,769,o),
(512,757,cs),
(124,428,l),
(122,413,l),
(434,23,ls),
(443,11,o),
(455,0,o),
(470,0,cs)
);
},
{
closed = 1;
nodes = (
(94,0,o),
(97,21,o),
(99,37,cs),
(173,735,ls),
(176,757,o),
(171,772,o),
(149,772,cs),
(125,772,o),
(116,759,o),
(114,740,cs),
(39,38,ls),
(37,20,o),
(48,0,o),
(69,0,cs)
);
}
);
vertWidth = 0;
width = 555;
},
{
layerId = m002;
shapes = (
{
closed = 1;
nodes = (
(537,0,o),
(562,27,o),
(562,55,cs),
(562,70,o),
(555,84,o),
(542,100,cs),
(240,450,l),
(235,388,l),
(601,668,ls),
(618,681,o),
(630,697,o),
(631,715,cs),
(632,743,o),
(609,772,o),
(575,772,cs),
(556,772,o),
(539,764,o),
(522,750,cs),
(165,454,l),
(158,371,l),
(449,30,ls),
(465,12,o),
(486,0,o),
(508,0,cs)
);
},
{
closed = 1;
nodes = (
(141,0,o),
(158,23,o),
(162,53,cs),
(232,709,ls),
(236,756,o),
(206,772,o),
(177,772,cs),
(146,772,o),
(118,757,o),
(114,723,cs),
(43,64,ls),
(39,29,o),
(67,0,o),
(105,0,cs)
);
}
);
vertWidth = 0;
width = 615;
}
);
unicode = 75;
},
{
color = 6;
glyphname = L;
kernLeft = H_left;
layers = (
{
layerId = m01;
shapes = (
{
closed = 1;
nodes = (
(426,0,ls),
(448,0,o),
(457,13,o),
(457,29,cs),
(457,45,o),
(447,55,o),
(425,55,cs),
(102,55,l),
(173,735,ls),
(176,757,o),
(172,772,o),
(149,772,cs),
(125,772,o),
(116,759,o),
(114,740,cs),
(39,32,ls),
(37,14,o),
(48,0,o),
(69,0,c)
);
}
);
vertWidth = 0;
width = 513;
},
{
layerId = m002;
shapes = (
{
closed = 1;
nodes = (
(468,0,ls),
(504,0,o),
(524,26,o),
(524,55,cs),
(524,83,o),
(497,108,o),
(461,108,cs),
(165,108,l),
(229,709,ls),
(234,759,o),
(204,772,o),
(175,772,cs),
(140,772,o),
(115,757,o),
(112,723,cs),
(42,58,ls),
(38,25,o),
(57,0,o),
(93,0,c)
);
}
);
vertWidth = 0;
width = 577;
}
);
unicode = 76;
},
{
color = 6;
glyphname = M;
kernLeft = H_left;
kernRight = H_right;
layers = (
{
layerId = m01;
shapes = (
{
closed = 1;
nodes = (
(12,0,o),
(26,8,o),
(37,30,cs),
(353,677,l),
(334,681,l),
(409,29,ls),
(410,17,o),
(415,0,o),
(442,0,cs),
(465,0,o),
(474,20,o),
(479,29,cs),
(794,680,l),
(775,683,l),
(851,29,ls),
(852,17,o),
(858,0,o),
(883,0,cs),
(902,0,o),
(912,13,o),
(910,31,cs),
(828,739,ls),
(826,758,o),
(823,772,o),
(790,772,cs),
(772,772,o),
(764,754,o),
(758,741,cs),
(442,90,l),
(461,87,l),
(385,750,ls),
(384,759,o),
(375,772,o),
(354,772,cs),
(334,772,o),
(327,759,o),
(318,743,cs),
(-21,45,ls),
(-33,20,o),
(-24,0,o),
(-1,0,cs)
);
}
);
vertWidth = 0;
width = 967;
},
{
layerId = m002;
shapes = (
{
closed = 1;
nodes = (
(59,0,o),
(94,11,o),
(107,39,cs),
(347,545,l),
(339,549,l),
(393,48,ls),
(396,21,o),
(416,0,o),
(451,0,c),
(499,0,o),
(511,23,o),
(518,37,cs),
(763,545,l),
(756,549,l),
(805,48,ls),
(808,23,o),
(833,0,o),
(870,0,cs),
(904,0,o),
(928,24,o),
(924,55,cs),
(852,720,ls),
(848,754,o),
(842,772,o),
(802,772,c),
(765,772,o),
(744,758,o),
(731,732,cs),
(481,217,l),
(489,214,l),
(435,720,ls),
(431,754,o),
(418,772,o),
(371,772,c),
(337,772,o),
(326,758,o),
(314,733,cs),
(-8,76,ls),
(-31,27,o),
(6,0,o),
(38,0,cs)
);
}
);
vertWidth = 0;
width = 979;
}
);
unicode = 77;
},
{
color = 6;
glyphname = N;
kernLeft = H_left;
kernRight = H_right;
layers = (
{
layerId = m01;
shapes = (
{
closed = 1;
nodes = (
(95,0,o),
(97,19,o),
(99,33,cs),
(169,701,l),
(144,696,l),
(437,21,ls),
(443,8,o),
(455,0,o),
(470,0,cs),
(492,0,o),
(495,11,o),
(498,30,cs),
(573,735,ls),
(575,757,o),
(570,772,o),
(548,772,cs),
(524,772,o),
(516,759,o),
(513,740,cs),
(444,89,l),
(469,94,l),
(185,748,ls),
(179,762,o),
(169,772,o),
(147,772,cs),
(122,772,o),
(116,759,o),
(114,740,cs),
(39,32,ls),
(37,14,o),
(48,0,o),
(69,0,cs)
);
}
);
vertWidth = 0;
width = 614;
},
{
layerId = m002;
shapes = (
{
closed = 1;
nodes = (
(137,0,o),
(159,23,o),
(162,50,cs),
(216,581,l),
(188,576,l),
(446,33,ls),
(456,12,o),
(475,0,o),
(505,0,c),
(545,0,o),
(556,23,o),
(558,48,cs),
(627,709,ls),
(631,747,o),
(611,776,o),
(571,776,cs),
(538,776,o),
(513,757,o),
(510,723,cs),
(456,208,l),
(485,213,l),
(236,738,ls),
(225,763,o),
(204,772,o),
(177,772,cs),
(139,772,o),
(115,756,o),
(112,723,cs),
(43,58,ls),
(39,25,o),
(63,0,o),
(97,0,cs)
);
}
);
vertWidth = 0;
width = 672;
}
);
unicode = 78;
},
{
color = 6;
glyphname = O;
kernLeft = O_left;
kernRight = O_right;
layers = (
{
layerId = m01;
shapes = (
{
closed = 1;
nodes = (
(403,-6,o),
(495,135,o),
(523,412,cs),
(544,619,o),
(460,778,o),
(322,778,cs),
(169,778,o),
(76,632,o),
(49,355,cs),
(27,149,o),
(112,-6,o),
(248,-6,cs)
);
},
{
closed = 1;
nodes = (
(152,49,o),
(91,177,o),
(108,347,cs),
(133,593,o),
(204,723,o),
(322,723,cs),
(419,723,o),
(480,590,o),
(463,421,cs),
(438,175,o),
(367,49,o),
(249,49,cs)
);
}
);
vertWidth = 0;
width = 575;
},
{
layerId = m002;
shapes = (
{
closed = 1;
nodes = (
(446,-6,o),
(561,156,o),
(587,402,cs),
(609,624,o),
(512,778,o),
(359,778,c),
(192,778,o),
(77,617,o),
(51,371,cs),
(29,149,o),
(126,-6,o),
(279,-6,c)
);
},
{
closed = 1;
nodes = (
(203,101,o),
(153,209,o),
(169,371,cs),
(185,550,o),
(254,671,o),
(349,671,c),
(435,671,o),
(485,563,o),
(469,402,cs),
(453,222,o),
(384,101,o),
(289,101,c)
);
}
);
vertWidth = 0;
width = 639;
}
);
unicode = 79;
},
{
color = 6;
glyphname = P;
kernLeft = H_left;
layers = (
{
layerId = m01;
shapes = (
{
closed = 1;
nodes = (
(95,0,o),
(97,23,o),
(99,34,cs),
(171,718,l),
(369,715,o),
(486,661,o),
(476,567,cs),
(463,442,o),
(318,402,o),
(109,403,c),
(105,349,l),
(336,348,o),
(519,399,o),
(536,561,cs),
(550,704,o),
(394,772,o),
(149,772,cs),
(125,772,o),
(116,760,o),
(114,740,cs),
(39,37,ls),
(37,19,o),
(48,0,o),
(69,0,cs)
);
}
);
vertWidth = 0;
width = 571;
},
{
layerId = m002;
shapes = (
{
closed = 1;
nodes = (
(139,0,o),
(158,20,o),
(160,46,cs),
(225,664,l),
(394,663,o),
(456,633,o),
(448,561,cs),
(436,454,o),
(283,426,o),
(141,424,c),
(131,317,l),
(321,320,o),
(544,343,o),
(567,555,cs),
(584,715,o),
(417,772,o),
(166,772,cs),
(135,772,o),
(115,757,o),
(112,723,cs),
(42,57,ls),
(38,25,o),
(59,0,o),
(99,0,cs)
);
}
);
vertWidth = 0;
width = 604;
}
);
unicode = 80;
},
{
color = 6;
glyphname = Q;
kernLeft = O_left;
kernRight = O_right;
layers = (
{
layerId = m01;
shapes = (
{
closed = 1;
nodes = (
(403,-6,o),
(495,135,o),
(523,412,cs),
(544,619,o),
(460,778,o),
(322,778,cs),
(169,778,o),
(76,632,o),
(49,355,cs),
(27,149,o),
(112,-6,o),
(248,-6,cs)
);
},
{
closed = 1;
nodes = (
(152,49,o),
(91,177,o),
(108,347,cs),
(133,593,o),
(204,723,o),
(322,723,cs),
(419,723,o),
(480,590,o),
(463,421,cs),
(438,175,o),
(367,49,o),
(249,49,cs)
);
},
{
closed = 1;
nodes = (
(492,-13,o),
(492,6,o),
(478,26,cs),
(346,204,ls),
(328,230,o),
(308,238,o),
(292,223,cs),
(279,213,o),
(282,192,o),
(297,171,cs),
(428,-7,ls),
(443,-26,o),
(462,-33,o),
(476,-24,cs)
);
}
);
vertWidth = 0;
width = 575;
},
{
layerId = m002;
shapes = (
{
closed = 1;
nodes = (
(446,-6,o),
(561,156,o),
(587,402,cs),
(609,624,o),
(512,778,o),
(359,778,c),
(192,778,o),
(77,617,o),
(51,371,cs),
(29,149,o),
(126,-6,o),
(279,-6,c)
);
},
{
closed = 1;
nodes = (
(203,101,o),
(153,209,o),
(169,371,cs),
(185,550,o),
(254,671,o),
(349,671,c),
(435,671,o),
(485,563,o),
(469,402,cs),
(453,222,o),
(384,101,o),
(289,101,c)
);
},
{
closed = 1;
nodes = (
(546,2,o),
(549,33,o),
(529,62,cs),
(400,239,ls),
(375,273,o),
(336,279,o),
(311,259,cs),
(289,240,o),
(284,210,o),
(309,178,cs),
(435,6,ls),
(459,-25,o),
(495,-40,o),
(522,-19,cs)
);
}
);
vertWidth = 0;
width = 639;
}
);
unicode = 81;
},
{
color = 6;
glyphname = R;
kernLeft = H_left;
layers = (
{
layerId = m01;
shapes = (
{
closed = 1;
nodes = (
(94,0,o),
(96,19,o),
(99,37,cs),
(170,718,l),
(375,715,o),
(475,674,o),
(465,583,cs),
(454,491,o),
(304,413,o),
(109,413,c),
(105,361,l),
(337,361,o),
(513,451,o),
(524,577,cs),
(536,720,o),
(402,772,o),
(147,772,cs),
(121,772,o),
(115,759,o),
(113,740,cs),
(39,39,ls),
(37,19,o),
(46,0,o),
(68,0,cs)
);
},
{
closed = 1;
nodes = (
(447,0,o),
(459,8,o),
(461,18,cs),
(463,27,o),
(461,42,o),
(447,59,cs),
(185,391,l),
(116,383,l),
(398,23,ls),
(410,7,o),
(425,0,o),
(435,0,cs)
);
}
);
vertWidth = 0;
width = 558;
},
{
layerId = m002;
shapes = (
{
closed = 1;
nodes = (
(134,0,o),
(156,21,o),
(160,63,cs),
(225,669,l),
(416,668,o),
(480,655,o),
(470,569,cs),
(461,491,o),
(342,417,o),
(141,417,c),
(131,322,l),
(378,322,o),
(577,398,o),
(589,567,cs),
(602,739,o),
(447,772,o),
(175,772,cs),
(138,772,o),
(115,757,o),
(112,723,cs),
(43,71,ls),
(39,32,o),
(53,0,o),
(93,0,cs)
);
},
{
closed = 1;
nodes = (
(491,0,o),
(513,11,o),
(523,31,cs),
(530,46,o),
(530,69,o),
(518,84,cs),
(305,346,l),
(165,339,l),
(412,27,ls),
(431,2,o),
(453,0,o),
(468,0,cs)
);
}
);
vertWidth = 0;
width = 625;
}
);
unicode = 82;
},
{
color = 6;
glyphname = S;
layers = (
{
layerId = m01;
shapes = (
{
closed = 1;
nodes = (
(321,-6,o),
(422,58,o),
(436,192,cs),
(448,307,o),
(375,384,o),
(280,438,cs),
(183,494,o),
(122,541,o),
(129,608,cs),
(137,676,o),
(202,723,o),
(315,723,cs),
(375,723,o),
(412,693,o),
(428,650,cs),
(434,634,o),
(450,627,o),
(466,632,cs),
(482,637,o),
(485,656,o),
(478,677,cs),
(459,733,o),
(405,778,o),
(312,778,cs),
(160,778,o),
(82,701,o),
(72,613,cs),
(63,518,o),
(141,449,o),
(235,396,cs),
(340,336,o),
(385,280,o),
(378,201,cs),
(368,97,o),
(285,49,o),
(202,49,cs),
(127,49,o),
(83,81,o),
(74,118,cs),
(69,138,o),
(51,145,o),
(34,140,cs),
(17,135,o),
(14,116,o),
(19,97,cs),
(34,36,o),
(101,-6,o),
(183,-6,cs)
);
}
);
vertWidth = 0;
width = 501;
},
{
layerId = m002;
shapes = (
{
closed = 1;
nodes = (
(417,-6,o),
(518,72,o),
(531,200,cs),
(546,339,o),
(456,416,o),
(375,461,cs),
(303,501,o),
(219,555,o),
(225,604,cs),
(230,649,o),
(279,672,o),
(352,672,cs),
(412,672,o),
(454,644,o),
(472,612,cs),
(489,580,o),
(523,571,o),
(555,587,cs),
(582,601,o),
(589,627,o),
(577,655,cs),
(542,733,o),
(478,778,o),
(369,778,cs),
(206,778,o),
(114,718,o),
(102,607,cs),
(90,493,o),
(221,411,o),
(298,369,cs),
(383,324,o),
(424,270,o),
(418,204,cs),
(412,145,o),
(354,108,o),
(266,108,cs),
(192,108,o),
(157,154,o),
(150,179,cs),
(139,217,o),
(103,229,o),
(74,220,cs),
(48,211,o),
(18,182,o),
(32,134,cs),
(50,72,o),
(134,-6,o),
(267,-6,cs)
);
}
);
vertWidth = 0;
width = 612;
}
);
unicode = 83;
},
{
color = 6;
glyphname = T;
layers = (
{
layerId = m01;
shapes = (
{
closed = 1;
nodes = (
(278,0,o),
(285,21,o),
(287,40,cs),
(361,741,l),
(302,741,l),
(228,44,ls),
(226,20,o),
(232,0,o),
(254,0,cs)
);
},
{
closed = 1;
nodes = (
(556,718,ls),
(580,718,o),
(584,731,o),
(584,745,cs),
(584,759,o),
(576,772,o),
(552,772,cs),
(108,772,ls),
(84,772,o),
(78,759,o),
(78,745,cs),
(78,731,o),
(88,718,o),
(112,718,cs)
);
}
);
vertWidth = 0;
width = 590;
},
{
layerId = m002;
shapes = (
{
closed = 1;
nodes = (
(301,-2,o),
(320,26,o),
(322,51,cs),
(387,682,l),
(267,682,l),
(203,58,ls),
(200,25,o),
(225,-2,o),
(261,-2,cs)
);
},
{
closed = 1;
nodes = (
(556,665,ls),
(594,665,o),
(612,689,o),
(612,718,cs),
(612,748,o),
(583,772,o),
(548,772,cs),
(110,772,ls),
(75,772,o),
(57,748,o),
(56,718,cs),
(55,689,o),
(81,665,o),
(119,665,cs)
);
}
);
vertWidth = 0;
width = 596;
}
);
unicode = 84;
},
{
color = 6;
glyphname = U;
kernLeft = H_left;
kernRight = H_right;
layers = (
{
layerId = m01;
shapes = (
{
closed = 1;
nodes = (
(393,-5,o),
(505,116,o),
(522,278,cs),
(570,741,ls),
(573,759,o),
(562,772,o),
(541,772,cs),
(519,772,o),
(512,758,o),
(511,744,cs),
(461,278,ls),
(447,147,o),
(361,50,o),
(261,50,cs),
(169,50,o),
(109,143,o),
(124,267,cs),
(173,735,ls),
(176,753,o),
(164,772,o),
(146,772,cs),
(127,772,o),
(115,756,o),
(113,737,cs),
(64,271,ls),
(48,113,o),
(132,-5,o),
(260,-5,cs)
);
}
);
vertWidth = 0;
width = 611;
},
{
layerId = m002;
shapes = (
{
closed = 1;
nodes = (
(438,-5,o),
(563,125,o),
(582,297,cs),
(628,718,ls),
(632,748,o),
(615,772,o),
(570,772,cs),
(532,772,o),
(513,747,o),
(510,720,cs),
(463,297,ls),
(451,185,o),
(378,102,o),
(291,102,cs),
(219,102,o),
(173,181,o),
(185,286,cs),
(232,719,ls),
(235,747,o),
(219,772,o),
(176,772,cs),
(134,772,o),
(114,747,o),
(112,720,cs),
(67,290,ls),
(49,121,o),
(144,-5,o),
(290,-5,cs)
);
}
);
vertWidth = 0;
width = 672;
}
);
unicode = 85;
},
{
color = 6;
glyphname = V;
kernLeft = V_left;
kernRight = V_right;
layers = (
{
layerId = m01;
shapes = (
{
closed = 1;
nodes = (
(221,0,o),
(225,13,o),
(232,30,cs),
(513,734,ls),
(523,758,o),
(511,772,o),
(493,772,cs),
(470,772,o),
(461,763,o),
(453,743,cs),
(240,203,l),
(194,70,l),
(209,68,l),
(195,201,l),
(115,744,ls),
(114,756,o),
(108,772,o),
(82,772,cs),
(61,772,o),
(53,759,o),
(56,741,cs),
(164,33,ls),
(166,18,o),
(177,0,o),
(198,0,cs)
);
}
);
vertWidth = 0;
width = 498;
},
{
layerId = m002;
shapes = (
{
closed = 1;
nodes = (
(253,0,o),
(272,20,o),
(282,43,cs),
(554,702,ls),
(570,743,o),
(544,772,o),
(506,772,cs),
(472,772,o),
(448,758,o),
(438,734,cs),
(291,361,l),
(226,177,l),
(248,175,l),
(223,361,l),
(173,725,ls),
(170,752,o),
(144,772,o),
(106,772,cs),
(71,772,o),
(49,753,o),
(55,718,cs),
(160,55,ls),
(165,25,o),
(183,0,o),
(219,0,cs)
);
}
);
vertWidth = 0;
width = 542;
}
);
unicode = 86;
},
{
color = 6;
glyphname = W;
kernLeft = V_left;
kernRight = V_right;
layers = (
{
layerId = m01;
shapes = (
{
closed = 1;
nodes = (
(221,0,o),
(227,18,o),
(232,31,cs),
(450,588,l),
(486,707,l),
(472,708,l),
(485,584,l),
(568,30,ls),
(570,15,o),
(580,0,o),
(600,0,c),
(623,0,o),
(627,13,o),
(634,30,cs),
(917,734,ls),
(928,759,o),
(911,772,o),
(895,772,cs),
(872,772,o),
(866,765,o),
(857,743,cs),
(651,223,l),
(598,64,l),
(612,62,l),
(596,228,l),
(519,744,ls),
(517,757,o),
(512,772,o),
(484,772,c),
(465,772,o),
(454,757,o),
(449,744,cs),
(247,225,l),
(194,70,l),
(209,68,l),
(192,225,l),
(115,744,ls),
(113,756,o),
(108,772,o),
(82,772,c),
(61,772,o),
(53,759,o),
(56,741,cs),
(164,33,ls),
(166,14,o),
(181,0,o),
(197,0,c)
);
}
);
vertWidth = 0;
width = 902;
},
{
layerId = m002;
shapes = (
{
closed = 1;
nodes = (
(248,0,o),
(268,17,o),
(283,51,cs),
(461,489,l),
(492,586,l),
(487,587,l),
(497,489,l),
(561,52,ls),
(565,18,o),
(589,0,o),
(621,0,cs),
(651,0,o),
(671,17,o),
(685,51,cs),
(955,702,ls),
(967,731,o),
(949,772,o),
(904,772,cs),
(866,772,o),
(846,748,o),
(839,732,cs),
(680,328,l),
(628,176,l),
(642,173,l),
(625,328,l),
(567,725,ls),
(562,754,o),
(544,772,o),
(504,772,cs),
(465,772,o),
(449,753,o),
(440,727,cs),
(287,329,l),
(233,179,l),
(245,177,l),
(226,333,l),
(172,725,ls),
(169,752,o),
(144,772,o),
(106,772,cs),
(71,772,o),
(48,753,o),
(53,718,cs),
(158,52,ls),
(164,18,o),
(187,0,o),
(219,0,cs)
);
}
);
vertWidth = 0;
width = 943;
}
);
unicode = 87;
},
{
color = 6;
glyphname = X;
layers = (
{
layerId = m01;
shapes = (
{
closed = 1;
nodes = (
(27,-4,o),
(48,-2,o),
(59,15,cs),
(285,358,l),
(292,358,l),
(531,723,ls),
(543,741,o),
(539,758,o),
(529,766,cs),
(516,776,o),
(493,775,o),
(481,757,cs),
(261,418,l),
(253,417,l),
(8,45,ls),
(-1,31,o),
(2,15,o),
(14,7,cs)
);
},
{
closed = 1;
nodes = (
(460,10,o),
(468,24,o),
(460,42,cs),
(295,410,l),
(143,750,ls),
(133,772,o),
(108,777,o),
(95,771,cs),
(81,766,o),
(77,751,o),
(87,729,cs),
(249,366,l),
(403,24,ls),
(412,1,o),
(434,-4,o),
(449,4,cs)
);
}
);
vertWidth = 0;
width = 544;
},
{
layerId = m002;
shapes = (
{
closed = 1;
nodes = (
(50,-4,o),
(99,-10,o),
(116,19,cs),
(315,331,l),
(333,331,l),
(574,687,ls),
(593,715,o),
(584,740,o),
(562,759,cs),
(539,778,o),
(492,779,o),
(473,750,cs),
(280,446,l),
(263,446,l),
(15,82,ls),
(-1,57,o),
(4,34,o),
(26,15,cs)
);
},
{
closed = 1;
nodes = (
(500,20,o),
(510,43,o),
(497,72,cs),
(334,436,l),
(198,740,ls),
(183,773,o),
(141,777,o),
(115,769,cs),
(84,757,o),
(71,733,o),
(88,696,cs),
(247,340,l),
(384,33,ls),
(399,-1,o),
(449,-7,o),
(476,7,cs)
);
}
);
vertWidth = 0;
width = 605;
}
);
unicode = 88;
},
{
color = 6;
glyphname = Y;
layers = (
{
layerId = m01;
shapes = (
{
closed = 1;
nodes = (
(53,763,o),
(51,747,o),
(59,728,cs),
(261,286,l),
(301,345,l),
(115,748,ls),
(109,763,o),
(96,778,o),
(74,770,cs)
);
},
{
closed = 1;
nodes = (
(103,-4,o),
(125,-4,o),
(135,14,cs),
(552,723,ls),
(563,741,o),
(558,759,o),
(541,769,cs),
(526,776,o),
(512,772,o),
(501,754,cs),
(86,45,ls),
(77,31,o),
(78,15,o),
(90,7,cs)
);
}
);
vertWidth = 0;
width = 539;
},
{
layerId = m002;
shapes = (
{
closed = 1;
nodes = (
(51,756,o),
(45,722,o),
(58,694,cs),
(258,265,l),
(328,373,l),
(169,738,ls),
(157,765,o),
(125,781,o),
(88,767,cs)
);
},
{
closed = 1;
nodes = (
(115,-8,o),
(165,-2,o),
(182,26,cs),
(576,687,ls),
(593,715,o),
(584,748,o),
(554,766,cs),
(529,779,o),
(489,772,o),
(470,741,cs),
(78,89,ls),
(63,64,o),
(69,30,o),
(91,11,cs)
);
}
);
vertWidth = 0;
width = 569;
}
);
unicode = 89;
},
{
color = 6;
glyphname = Z;
layers = (
{
layerId = m01;
shapes = (
{
closed = 1;
nodes = (
(444,0,ls),
(468,0,o),
(474,15,o),
(473,30,cs),
(472,44,o),
(465,55,o),
(441,55,cs),
(63,55,l),
(78,30,l),
(542,723,ls),
(558,750,o),
(539,772,o),
(518,772,c),
(120,772,ls),
(96,772,o),
(89,757,o),
(90,743,cs),
(91,728,o),
(100,718,o),
(124,718,cs),
(504,718,l),
(488,743,l),
(21,46,ls),
(7,25,o),
(20,0,o),
(48,0,c)
);
}
);
vertWidth = 0;
width = 565;
},
{
layerId = m002;
shapes = (
{
closed = 1;
nodes = (
(447,0,ls),
(485,0,o),
(503,23,o),
(503,51,cs),
(503,83,o),
(479,107,o),
(443,107,cs),
(131,107,l),
(146,77,l),
(563,685,ls),
(588,722,o),
(570,772,o),
(519,772,c),
(133,772,ls),
(97,772,o),
(76,748,o),
(78,718,cs),
(80,689,o),
(103,665,o),
(141,665,cs),
(447,665,l),
(431,695,l),
(15,83,ls),
(-7,50,o),
(13,0,o),
(65,0,c)
);
}
);
vertWidth = 0;
width = 594;
}
);
unicode = 90;
},
{
color = 6;
glyphname = a;
kernLeft = o_left;
kernRight = n_right;
layers = (
{
layerId = m01;
shapes = (
{
closed = 1;
nodes = (
(208,-1,o),
(252,42,o),
(279,97,c),
(296,290,l),
(278,189,o),
(223,53,o),
(157,53,cs),
(95,53,o),
(72,128,o),
(81,206,cs),
(91,307,o),
(140,366,o),
(198,366,cs),
(232,366,o),
(280,352,o),
(303,317,c),
(309,372,l),
(279,405,o),
(235,421,o),
(200,421,cs),
(112,421,o),
(36,346,o),
(21,209,cs),
(11,105,o),
(52,-1,o),
(156,-1,cs)
);
},
{
closed = 1;
nodes = (
(309,0,o),
(324,12,o),
(327,33,cs),
(364,380,ls),
(366,404,o),
(352,416,o),
(337,416,cs),
(322,416,o),
(307,405,o),
(304,384,cs),
(267,33,ls),
(265,11,o),
(279,0,o),
(295,0,cs)
);
}
);
vertWidth = 0;
width = 418;
},
{
layerId = m002;
shapes = (
{
closed = 1;
nodes = (
(228,-1,o),
(257,89,o),
(284,135,c),
(271,311,l),
(246,154,o),
(211,106,o),
(172,106,cs),
(143,106,o),
(131,141,o),
(138,202,cs),
(146,280,o),
(172,321,o),
(209,321,cs),
(235,321,o),
(273,308,o),
(323,235,c),
(337,360,l),
(308,400,o),
(251,428,o),
(210,428,cs),
(116,428,o),
(37,349,o),
(23,213,cs),
(12,108,o),
(48,-1,o),
(150,-1,cs)
);
},
{
closed = 1;
nodes = (
(326,0,o),
(356,17,o),
(360,51,cs),
(392,356,ls),
(396,396,o),
(366,416,o),
(334,416,cs),
(304,416,o),
(279,400,o),
(276,366,cs),
(244,58,ls),
(240,20,o),
(265,0,o),
(297,0,cs)
);
}
);
vertWidth = 0;
width = 449;
}
);
unicode = 97;
},
{
color = 6;
glyphname = b;
kernLeft = h_left;
kernRight = o_right;
layers = (
{
layerId = m01;
shapes = (
{
closed = 1;
nodes = (
(70,0,o),
(84,8,o),
(87,26,cs),
(163,741,ls),
(165,760,o),
(150,772,o),
(133,772,cs),
(120,772,o),
(106,765,o),
(103,747,cs),
(27,32,ls),
(25,11,o),
(40,0,o),
(57,0,cs)
);
},
{
closed = 1;
nodes = (
(270,-1,o),
(346,65,o),
(360,202,cs),
(371,307,o),
(329,421,o),
(226,421,cs),
(173,421,o),
(129,369,o),
(102,314,c),
(93,164,l),
(113,236,o),
(168,366,o),
(225,366,cs),
(286,366,o),
(309,283,o),
(301,206,cs),
(290,105,o),
(241,53,o),
(183,53,cs),
(150,53,o),
(101,59,o),
(78,94,c),
(72,39,l),
(102,6,o),
(146,-1,o),
(182,-1,cs)
);
}
);
vertWidth = 0;
width = 422;
},
{
layerId = m002;
shapes = (
{
closed = 1;
nodes = (
(120,0,o),
(146,29,o),
(151,68,cs),
(220,709,ls),
(223,743,o),
(206,772,o),
(164,772,cs),
(128,772,o),
(105,747,o),
(101,715,cs),
(31,68,ls),
(26,25,o),
(46,0,o),
(86,0,cs)
);
},
{
closed = 1;
nodes = (
(310,-1,o),
(392,75,o),
(407,211,cs),
(422,346,o),
(373,428,o),
(280,428,cs),
(225,428,o),
(181,391,o),
(149,320,c),
(143,107,l),
(170,245,o),
(226,321,o),
(255,321,cs),
(283,321,o),
(296,283,o),
(289,221,cs),
(280,144,o),
(254,102,o),
(219,102,cs),
(184,102,o),
(166,107,o),
(106,200,c),
(90,67,l),
(116,27,o),
(170,-1,o),
(217,-1,cs)
);
}
);
vertWidth = 0;
width = 468;
}
);
unicode = 98;
},
{
color = 6;
glyphname = c;
kernLeft = o_left;
layers = (
{
layerId = m01;
shapes = (
{
closed = 1;
nodes = (
(222,-1,o),
(268,38,o),
(298,91,cs),
(304,103,o),
(301,120,o),
(286,128,cs),
(271,137,o),
(253,132,o),
(247,120,cs),
(225,77,o),
(192,53,o),
(162,53,cs),
(95,53,o),
(72,128,o),
(81,206,cs),
(91,307,o),
(140,366,o),
(198,366,cs),
(226,366,o),
(247,350,o),
(259,330,cs),
(265,321,o),
(279,315,o),
(295,323,cs),
(309,331,o),
(312,349,o),
(307,358,cs),
(284,393,o),
(248,421,o),
(200,421,cs),
(112,421,o),
(36,346,o),
(21,209,cs),
(11,105,o),
(52,-1,o),
(156,-1,cs)
);
}
);
vertWidth = 0;
width = 373;
},
{
layerId = m002;
shapes = (
{
closed = 1;
nodes = (
(252,-5,o),
(301,42,o),
(329,93,cs),
(342,116,o),
(334,147,o),
(309,160,cs),
(282,175,o),
(252,166,o),
(239,143,cs),
(221,110,o),
(204,96,o),
(187,96,cs),
(152,96,o),
(134,141,o),
(143,215,cs),
(151,296,o),
(181,328,o),
(219,328,cs),
(238,328,o),
(246,322,o),
(252,314,cs),
(266,293,o),
(293,283,o),
(318,298,cs),
(345,314,o),
(350,346,o),
(337,365,cs),
(314,402,o),
(273,428,o),
(220,428,cs),
(131,428,o),
(38,356,o),
(24,223,cs),
(8,82,o),
(69,-5,o),
(182,-5,cs)
);
}
);
vertWidth = 0;
width = 406;
}
);
unicode = 99;
},
{
color = 6;
glyphname = d;
kernLeft = o_left;
layers = (
{
layerId = m01;
shapes = (
{
closed = 1;
nodes = (
(208,-1,o),
(252,42,o),
(279,97,c),
(296,290,l),
(278,189,o),
(223,53,o),
(157,53,cs),
(95,53,o),
(72,128,o),
(81,206,cs),
(91,307,o),
(140,366,o),
(198,366,cs),
(232,366,o),
(280,352,o),
(303,317,c),
(309,372,l),
(279,405,o),
(235,421,o),
(200,421,cs),
(112,421,o),
(36,346,o),
(21,209,cs),
(11,105,o),
(52,-1,o),
(156,-1,cs)
);
},
{
closed = 1;
nodes = (
(309,0,o),
(324,12,o),
(327,33,cs),
(400,737,ls),
(403,760,o),
(388,772,o),
(374,772,cs),
(359,772,o),
(343,762,o),
(341,740,cs),
(267,33,ls),
(265,11,o),
(279,0,o),
(295,0,cs)
);
}
);
vertWidth = 0;
width = 430;
},
{
layerId = m002;
shapes = (
{
closed = 1;
nodes = (
(228,-1,o),
(257,89,o),
(284,135,c),
(271,311,l),
(246,154,o),
(211,106,o),
(172,106,cs),
(143,106,o),
(131,141,o),
(138,202,cs),
(146,280,o),
(172,321,o),
(209,321,cs),
(235,321,o),
(273,308,o),
(323,235,c),
(337,360,l),
(308,400,o),
(251,428,o),
(210,428,cs),
(116,428,o),
(37,349,o),
(23,213,cs),
(12,108,o),
(48,-1,o),
(150,-1,cs)
);
},
{
closed = 1;
nodes = (
(334,0,o),
(360,29,o),
(365,68,cs),
(434,709,ls),
(437,743,o),
(419,772,o),
(378,772,cs),
(342,772,o),
(318,747,o),
(315,715,cs),
(245,68,ls),
(240,25,o),
(260,0,o),
(299,0,cs)
);
}
);
vertWidth = 0;
width = 466;
}
);
unicode = 100;
},
{
color = 6;
glyphname = e;
kernLeft = o_left;
layers = (
{
layerId = m01;
shapes = (
{
closed = 1;
nodes = (
(222,-1,o),
(268,38,o),
(298,91,cs),
(304,103,o),
(301,120,o),
(286,128,cs),
(271,137,o),
(253,132,o),
(247,120,cs),
(225,77,o),
(192,53,o),
(162,53,cs),
(95,53,o),
(72,128,o),
(81,206,cs),
(91,307,o),
(140,366,o),
(198,366,cs),
(235,366,o),
(252,348,o),
(252,334,cs),
(252,308,o),
(144,231,o),
(71,187,c),
(78,129,l),
(173,189,o),
(312,277,o),
(312,339,cs),
(312,382,o),
(257,421,o),
(200,421,cs),
(112,421,o),
(36,346,o),
(21,209,cs),
(11,105,o),
(52,-1,o),
(156,-1,cs)
);
}
);
vertWidth = 0;
width = 373;
},
{
layerId = m002;
shapes = (
{
closed = 1;
nodes = (
(246,-5,o),
(312,32,o),
(346,91,cs),
(359,118,o),
(349,150,o),
(323,165,cs),
(292,183,o),
(267,172,o),
(253,145,cs),
(239,119,o),
(210,102,o),
(182,102,cs),
(143,102,o),
(124,149,o),
(131,209,cs),
(139,287,o),
(185,322,o),
(222,322,cs),
(232,322,o),
(234,318,o),
(234,312,cs),
(234,293,o),
(176,242,o),
(75,184,c),
(82,88,l),
(284,220,o),
(343,273,o),
(343,329,cs),
(343,384,o),
(303,428,o),
(230,428,cs),
(137,428,o),
(37,356,o),
(23,220,cs),
(12,115,o),
(56,-5,o),
(172,-5,cs)
);
}
);
vertWidth = 0;
width = 423;
}
);
unicode = 101;
},
{
color = 6;
glyphname = f;
layers = (
{
layerId = m01;
shapes = (
{
closed = 1;
nodes = (
(99,0,o),
(106,18,o),
(107,32,cs),
(169,615,ls),
(176,681,o),
(200,718,o),
(236,718,cs),
(264,718,o),
(285,706,o),
(297,685,cs),
(303,676,o),
(317,670,o),
(333,678,cs),
(347,687,o),
(350,703,o),
(345,713,cs),
(322,748,o),
(286,772,o),
(238,772,cs),
(171,772,o),
(121,723,o),
(110,626,cs),
(48,33,ls),
(46,19,o),
(57,0,o),
(78,0,cs)
);
},
{
closed = 1;
nodes = (
(235,362,ls),
(259,362,o),
(264,375,o),
(264,390,cs),
(264,404,o),
(255,416,o),
(232,416,cs),
(27,416,ls),
(0,416,o),
(-6,404,o),
(-6,390,cs),
(-6,375,o),
(4,362,o),
(27,362,cs)
);
}
);
vertWidth = 0;
width = 274;
},
{
layerId = m002;
shapes = (
{
closed = 1;
nodes = (
(144,-1,o),
(162,30,o),
(164,56,cs),
(220,587,ls),
(226,639,o),
(236,665,o),
(253,665,cs),
(270,665,o),
(280,662,o),
(290,646,cs),
(303,625,o),
(328,611,o),
(356,626,cs),
(381,642,o),
(396,677,o),
(379,704,cs),
(353,745,o),
(310,772,o),
(254,772,cs),
(176,772,o),
(113,709,o),
(102,604,cs),
(45,64,ls),
(42,32,o),
(68,-1,o),
(106,-1,cs)
);
},
{
closed = 1;
nodes = (
(247,309,ls),
(283,309,o),
(304,329,o),
(304,362,cs),
(304,396,o),
(283,416,o),
(247,416,cs),
(51,416,ls),
(13,416,o),
(-10,396,o),
(-10,362,cs),
(-10,329,o),
(13,309,o),
(51,309,cs)
);
}
);
vertWidth = 0;
width = 316;
}
);
unicode = 102;
},
{
color = 6;
glyphname = g;
kernLeft = o_left;
layers = (
{
layerId = m01;
shapes = (
{
closed = 1;
nodes = (
(208,-1,o),
(252,42,o),
(279,97,c),
(296,290,l),
(278,189,o),
(223,53,o),
(157,53,cs),
(95,53,o),
(72,128,o),
(81,206,cs),
(91,307,o),
(140,366,o),
(198,366,cs),
(232,366,o),
(280,352,o),
(303,317,c),
(309,372,l),
(279,405,o),
(235,421,o),
(200,421,cs),
(112,421,o),
(36,346,o),
(21,209,cs),
(11,105,o),
(52,-1,o),
(156,-1,cs)
);
},
{
closed = 1;
nodes = (
(223,-356,o),
(293,-276,o),
(308,-146,cs),
(364,380,ls),
(366,404,o),
(352,416,o),
(337,416,cs),
(322,416,o),
(307,405,o),
(304,384,cs),
(248,-146,ls),
(238,-242,o),
(190,-302,o),
(124,-302,cs),
(90,-302,o),
(57,-289,o),
(37,-268,cs),
(27,-259,o),
(14,-257,o),
(4,-264,cs),
(-14,-276,o),
(-15,-292,o),
(0,-308,cs),
(29,-337,o),
(76,-356,o),
(122,-356,cs)
);
}
);
vertWidth = 0;
width = 418;
},
{
layerId = m002;
shapes = (
{
closed = 1;
nodes = (
(228,-1,o),
(257,89,o),
(284,135,c),
(271,311,l),
(246,154,o),
(211,106,o),
(172,106,cs),
(143,106,o),
(131,141,o),
(138,202,cs),
(146,280,o),
(172,321,o),
(209,321,cs),
(235,321,o),
(273,308,o),
(323,235,c),
(337,360,l),
(308,400,o),
(251,428,o),
(210,428,cs),
(116,428,o),
(37,349,o),
(23,213,cs),
(12,108,o),
(48,-1,o),
(150,-1,cs)
);
},
{
closed = 1;
nodes = (
(244,-356,o),
(327,-285,o),
(342,-143,cs),
(396,347,ls),
(400,387,o),
(371,416,o),
(339,416,cs),
(308,416,o),
(280,393,o),
(277,358,cs),
(223,-135,ls),
(214,-219,o),
(185,-249,o),
(140,-249,cs),
(115,-249,o),
(90,-238,o),
(70,-217,cs),
(57,-204,o),
(37,-188,o),
(6,-208,cs),
(-21,-226,o),
(-30,-264,o),
(-5,-293,cs),
(19,-323,o),
(70,-356,o),
(133,-356,cs)
);
}
);
vertWidth = 0;
width = 454;
}
);
unicode = 103;
},
{
color = 6;
glyphname = h;
kernLeft = h_left;
kernRight = n_right;
layers = (
{
layerId = m01;
shapes = (
{
closed = 1;
nodes = (
(69,0,o),
(83,8,o),
(86,27,cs),
(162,740,ls),
(164,762,o),
(152,772,o),
(137,772,cs),
(121,772,o),
(105,762,o),
(102,740,cs),
(26,27,ls),
(24,10,o),
(38,0,o),
(53,0,cs)
);
},
{
closed = 1;
nodes = (
(315,0,o),
(314,21,o),
(316,37,cs),
(346,278,ls),
(356,366,o),
(321,421,o),
(253,421,cs),
(188,421,o),
(137,362,o),
(91,268,c),
(80,135,l),
(154,299,o),
(200,362,o),
(249,362,cs),
(278,362,o),
(292,330,o),
(286,278,cs),
(258,37,ls),
(255,18,o),
(258,0,o),
(284,0,c)
);
}
);
vertWidth = 0;
width = 411;
},
{
layerId = m002;
shapes = (
{
closed = 1;
nodes = (
(133,0,o),
(143,29,o),
(145,53,cs),
(221,715,ls),
(225,750,o),
(208,772,o),
(170,772,cs),
(133,772,o),
(108,757,o),
(105,722,cs),
(30,62,ls),
(26,29,o),
(40,0,o),
(83,0,cs)
);
},
{
closed = 1;
nodes = (
(360,0,o),
(374,29,o),
(378,55,cs),
(405,272,ls),
(418,368,o),
(377,428,o),
(307,428,cs),
(261,428,o),
(215,397,o),
(168,337,c),
(152,197,l),
(211,293,o),
(259,321,o),
(274,321,cs),
(287,321,o),
(292,307,o),
(290,279,cs),
(264,62,ls),
(260,29,o),
(273,0,o),
(318,0,cs)
);
}
);
vertWidth = 0;
width = 472;
}
);
unicode = 104;
},
{
color = 6;
glyphname = i;
layers = (
{
layerId = m01;
shapes = (
{
closed = 1;
nodes = (
(70,0,o),
(86,12,o),
(88,33,cs),
(125,380,ls),
(127,404,o),
(113,416,o),
(99,416,cs),
(83,416,o),
(68,405,o),
(65,384,cs),
(29,33,ls),
(26,11,o),
(40,0,o),
(56,0,cs)
);
},
{
closed = 1;
nodes = (
(134,508,o),
(154,530,o),
(154,555,cs),
(154,581,o),
(133,600,o),
(109,600,cs),
(84,600,o),
(63,580,o),
(63,555,cs),
(63,529,o),
(86,508,o),
(109,508,cs)
);
}
);
vertWidth = 0;
width = 191;
},
{
layerId = m002;
shapes = (
{
closed = 1;
nodes = (
(115,0,o),
(143,18,o),
(146,51,cs),
(178,355,ls),
(182,394,o),
(154,416,o),
(124,416,cs),
(94,416,o),
(65,400,o),
(62,366,cs),
(30,57,ls),
(26,19,o),
(53,0,o),
(86,0,cs)
);
},
{
closed = 1;
nodes = (
(179,507,o),
(207,542,o),
(207,574,cs),
(207,605,o),
(179,638,o),
(141,638,cs),
(106,638,o),
(76,607,o),
(76,573,cs),
(76,537,o),
(106,507,o),
(141,507,cs)
);
}
);
vertWidth = 0;
width = 248;
}
);
unicode = 105;
},
{
color = 6;
glyphname = j;
layers = (
{
layerId = m01;
shapes = (
{
closed = 1;
nodes = (
(-15,-355,o),
(56,-274,o),
(69,-145,cs),
(125,380,ls),
(127,404,o),
(113,416,o),
(99,416,cs),
(83,416,o),
(68,405,o),
(65,384,cs),
(10,-145,ls),
(-1,-241,o),
(-49,-301,o),
(-115,-301,cs),
(-148,-301,o),
(-182,-287,o),
(-202,-267,cs),
(-211,-258,o),
(-225,-255,o),
(-235,-263,cs),
(-253,-274,o),
(-254,-291,o),
(-239,-307,cs),
(-210,-336,o),
(-163,-355,o),
(-116,-355,cs)
);
},
{
closed = 1;
nodes = (
(134,508,o),
(154,530,o),
(154,555,cs),
(154,581,o),
(133,600,o),
(109,600,cs),
(84,600,o),
(63,580,o),
(63,555,cs),
(63,529,o),
(86,508,o),
(109,508,cs)
);
}
);
vertWidth = 0;
width = 191;
},
{
layerId = m002;
shapes = (
{
closed = 1;
nodes = (
(29,-356,o),
(109,-285,o),
(125,-143,c),
(178,355,ls),
(183,394,o),
(154,416,o),
(124,416,cs),
(94,416,o),
(65,400,o),
(62,366,cs),
(8,-135,l),
(0,-219,o),
(-30,-249,o),
(-75,-249,cs),
(-100,-249,o),
(-125,-238,o),
(-145,-217,cs),
(-158,-204,o),
(-178,-188,o),
(-209,-208,cs),
(-236,-226,o),
(-245,-264,o),
(-220,-293,cs),
(-196,-323,o),
(-145,-356,o),
(-82,-356,cs)
);
},
{
closed = 1;
nodes = (
(179,507,o),
(207,542,o),
(207,574,cs),
(207,605,o),
(179,638,o),
(141,638,cs),
(106,638,o),
(76,607,o),
(76,573,cs),
(76,537,o),
(106,507,o),
(141,507,cs)
);
}
);
vertWidth = 0;
width = 248;
}
);
unicode = 106;
},
{
color = 6;
glyphname = k;
kernLeft = h_left;
layers = (
{
layerId = m01;
shapes = (
{
closed = 1;
nodes = (
(72,0,o),
(84,8,o),
(87,31,cs),
(163,738,ls),
(165,763,o),
(152,772,o),
(133,772,cs),
(115,772,o),
(106,759,o),
(103,739,cs),
(27,31,ls),
(25,12,o),
(38,0,o),
(53,0,cs)
);
},
{
closed = 1;
nodes = (
(312,0,o),
(324,8,o),
(327,21,cs),
(328,30,o),
(328,40,o),
(317,51,cs),
(126,258,l),
(81,219,l),
(264,23,ls),
(274,11,o),
(285,0,o),
(301,0,cs)
);
},
{
closed = 1;
nodes = (
(312,361,ls),
(327,372,o),
(333,383,o),
(334,393,cs),
(334,407,o),
(324,416,o),
(309,416,cs),
(298,417,o),
(286,411,o),
(272,400,cs),
(77,254,l),
(71,182,l)
);
}
);
vertWidth = 0;
width = 407;
},
{
layerId = m002;
shapes = (
{
closed = 1;
nodes = (
(120,0,o),
(145,21,o),
(150,61,cs),
(220,709,ls),
(223,743,o),
(206,772,o),
(164,772,cs),
(128,772,o),
(105,747,o),
(101,715,cs),
(31,68,ls),
(26,25,o),
(46,0,o),
(86,0,cs)
);
},
{
closed = 1;
nodes = (
(337,0,o),
(361,17,o),
(367,44,cs),
(369,61,o),
(369,77,o),
(353,99,cs),
(229,255,l),
(139,183,l),
(254,32,ls),
(273,7,o),
(289,0,o),
(311,0,cs)
);
},
{
closed = 1;
nodes = (
(354,308,ls),
(374,322,o),
(381,343,o),
(383,360,cs),
(384,386,o),
(365,415,o),
(330,416,cs),
(312,417,o),
(296,410,o),
(274,394,cs),
(135,295,l),
(126,146,l)
);
}
);
vertWidth = 0;
width = 446;
}
);
unicode = 107;
},
{
color = 6;
glyphname = l;
kernLeft = h_left;
layers = (
{
layerId = m01;
shapes = (
{
closed = 1;
nodes = (
(72,0,o),
(84,8,o),
(87,31,cs),
(163,738,ls),
(165,763,o),
(152,772,o),
(133,772,cs),
(115,772,o),
(106,759,o),
(103,739,cs),
(27,31,ls),
(25,12,o),
(38,0,o),
(53,0,cs)
);
}
);
vertWidth = 0;
width = 192;
},
{
layerId = m002;
shapes = (
{
closed = 1;
nodes = (
(120,0,o),
(145,21,o),
(150,61,cs),
(220,709,ls),
(223,743,o),
(206,772,o),
(164,772,cs),
(128,772,o),
(105,747,o),
(101,715,cs),
(31,68,ls),
(26,25,o),
(46,0,o),
(86,0,cs)
);
}
);
vertWidth = 0;
width = 252;
}
);
unicode = 108;
},
{
color = 6;
glyphname = m;
kernLeft = n_left;
kernRight = n_right;
layers = (
{
layerId = m01;
shapes = (
{
closed = 1;
nodes = (
(74,0,o),
(71,21,o),
(74,37,cs),
(114,384,ls),
(116,404,o),
(113,416,o),
(93,416,cs),
(69,416,o),
(57,405,o),
(55,384,cs),
(15,37,ls),
(13,18,o),
(17,0,o),
(43,0,cs)
);
},
{
closed = 1;
nodes = (
(292,0,o),
(291,21,o),
(293,37,cs),
(323,278,ls),
(334,366,o),
(298,421,o),
(230,421,cs),
(165,421,o),
(126,362,o),
(81,268,c),
(69,135,l),
(144,299,o),
(177,362,o),
(227,362,cs),
(255,362,o),
(270,330,o),
(264,278,cs),
(235,37,ls),
(233,18,o),
(235,0,o),
(261,0,c)
);
},
{
closed = 1;
nodes = (
(513,0,o),
(512,21,o),
(514,37,cs),
(544,278,ls),
(555,366,o),
(519,421,o),
(451,421,cs),
(386,421,o),
(347,362,o),
(302,268,c),
(290,135,l),
(365,299,o),
(398,362,o),
(448,362,cs),
(476,362,o),
(491,330,o),
(485,278,cs),
(456,37,ls),
(454,18,o),
(456,0,o),
(482,0,c)
);
}
);
vertWidth = 0;
width = 609;
},
{
layerId = m002;
shapes = (
{
closed = 1;
nodes = (
(121,0,o),
(131,29,o),
(133,53,cs),
(169,359,ls),
(172,393,o),
(156,416,o),
(118,416,cs),
(81,416,o),
(56,400,o),
(52,366,cs),
(18,62,ls),
(14,29,o),
(29,0,o),
(71,0,cs)
);
},
{
closed = 1;
nodes = (
(342,0,o),
(356,29,o),
(360,55,cs),
(387,272,ls),
(399,368,o),
(359,428,o),
(289,428,cs),
(244,428,o),
(203,397,o),
(156,337,c),
(140,197,l),
(200,293,o),
(241,321,o),
(257,321,cs),
(270,321,o),
(276,307,o),
(272,279,cs),
(246,62,ls),
(242,29,o),
(255,0,o),
(301,0,cs)
);
},
{
closed = 1;
nodes = (
(571,0,o),
(586,29,o),
(589,55,cs),
(617,272,ls),
(628,368,o),
(588,428,o),
(518,428,cs),
(473,428,o),
(432,397,o),
(385,337,c),
(369,197,l),
(429,293,o),
(470,321,o),
(486,321,cs),
(499,321,o),
(505,307,o),
(501,279,cs),
(475,62,ls),
(472,29,o),
(485,0,o),
(530,0,cs)
);
}
);
vertWidth = 0;
width = 683;
}
);
unicode = 109;
},
{
color = 6;
glyphname = n;
kernLeft = n_left;
kernRight = n_right;
layers = (
{
layerId = m01;
shapes = (
{
closed = 1;
nodes = (
(74,0,o),
(71,21,o),
(74,37,cs),
(114,384,ls),
(116,404,o),
(113,416,o),
(93,416,cs),
(69,416,o),
(57,405,o),
(55,384,cs),
(15,37,ls),
(13,18,o),
(17,0,o),
(43,0,cs)
);
},
{
closed = 1;
nodes = (
(304,0,o),
(303,21,o),
(305,37,cs),
(335,278,ls),
(346,366,o),
(310,421,o),
(242,421,cs),
(177,421,o),
(126,362,o),
(81,268,c),
(69,135,l),
(144,299,o),
(189,362,o),
(239,362,cs),
(267,362,o),
(282,330,o),
(276,278,cs),
(247,37,ls),
(245,18,o),
(247,0,o),
(273,0,c)
);
}
);
vertWidth = 0;
width = 400;
},
{
layerId = m002;
shapes = (
{
closed = 1;
nodes = (
(121,0,o),
(131,29,o),
(133,53,cs),
(169,359,ls),
(172,393,o),
(156,416,o),
(118,416,cs),
(81,416,o),
(56,400,o),
(52,366,cs),
(18,62,ls),
(14,29,o),
(29,0,o),
(71,0,cs)
);
},
{
closed = 1;
nodes = (
(348,0,o),
(362,29,o),
(366,55,cs),
(393,272,ls),
(406,368,o),
(365,428,o),
(295,428,cs),
(249,428,o),
(203,397,o),
(156,337,c),
(140,197,l),
(200,293,o),
(247,321,o),
(263,321,cs),
(276,321,o),
(280,307,o),
(278,279,cs),
(252,62,ls),
(248,29,o),
(261,0,o),
(307,0,cs)
);
}
);
vertWidth = 0;
width = 460;
}
);
unicode = 110;
},
{
color = 6;
glyphname = o;
kernLeft = o_left;
kernRight = o_right;
layers = (
{
layerId = m01;
shapes = (
{
closed = 1;
nodes = (
(266,-1,o),
(323,108,o),
(334,209,cs),
(345,314,o),
(303,421,o),
(200,421,cs),
(112,421,o),
(36,346,o),
(21,209,cs),
(11,105,o),
(52,-1,o),
(156,-1,cs)
);
},
{
closed = 1;
nodes = (
(95,53,o),
(72,128,o),
(81,206,cs),
(91,307,o),
(140,366,o),
(198,366,cs),
(270,366,o),
(280,266,o),
(274,211,cs),
(264,114,o),
(210,53,o),
(162,53,cs)
);
}
);
vertWidth = 0;
width = 396;
},
{
layerId = m002;
shapes = (
{
closed = 1;
nodes = (
(284,-1,o),
(358,81,o),
(372,214,cs),
(385,346,o),
(327,428,o),
(216,428,cs),
(110,428,o),
(37,346,o),
(23,213,cs),
(10,81,o),
(68,-1,o),
(175,-1,cs)
);
},
{
closed = 1;
nodes = (
(146,106,o),
(131,143,o),
(139,202,cs),
(147,276,o),
(176,321,o),
(215,321,cs),
(248,321,o),
(264,284,o),
(255,225,cs),
(247,151,o),
(219,106,o),
(179,106,cs)
);
}
);
vertWidth = 0;
width = 432;
}
);
unicode = 111;
},
{
color = 6;
glyphname = p;
kernLeft = n_left;
kernRight = o_right;
layers = (
{
layerId = m01;
shapes = (
{
closed = 1;
nodes = (
(20,-356,o),
(36,-346,o),
(38,-324,cs),
(112,383,ls),
(114,405,o),
(100,416,o),
(84,416,cs),
(70,416,o),
(55,404,o),
(52,383,cs),
(-21,-321,ls),
(-24,-345,o),
(-10,-356,o),
(5,-356,cs)
);
},
{
closed = 1;
nodes = (
(267,-1,o),
(343,70,o),
(358,207,cs),
(368,311,o),
(327,421,o),
(223,421,cs),
(171,421,o),
(127,374,o),
(100,318,c),
(83,126,l),
(102,226,o),
(156,366,o),
(222,366,cs),
(284,366,o),
(307,287,o),
(298,210,cs),
(287,109,o),
(239,53,o),
(181,53,cs),
(147,53,o),
(99,70,o),
(76,105,c),
(70,44,l),
(100,11,o),
(144,-1,o),
(179,-1,cs)
);
}
);
vertWidth = 0;
width = 419;
},
{
layerId = m002;
shapes = (
{
closed = 1;
nodes = (
(72,-356,o),
(96,-331,o),
(100,-299,cs),
(170,348,ls),
(175,391,o),
(154,416,o),
(115,416,cs),
(81,416,o),
(55,387,o),
(50,348,cs),
(-19,-293,ls),
(-23,-327,o),
(-5,-356,o),
(37,-356,cs)
);
},
{
closed = 1;
nodes = (
(299,-1,o),
(379,77,o),
(393,214,cs),
(404,318,o),
(368,428,o),
(266,428,cs),
(188,428,o),
(159,337,o),
(132,291,c),
(145,115,l),
(170,272,o),
(204,321,o),
(244,321,cs),
(273,321,o),
(285,285,o),
(278,225,cs),
(270,146,o),
(244,106,o),
(207,106,cs),
(181,106,o),
(143,119,o),
(93,191,c),
(78,67,l),
(108,26,o),
(165,-1,o),
(206,-1,cs)
);
}
);
vertWidth = 0;
width = 454;
}
);
unicode = 112;
},
{
color = 6;
glyphname = q;
kernLeft = o_left;
layers = (
{
layerId = m01;
shapes = (
{
closed = 1;
nodes = (
(208,-1,o),
(252,42,o),
(279,97,c),
(296,290,l),
(278,189,o),
(223,53,o),
(157,53,cs),
(95,53,o),
(72,128,o),
(81,206,cs),
(91,307,o),
(140,366,o),
(198,366,cs),
(232,366,o),
(280,352,o),
(303,317,c),
(309,372,l),
(279,405,o),
(235,421,o),
(200,421,cs),
(112,421,o),
(36,346,o),
(21,209,cs),
(11,105,o),
(52,-1,o),
(156,-1,cs)
);
},
{
closed = 1;
nodes = (
(264,-356,o),
(271,-353,o),
(278,-347,cs),
(383,-260,ls),
(397,-248,o),
(405,-234,o),
(405,-223,cs),
(405,-209,o),
(394,-200,o),
(379,-200,cs),
(369,-200,o),
(359,-203,o),
(345,-215,cs),
(296,-255,l),
(364,380,ls),
(366,404,o),
(352,416,o),
(337,416,cs),
(322,416,o),
(307,405,o),
(304,384,cs),
(229,-323,ls),
(227,-346,o),
(241,-356,o),
(257,-356,cs)
);
}
);
vertWidth = 0;
width = 418;
},
{
layerId = m002;
shapes = (
{
closed = 1;
nodes = (
(228,-1,o),
(257,89,o),
(284,135,c),
(271,311,l),
(246,154,o),
(211,106,o),
(172,106,cs),
(143,106,o),
(131,141,o),
(138,202,cs),
(146,280,o),
(172,321,o),
(209,321,cs),
(235,321,o),
(273,308,o),
(323,235,c),
(337,360,l),
(308,400,o),
(251,428,o),
(210,428,cs),
(116,428,o),
(37,349,o),
(23,213,cs),
(12,108,o),
(48,-1,o),
(150,-1,cs)
);
},
{
closed = 1;
nodes = (
(279,-356,o),
(293,-350,o),
(304,-342,cs),
(416,-248,ls),
(434,-234,o),
(447,-217,o),
(449,-202,cs),
(454,-172,o),
(430,-150,o),
(400,-148,cs),
(385,-147,o),
(366,-153,o),
(347,-169,cs),
(339,-176,l),
(396,348,ls),
(400,391,o),
(380,416,o),
(341,416,cs),
(307,416,o),
(280,387,o),
(276,348,cs),
(207,-293,ls),
(203,-327,o),
(221,-356,o),
(263,-356,cs)
);
}
);
vertWidth = 0;
width = 454;
}
);
unicode = 113;
},
{
color = 6;
glyphname = r;
kernLeft = n_left;
layers = (
{
layerId = m01;
shapes = (
{
closed = 1;
nodes = (
(58,0,o),
(72,11,o),
(75,32,cs),
(112,380,ls),
(114,404,o),
(101,416,o),
(86,416,cs),
(71,416,o),
(55,405,o),
(52,384,cs),
(15,32,ls),
(13,11,o),
(27,0,o),
(43,0,cs)
);
},
{
closed = 1;
nodes = (
(323,307,o),
(333,318,o),
(328,341,cs),
(317,385,o),
(287,421,o),
(240,421,cs),
(175,421,o),
(127,368,o),
(78,266,c),
(67,135,l),
(140,298,o),
(187,362,o),
(236,362,cs),
(257,362,o),
(266,337,o),
(272,311,cs),
(274,298,o),
(296,293,o),
(310,301,cs)
);
}
);
vertWidth = 0;
width = 354;
},
{
layerId = m002;
shapes = (
{
closed = 1;
nodes = (
(121,0,o),
(131,29,o),
(133,53,cs),
(169,359,ls),
(172,393,o),
(156,416,o),
(118,416,cs),
(81,416,o),
(56,400,o),
(52,366,cs),
(18,62,ls),
(14,29,o),
(29,0,o),
(71,0,cs)
);
},
{
closed = 1;
nodes = (
(379,278,o),
(388,301,o),
(381,339,cs),
(369,387,o),
(339,428,o),
(278,428,cs),
(202,428,o),
(158,353,o),
(113,240,c),
(101,84,l),
(189,266,o),
(235,326,o),
(259,326,cs),
(268,326,o),
(274,321,o),
(278,307,cs),
(287,268,o),
(320,258,o),
(352,268,cs)
);
}
);
vertWidth = 0;
width = 410;
}
);
unicode = 114;
},
{
color = 6;
glyphname = s;
layers = (
{
layerId = m01;
shapes = (
{
closed = 1;
nodes = (
(235,-1,o),
(282,42,o),
(282,110,cs),
(282,168,o),
(259,192,o),
(151,257,cs),
(114,278,o),
(97,291,o),
(97,317,cs),
(97,343,o),
(119,361,o),
(158,361,cs),
(200,361,o),
(232,346,o),
(252,331,cs),
(271,318,o),
(289,315,o),
(299,331,cs),
(310,347,o),
(298,372,o),
(276,386,cs),
(236,411,o),
(198,421,o),
(166,421,cs),
(87,421,o),
(38,379,o),
(38,318,cs),
(38,268,o),
(64,239,o),
(113,210,cs),
(204,156,o),
(222,138,o),
(222,108,cs),
(222,77,o),
(201,58,o),
(164,58,cs),
(119,58,o),
(82,80,o),
(58,100,cs),
(42,114,o),
(29,114,o),
(14,97,cs),
(1,82,o),
(11,63,o),
(30,46,cs),
(61,18,o),
(105,-1,o),
(162,-1,cs)
);
}
);
vertWidth = 0;
width = 354;
},
{
layerId = m002;
shapes = (
{
closed = 1;
nodes = (
(238,-1,o),
(314,31,o),
(314,122,cs),
(314,190,o),
(270,225,o),
(215,255,cs),
(182,274,o),
(149,292,o),
(149,305,cs),
(149,315,o),
(159,321,o),
(176,321,cs),
(196,321,o),
(221,315,o),
(240,302,cs),
(276,277,o),
(308,279,o),
(326,305,cs),
(346,334,o),
(333,368,o),
(292,396,cs),
(253,421,o),
(213,428,o),
(181,428,cs),
(91,428,o),
(37,381,o),
(37,307,cs),
(37,253,o),
(63,214,o),
(147,165,cs),
(198,135,o),
(200,128,o),
(200,120,cs),
(200,110,o),
(190,106,o),
(178,106,cs),
(149,106,o),
(114,124,o),
(101,134,cs),
(72,157,o),
(42,156,o),
(20,125,cs),
(-2,93,o),
(15,62,o),
(46,39,cs),
(69,23,o),
(122,-1,o),
(176,-1,cs)
);
}
);
vertWidth = 0;
width = 385;
}
);
unicode = 115;
},
{
color = 6;
glyphname = t;
layers = (
{
guides = (
{
name = " [#PIEUew2GI2]";
pos = (326,568);
}
);
layerId = m01;
shapes = (
{
closed = 1;
nodes = (
(129,0,o),
(141,8,o),
(144,27,cs),
(210,643,ls),
(213,664,o),
(197,675,o),
(181,675,cs),
(168,675,o),
(153,666,o),
(151,650,cs),
(84,29,ls),
(82,10,o),
(99,0,o),
(114,0,cs)
);
},
{
closed = 1;
nodes = (
(283,362,ls),
(307,362,o),
(311,375,o),
(311,390,cs),
(311,404,o),
(303,416,o),
(279,416,cs),
(38,416,ls),
(14,416,o),
(8,404,o),
(8,390,cs),
(8,375,o),
(18,362,o),
(42,362,cs)
);
}
);
vertWidth = 0;
width = 333;
},
{
guides = (
{
name = " [#20o9Kbz8wt]";
pos = (309,568);
}
);
layerId = m002;
shapes = (
{
closed = 1;
nodes = (
(172,0,o),
(198,18,o),
(202,53,cs),
(263,609,ls),
(267,649,o),
(238,675,o),
(203,675,cs),
(176,675,o),
(146,657,o),
(143,624,cs),
(82,61,ls),
(78,24,o),
(108,0,o),
(141,0,cs)
);
},
{
closed = 1;
nodes = (
(285,309,ls),
(321,309,o),
(342,329,o),
(342,362,cs),
(342,396,o),
(321,416,o),
(285,416,cs),
(65,416,ls),
(27,416,o),
(5,396,o),
(5,362,cs),
(5,329,o),
(27,309,o),
(65,309,cs)
);
}
);
vertWidth = 0;
width = 366;
}
);
unicode = 116;
},
{
color = 6;
glyphname = u;
kernLeft = n_left;
kernRight = n_right;
layers = (
{
layerId = m01;
shapes = (
{
closed = 1;
nodes = (
(184,-1,o),
(234,58,o),
(284,143,c),
(295,273,l),
(221,110,o),
(172,57,o),
(122,57,cs),
(93,57,o),
(81,90,o),
(86,138,cs),
(112,381,ls),
(114,398,o),
(112,416,o),
(86,416,cs),
(59,416,o),
(56,397,o),
(55,384,cs),
(26,138,ls),
(17,61,o),
(50,-1,o),
(119,-1,cs)
);
},
{
closed = 1;
nodes = (
(295,0,o),
(305,11,o),
(308,32,cs),
(345,381,ls),
(347,398,o),
(343,416,o),
(318,416,cs),
(293,416,o),
(287,397,o),
(286,384,cs),
(248,32,ls),
(246,12,o),
(251,0,o),
(271,0,cs)
);
}
);
vertWidth = 0;
width = 399;
},
{
layerId = m002;
shapes = (
{
closed = 1;
nodes = (
(171,-1,o),
(217,19,o),
(265,78,c),
(280,219,l),
(221,122,o),
(173,106,o),
(158,106,cs),
(145,106,o),
(140,109,o),
(143,137,cs),
(169,354,ls),
(172,387,o),
(159,416,o),
(114,416,cs),
(72,416,o),
(58,387,o),
(55,361,cs),
(27,144,ls),
(14,48,o),
(56,-1,o),
(126,-1,cs)
);
},
{
closed = 1;
nodes = (
(340,0,o),
(365,15,o),
(368,50,cs),
(403,354,ls),
(406,387,o),
(392,416,o),
(349,416,cs),
(299,416,o),
(290,387,o),
(287,362,cs),
(252,57,ls),
(248,23,o),
(265,0,o),
(303,0,cs)
);
}
);
vertWidth = 0;
width = 461;
}
);
unicode = 117;
},
{
color = 6;
glyphname = v;
kernLeft = v_left;
kernRight = v_right;
layers = (
{
layerId = m01;
shapes = (
{
closed = 1;
nodes = (
(90,6,o),
(102,0,o),
(116,0,cs),
(131,0,o),
(141,4,o),
(150,23,cs),
(309,367,ls),
(322,397,o),
(308,416,o),
(286,416,cs),
(274,416,o),
(263,410,o),
(253,390,cs),
(119,87,l),
(129,84,l),
(74,390,ls),
(70,407,o),
(58,416,o),
(46,416,cs),
(25,416,o),
(12,398,o),
(18,366,cs),
(87,25,ls)
);
}
);
vertWidth = 0;
width = 333;
},
{
layerId = m002;
shapes = (
{
closed = 1;
nodes = (
(96,13,o),
(120,-1,o),
(145,-1,cs),
(164,-1,o),
(189,8,o),
(203,37,cs),
(353,328,ls),
(375,372,o),
(347,416,o),
(307,416,cs),
(283,416,o),
(259,405,o),
(249,384,cs),
(146,150,l),
(169,143,l),
(127,372,ls),
(122,397,o),
(99,415,o),
(72,415,cs),
(33,415,o),
(5,380,o),
(17,333,cs),
(88,45,ls)
);
}
);
vertWidth = 0;
width = 383;
}
);
unicode = 118;
},
{
color = 6;
glyphname = w;
kernLeft = v_left;
kernRight = v_right;
layers = (
{
layerId = m01;
shapes = (
{
closed = 1;
nodes = (
(90,6,o),
(103,0,o),
(116,0,cs),
(131,0,o),
(141,4,o),
(150,23,cs),
(284,322,l),
(271,324,l),
(327,25,ls),
(330,6,o),
(343,0,o),
(356,0,cs),
(371,0,o),
(381,4,o),
(390,23,cs),
(549,367,ls),
(562,397,o),
(548,413,o),
(526,416,cs),
(514,417,o),
(503,410,o),
(498,399,cs),
(361,87,l),
(371,84,l),
(312,396,ls),
(310,407,o),
(298,416,o),
(286,416,cs),
(274,416,o),
(263,410,o),
(258,399,cs),
(120,87,l),
(129,84,l),
(72,396,ls),
(70,407,o),
(58,416,o),
(46,416,cs),
(25,416,o),
(12,398,o),
(18,366,cs),
(87,25,ls)
);
}
);
vertWidth = 0;
width = 573;
},
{
layerId = m002;
shapes = (
{
closed = 1;
nodes = (
(95,17,o),
(118,-1,o),
(143,-1,cs),
(172,-1,o),
(196,14,o),
(204,38,cs),
(270,232,l),
(259,234,l),
(286,45,ls),
(290,17,o),
(314,-1,o),
(342,-1,cs),
(367,-1,o),
(390,13,o),
(402,37,cs),
(542,328,ls),
(563,373,o),
(536,416,o),
(494,416,cs),
(472,416,o),
(447,405,o),
(438,384,cs),
(350,164,l),
(361,162,l),
(336,373,ls),
(333,400,o),
(309,416,o),
(282,416,cs),
(260,416,o),
(235,403,o),
(228,383,cs),
(154,165,l),
(165,163,l),
(126,373,ls),
(121,398,o),
(99,416,o),
(72,416,cs),
(33,416,o),
(5,381,o),
(17,334,cs),
(88,46,ls)
);
}
);
vertWidth = 0;
width = 570;
}
);
unicode = 119;
},
{
color = 6;
glyphname = x;
layers = (
{
layerId = m01;
shapes = (
{
closed = 1;
nodes = (
(42,0,o),
(50,7,o),
(61,21,cs),
(182,182,l),
(190,188,l),
(321,361,ls),
(340,386,o),
(335,416,o),
(303,416,cs),
(295,416,o),
(285,412,o),
(277,402,cs),
(157,241,l),
(149,235,l),
(17,58,ls),
(-6,29,o),
(1,0,o),
(27,0,cs)
);
},
{
closed = 1;
nodes = (
(290,0,o),
(299,25,o),
(282,58,cs),
(188,232,l),
(100,396,ls),
(93,407,o),
(82,416,o),
(70,416,cs),
(51,416,o),
(32,397,o),
(48,367,cs),
(146,184,l),
(233,25,ls),
(244,6,o),
(252,0,o),
(264,0,cs)
);
}
);
vertWidth = 0;
width = 374;
},
{
layerId = m002;
shapes = (
{
closed = 1;
nodes = (
(81,-1,o),
(99,7,o),
(116,31,cs),
(222,166,l),
(236,171,l),
(349,317,ls),
(387,367,o),
(359,416,o),
(309,416,cs),
(292,416,o),
(273,410,o),
(260,392,cs),
(154,255,l),
(140,249,l),
(25,101,ls),
(-20,43,o),
(25,-1,o),
(62,-1,cs)
);
},
{
closed = 1;
nodes = (
(321,-1,o),
(342,46,o),
(314,97,cs),
(232,245,l),
(154,383,ls),
(143,405,o),
(124,416,o),
(102,416,cs),
(50,416,o),
(29,367,o),
(51,326,cs),
(137,172,l),
(213,38,ls),
(227,12,o),
(247,-1,o),
(267,-1,cs)
);
}
);
vertWidth = 0;
width = 411;
}
);
unicode = 120;
},
{
color = 6;
glyphname = y;
kernLeft = n_left;
kernRight = n_right;
layers = (
{
layerId = m01;
shapes = (
{
closed = 1;
nodes = (
(183,-1,o),
(230,55,o),
(280,139,c),
(291,280,l),
(217,118,o),
(171,57,o),
(121,57,cs),
(91,57,o),
(80,95,o),
(84,138,cs),
(110,381,ls),
(113,398,o),
(108,417,o),
(84,416,cs),
(61,415,o),
(53,394,o),
(52,381,cs),
(25,138,ls),
(17,61,o),
(49,-1,o),
(118,-1,cs)
);
},
{
closed = 1;
nodes = (
(345,380,ls),
(347,404,o),
(333,416,o),
(318,416,cs),
(303,416,o),
(287,405,o),
(285,384,cs),
(229,-146,ls),
(219,-242,o),
(171,-302,o),
(105,-302,cs),
(71,-302,o),
(38,-289,o),
(18,-268,cs),
(8,-259,o),
(-5,-257,o),
(-15,-264,cs),
(-33,-276,o),
(-34,-292,o),
(-19,-308,cs),
(10,-337,o),
(57,-356,o),
(103,-356,cs),
(204,-356,o),
(274,-276,o),
(289,-146,cs)
);
}
);
vertWidth = 0;
width = 399;
},
{
layerId = m002;
shapes = (
{
closed = 1;
nodes = (
(171,-1,o),
(217,19,o),
(265,78,c),
(280,219,l),
(221,122,o),
(173,106,o),
(158,106,cs),
(145,106,o),
(140,109,o),
(143,137,cs),
(169,354,ls),
(172,387,o),
(159,416,o),
(114,416,cs),
(72,416,o),
(58,387,o),
(55,361,cs),
(27,144,ls),
(14,48,o),
(56,-1,o),
(126,-1,cs)
);
},
{
closed = 1;
nodes = (
(404,355,ls),
(409,394,o),
(380,416,o),
(349,416,cs),
(320,416,o),
(291,400,o),
(287,366,cs),
(234,-135,l),
(226,-219,o),
(196,-249,o),
(151,-249,cs),
(126,-249,o),
(101,-238,o),
(81,-217,cs),
(68,-204,o),
(48,-188,o),
(17,-208,cs),
(-11,-226,o),
(-19,-264,o),
(6,-293,cs),
(30,-323,o),
(81,-356,o),
(144,-356,cs),
(254,-356,o),
(335,-285,o),
(350,-143,c)
);
}
);
vertWidth = 0;
width = 462;
}
);
unicode = 121;
},
{
color = 6;
glyphname = z;
layers = (
{
layerId = m01;
shapes = (
{
closed = 1;
nodes = (
(279,0,ls),
(303,0,o),
(308,15,o),
(308,30,cs),
(308,44,o),
(299,59,o),
(276,59,cs),
(63,59,l),
(77,31,l),
(336,367,ls),
(354,391,o),
(337,416,o),
(314,416,cs),
(82,416,ls),
(58,416,o),
(52,400,o),
(52,386,cs),
(52,372,o),
(62,356,o),
(86,356,cs),
(292,356,l),
(278,385,l),
(23,52,ls),
(6,31,o),
(23,0,o),
(45,0,cs)
);
}
);
vertWidth = 0;
width = 388;
},
{
layerId = m002;
shapes = (
{
closed = 1;
nodes = (
(268,0,ls),
(307,0,o),
(326,19,o),
(326,52,cs),
(326,77,o),
(308,107,o),
(266,107,cs),
(138,107,l),
(152,78,l),
(345,328,ls),
(378,369,o),
(346,416,o),
(297,416,cs),
(96,416,ls),
(52,416,o),
(38,390,o),
(38,364,cs),
(38,339,o),
(57,309,o),
(100,309,cs),
(222,309,l),
(208,337,l),
(19,91,ls),
(-13,51,o),
(19,0,o),
(70,0,cs)
);
}
);
vertWidth = 0;
width = 416;
}
);
unicode = 122;
},
{
color = 6;
glyphname = zero;
layers = (
{
layerId = m01;
shapes = (
{
closed = 1;
nodes = (
(392,-1,o),
(476,145,o),
(498,356,cs),
(511,485,o),
(481,674,o),
(302,674,cs),
(129,674,o),
(64,511,o),
(43,299,cs),
(26,139,o),
(90,-1,o),
(240,-1,cs)
);
},
{
closed = 1;
nodes = (
(147,53,o),
(87,137,o),
(102,291,cs),
(115,418,o),
(143,619,o),
(302,619,cs),
(436,619,o),
(450,466,o),
(437,345,cs),
(422,198,o),
(365,53,o),
(241,53,cs)
);
}
);
vertWidth = 0;
width = 555;
},
{
layerId = m002;
shapes = (
{
closed = 1;
nodes = (
(412,-1,o),
(520,129,o),
(545,342,cs),
(569,548,o),
(487,675,o),
(329,675,cs),
(179,675,o),
(71,542,o),
(46,327,cs),
(23,124,o),
(106,-1,o),
(263,-1,cs)
);
},
{
closed = 1;
nodes = (
(194,106,o),
(152,188,o),
(166,322,cs),
(183,473,o),
(241,568,o),
(318,568,cs),
(399,568,o),
(440,484,o),
(425,347,cs),
(409,198,o),
(350,106,o),
(273,106,cs)
);
}
);
vertWidth = 0;
width = 605;
}
);
unicode = 48;
},
{
color = 6;
glyphname = one;
layers = (
{
layerId = m01;
shapes = (
{
closed = 1;
nodes = (
(82,0,o),
(96,7,o),
(99,27,cs),
(165,645,ls),
(168,665,o),
(153,675,o),
(138,675,cs),
(122,675,o),
(107,666,o),
(105,645,cs),
(39,33,ls),
(37,11,o),
(52,0,o),
(68,0,cs)
);
}
);
vertWidth = 0;
width = 216;
},
{
layerId = m002;
shapes = (
{
closed = 1;
nodes = (
(133,0,o),
(159,21,o),
(163,61,cs),
(220,612,ls),
(223,645,o),
(206,675,o),
(164,675,cs),
(128,675,o),
(105,650,o),
(101,618,cs),
(44,68,ls),
(39,25,o),
(59,0,o),
(99,0,cs)
);
}
);
vertWidth = 0;
width = 276;
}
);
unicode = 49;
},
{
color = 6;
glyphname = two;
layers = (
{
layerId = m01;
shapes = (
{
closed = 1;
nodes = (
(394,44,o),
(386,59,o),
(362,59,cs),
(77,59,l),
(84,31,l),
(168,137,o),
(320,312,o),
(360,364,cs),
(419,438,o),
(449,500,o),
(449,550,cs),
(449,620,o),
(385,675,o),
(298,675,cs),
(223,675,o),
(140,640,o),
(90,598,cs),
(64,575,o),
(69,560,o),
(80,548,cs),
(89,537,o),
(108,533,o),
(137,557,cs),
(177,592,o),
(246,615,o),
(302,615,cs),
(353,615,o),
(390,594,o),
(390,556,cs),
(390,510,o),
(349,444,o),
(310,394,cs),
(282,358,o),
(108,152,o),
(21,42,cs),
(8,25,o),
(21,0,o),
(43,0,cs),
(366,0,ls),
(390,0,o),
(394,15,o),
(394,30,cs)
);
}
);
vertWidth = 0;
width = 493;
},
{
layerId = m002;
shapes = (
{
closed = 1;
nodes = (
(432,84,o),
(409,102,o),
(369,102,cs),
(163,102,l),
(176,75,l),
(258,177,o),
(343,276,o),
(374,315,cs),
(450,410,o),
(487,479,o),
(487,535,cs),
(487,621,o),
(423,675,o),
(318,675,cs),
(240,675,o),
(141,642,o),
(94,598,cs),
(62,568,o),
(67,542,o),
(83,519,cs),
(99,499,o),
(139,489,o),
(173,520,cs),
(210,554,o),
(266,571,o),
(310,571,cs),
(346,571,o),
(368,558,o),
(368,537,cs),
(368,506,o),
(337,456,o),
(299,407,cs),
(271,372,o),
(164,246,o),
(44,95,cs),
(7,49,o),
(26,0,o),
(72,0,cs),
(377,0,ls),
(411,0,o),
(432,21,o),
(432,52,cs)
);
}
);
vertWidth = 0;
width = 526;
}
);
unicode = 50;
},
{
color = 6;
glyphname = three;
layers = (
{
layerId = m01;
shapes = (
{
closed = 1;
nodes = (
(15,69,o),
(20,53,o),
(36,40,cs),
(67,14,o),
(125,-1,o),
(188,-1,cs),
(330,-1,o),
(426,69,o),
(438,183,cs),
(448,283,o),
(386,354,o),
(270,374,c),
(268,365,l),
(379,381,o),
(435,436,o),
(443,518,cs),
(455,625,o),
(353,675,o),
(261,675,cs),
(196,675,o),
(127,652,o),
(99,633,cs),
(84,624,o),
(78,606,o),
(86,594,cs),
(94,581,o),
(114,581,o),
(131,589,cs),
(158,602,o),
(211,620,o),
(259,620,cs),
(330,620,o),
(392,594,o),
(384,519,cs),
(372,419,o),
(260,392,o),
(147,392,cs),
(134,392,o),
(124,381,o),
(124,366,cs),
(124,352,o),
(134,341,o),
(147,341,cs),
(276,341,o),
(391,308,o),
(379,182,cs),
(371,102,o),
(297,53,o),
(185,53,cs),
(140,53,o),
(95,65,o),
(68,84,cs),
(50,96,o),
(33,96,o),
(24,82,cs)
);
}
);
vertWidth = 0;
width = 514;
},
{
layerId = m002;
shapes = (
{
closed = 1;
nodes = (
(17,100,o),
(18,70,o),
(50,44,cs),
(75,24,o),
(121,-1,o),
(203,-1,cs),
(372,-1,o),
(463,63,o),
(476,191,cs),
(486,284,o),
(411,373,o),
(283,383,c),
(277,350,l),
(384,359,o),
(473,406,o),
(481,493,cs),
(493,614,o),
(425,675,o),
(279,675,cs),
(188,675,o),
(133,649,o),
(108,628,cs),
(76,602,o),
(74,571,o),
(91,546,cs),
(109,523,o),
(145,529,o),
(173,544,cs),
(195,556,o),
(229,568,o),
(278,568,cs),
(339,568,o),
(367,545,o),
(362,501,cs),
(355,440,o),
(315,417,o),
(177,417,cs),
(149,417,o),
(120,396,o),
(120,362,cs),
(120,335,o),
(141,312,o),
(173,312,cs),
(273,312,o),
(368,305,o),
(358,198,cs),
(353,137,o),
(303,106,o),
(209,106,cs),
(154,106,o),
(133,116,o),
(112,131,cs),
(77,156,o),
(50,152,o),
(32,125,cs)
);
}
);
vertWidth = 0;
width = 551;
}
);
unicode = 51;
},
{
color = 6;
glyphname = four;
layers = (
{
layerId = m01;
shapes = (
{
closed = 1;
nodes = (
(242,0,o),
(258,7,o),
(260,31,cs),
(303,425,ls),
(305,446,o),
(295,460,o),
(277,460,cs),
(261,460,o),
(246,454,o),
(244,434,cs),
(201,37,ls),
(198,13,o),
(213,0,o),
(228,0,cs)
);
},
{
closed = 1;
nodes = (
(396,233,ls),
(415,233,o),
(424,246,o),
(424,260,cs),
(424,274,o),
(410,286,o),
(391,286,cs),
(67,286,l),
(99,251,l),
(140,642,ls),
(143,663,o),
(127,675,o),
(113,675,cs),
(99,675,o),
(83,668,o),
(81,646,cs),
(39,260,ls),
(38,247,o),
(49,233,o),
(63,233,cs)
);
}
);
vertWidth = 0;
width = 492;
},
{
layerId = m002;
shapes = (
{
closed = 1;
nodes = (
(296,0,o),
(316,19,o),
(320,52,cs),
(353,416,ls),
(356,450,o),
(339,476,o),
(307,478,cs),
(273,479,o),
(247,465,o),
(244,431,cs),
(208,70,ls),
(204,31,o),
(221,0,o),
(258,0,cs)
);
},
{
closed = 1;
nodes = (
(424,206,ls),
(457,206,o),
(478,229,o),
(479,260,cs),
(480,289,o),
(459,312,o),
(425,312,cs),
(127,312,l),
(159,277,l),
(195,617,ls),
(198,655,o),
(169,675,o),
(139,675,cs),
(110,675,o),
(81,659,o),
(77,626,cs),
(39,263,ls),
(36,233,o),
(62,206,o),
(100,206,cs)
);
}
);
vertWidth = 0;
width = 546;
}
);
unicode = 52;
},
{
color = 6;
glyphname = five;
layers = (
{
layerId = m01;
shapes = (
{
closed = 1;
nodes = (
(316,-1,o),
(411,90,o),
(411,253,cs),
(411,356,o),
(337,416,o),
(217,416,cs),
(178,416,o),
(149,409,o),
(90,391,c),
(121,371,l),
(153,657,l),
(114,621,l),
(393,621,ls),
(417,621,o),
(425,633,o),
(425,647,cs),
(425,662,o),
(416,675,o),
(392,675,cs),
(131,675,l),
(107,675,o),
(95,665,o),
(93,643,cs),
(63,368,ls),
(61,350,o),
(78,335,o),
(96,340,c),
(150,355,o),
(179,361,o),
(209,361,cs),
(297,361,o),
(352,315,o),
(352,239,cs),
(352,127,o),
(278,53,o),
(179,53,cs),
(139,53,o),
(93,68,o),
(71,88,cs),
(65,94,o),
(58,103,o),
(49,103,cs),
(34,103,o),
(20,90,o),
(20,74,cs),
(20,65,o),
(26,55,o),
(37,44,cs),
(63,18,o),
(116,-1,o),
(163,-1,cs)
);
}
);
vertWidth = 0;
width = 481;
},
{
layerId = m002;
shapes = (
{
closed = 1;
nodes = (
(359,-1,o),
(457,90,o),
(457,238,cs),
(457,364,o),
(391,426,o),
(260,426,cs),
(222,426,o),
(208,422,o),
(162,410,c),
(190,388,l),
(217,611,l),
(178,574,l),
(437,574,ls),
(475,574,o),
(491,596,o),
(492,625,cs),
(493,657,o),
(466,675,o),
(430,675,cs),
(179,675,ls),
(128,675,o),
(103,656,o),
(99,619,cs),
(70,367,ls),
(65,324,o),
(95,301,o),
(141,311,cs),
(176,320,o),
(196,324,o),
(239,324,cs),
(304,324,o),
(337,292,o),
(337,229,cs),
(337,150,o),
(290,101,o),
(227,101,cs),
(187,101,o),
(146,114,o),
(119,132,cs),
(105,141,o),
(88,152,o),
(72,152,cs),
(48,152,o),
(24,137,o),
(24,107,cs),
(24,90,o),
(33,75,o),
(51,58,cs),
(88,24,o),
(152,-1,o),
(214,-1,cs)
);
}
);
vertWidth = 0;
width = 529;
}
);
unicode = 53;
},
{
color = 6;
glyphname = six;
layers = (
{
layerId = m01;
shapes = (
{
closed = 1;
nodes = (
(115,-1,o),
(202,-1,cs),
(321,-1,o),
(399,106,o),
(403,233,cs),
(406,358,o),
(343,422,o),
(248,422,cs),
(151,421,o),
(81,347,o),
(81,249,c),
(97,187,l),
(97,289,o),
(159,365,o),
(241,365,cs),
(309,365,o),
(348,317,o),
(343,226,cs),
(340,133,o),
(284,53,o),
(211,53,cs),
(146,53,o),
(97,110,o),
(97,187,cs),
(97,456,o),
(168,623,o),
(280,621,cs),
(320,621,o),
(355,607,o),
(375,584,cs),
(386,573,o),
(405,568,o),
(419,583,cs),
(432,599,o),
(425,611,o),
(416,621,cs),
(387,655,o),
(340,675,o),
(291,675,cs),
(134,675,o),
(38,488,o),
(38,185,cs),
(38,78,o)
);
}
);
vertWidth = 0;
width = 474;
},
{
layerId = m002;
shapes = (
{
closed = 1;
nodes = (
(110,-1,o),
(227,-1,cs),
(358,-1,o),
(441,89,o),
(447,235,cs),
(451,354,o),
(390,428,o),
(286,428,cs),
(201,428,o),
(132,360,o),
(132,268,c),
(154,208,l),
(154,272,o),
(197,321,o),
(255,321,cs),
(302,321,o),
(329,283,o),
(328,221,cs),
(326,150,o),
(289,106,o),
(233,106,cs),
(184,106,o),
(154,145,o),
(154,208,cs),
(154,431,o),
(214,569,o),
(310,569,cs),
(334,569,o),
(356,560,o),
(373,546,cs),
(411,517,o),
(430,513,o),
(457,541,cs),
(482,565,o),
(482,592,o),
(454,617,cs),
(410,656,o),
(364,675,o),
(317,675,cs),
(145,675,o),
(39,497,o),
(39,207,cs),
(39,78,o)
);
}
);
vertWidth = 0;
width = 518;
}
);
unicode = 54;
},
{
color = 6;
glyphname = seven;
layers = (
{
layerId = m01;
shapes = (
{
closed = 1;
nodes = (
(100,0,o),
(116,10,o),
(127,31,cs),
(419,633,ls),
(430,655,o),
(419,675,o),
(397,675,cs),
(110,675,ls),
(89,675,o),
(80,662,o),
(81,649,cs),
(82,634,o),
(93,621,o),
(114,621,cs),
(383,621,l),
(364,653,l),
(72,55,ls),
(55,18,o),
(70,0,o),
(86,0,cs)
);
}
);
vertWidth = 0;
width = 450;
},
{
layerId = m002;
shapes = (
{
closed = 1;
nodes = (
(159,0,o),
(183,21,o),
(197,50,cs),
(460,598,ls),
(480,639,o),
(460,675,o),
(410,675,cs),
(133,675,ls),
(97,675,o),
(76,649,o),
(77,620,cs),
(78,592,o),
(105,568,o),
(140,568,cs),
(349,568,l),
(329,600,l),
(87,89,ls),
(59,32,o),
(100,0,o),
(132,0,cs)
);
}
);
vertWidth = 0;
width = 497;
}
);
unicode = 55;
},
{
color = 6;
glyphname = eight;
layers = (
{
layerId = m01;
shapes = (
{
closed = 1;
nodes = (
(138,53,o),
(93,87,o),
(93,163,cs),
(93,239,o),
(132,279,o),
(223,346,cs),
(315,412,o),
(413,478,o),
(413,551,cs),
(413,650,o),
(328,675,o),
(248,675,cs),
(162,675,o),
(69,633,o),
(69,532,cs),
(69,460,o),
(151,391,o),
(183,359,cs),
(201,341,ls),
(244,298,o),
(312,230,o),
(312,177,cs),
(312,91,o),
(266,53,o),
(197,53,cs)
);
},
{
closed = 1;
nodes = (
(298,-1,o),
(372,69,o),
(372,177,cs),
(372,236,o),
(318,303,o),
(251,368,cs),
(215,403,ls),
(187,431,o),
(128,482,o),
(128,536,cs),
(128,599,o),
(192,620,o),
(245,620,cs),
(303,620,o),
(354,615,o),
(354,552,cs),
(354,500,o),
(270,447,o),
(187,386,cs),
(71,302,o),
(33,248,o),
(33,158,cs),
(33,64,o),
(103,-1,o),
(194,-1,cs)
);
}
);
vertWidth = 0;
width = 451;
},
{
layerId = m002;
shapes = (
{
closed = 1;
nodes = (
(177,100,o),
(144,128,o),
(144,176,cs),
(144,210,o),
(168,260,o),
(278,341,cs),
(371,409,o),
(454,466,o),
(454,552,cs),
(454,632,o),
(352,675,o),
(266,675,cs),
(175,675,o),
(76,625,o),
(76,508,cs),
(76,422,o),
(152,369,o),
(178,343,cs),
(201,321,ls),
(244,278,o),
(299,226,o),
(299,175,cs),
(299,134,o),
(265,100,o),
(216,100,cs)
);
},
{
closed = 1;
nodes = (
(354,-1,o),
(412,102,o),
(412,185,cs),
(412,259,o),
(348,327,o),
(287,383,cs),
(258,410,ls),
(225,441,o),
(185,472,o),
(185,514,cs),
(185,558,o),
(229,580,o),
(271,580,cs),
(309,580,o),
(343,565,o),
(343,542,cs),
(343,518,o),
(271,465,o),
(203,418,cs),
(80,334,o),
(31,242,o),
(31,176,cs),
(31,103,o),
(86,-1,o),
(217,-1,cs)
);
}
);
vertWidth = 0;
width = 492;
}
);
unicode = 56;
},
{
color = 6;
glyphname = nine;
layers = (
{
layerId = m01;
shapes = (
{
closed = 1;
nodes = (
(312,0,o),
(326,7,o),
(328,25,cs),
(393,643,ls),
(396,664,o),
(381,675,o),
(365,675,cs),
(352,675,o),
(337,666,o),
(335,649,cs),
(270,31,ls),
(267,12,o),
(283,0,o),
(299,0,cs)
);
},
{
closed = 1;
nodes = (
(248,259,o),
(292,305,o),
(320,361,c),
(341,554,l),
(334,554,l),
(327,492,o),
(277,314,o),
(197,314,cs),
(135,314,o),
(113,392,o),
(121,469,cs),
(132,570,o),
(181,620,o),
(239,620,cs),
(287,620,o),
(328,605,o),
(343,581,c),
(349,636,l),
(328,659,o),
(286,675,o),
(240,675,cs),
(152,675,o),
(76,609,o),
(62,473,cs),
(51,368,o),
(93,259,o),
(196,259,cs)
);
}
);
vertWidth = 0;
width = 422;
},
{
layerId = m002;
shapes = (
{
closed = 1;
nodes = (
(347,0,o),
(371,25,o),
(374,57,cs),
(434,607,ls),
(438,650,o),
(418,675,o),
(379,675,cs),
(345,675,o),
(318,646,o),
(314,607,cs),
(255,63,ls),
(252,30,o),
(270,0,o),
(311,0,cs)
);
},
{
closed = 1;
nodes = (
(277,249,o),
(329,330,o),
(355,387,c),
(377,570,l),
(310,570,l),
(276,377,o),
(257,356,o),
(215,356,cs),
(188,356,o),
(173,399,o),
(181,461,cs),
(189,538,o),
(215,568,o),
(251,568,cs),
(285,568,o),
(303,563,o),
(364,470,c),
(379,604,l),
(342,636,o),
(293,675,o),
(252,675,cs),
(159,675,o),
(77,607,o),
(62,470,cs),
(51,366,o),
(100,249,o),
(214,249,cs)
);
}
);
vertWidth = 0;
width = 488;
}
);
unicode = 57;
},
{
color = 6;
glyphname = .notdef;
layers = (
{
layerId = m01;
shapes = (
{
closed = 1;
nodes = (
(554,0,o),
(565,14,o),
(568,32,cs),
(650,800,ls),
(652,819,o),
(643,832,o),
(626,832,cs),
(156,832,ls),
(135,832,o),
(124,819,o),
(121,800,cs),
(39,32,ls),
(37,14,o),
(48,0,o),
(70,0,cs),
(541,0,ls)
);
},
{
closed = 1;
nodes = (
(179,778,l),
(587,778,l),
(511,53,l),
(102,53,l)
);
}
);
vertWidth = 0;
width = 684;
},
{
layerId = m002;
shapes = (
{
closed = 1;
nodes = (
(584,0,o),
(609,31,o),
(613,58,cs),
(689,783,ls),
(693,816,o),
(674,832,o),
(630,832,c),
(178,832,l),
(145,832,o),
(121,816,o),
(118,783,cs),
(42,58,ls),
(38,25,o),
(56,0,o),
(102,0,cs),
(555,0,ls)
);
},
{
closed = 1;
nodes = (
(233,719,l),
(562,719,l),
(497,113,l),
(168,113,l)
);
}
);
vertWidth = 0;
width = 726;
}
);
},
{
color = 6;
glyphname = period;
kernLeft = period_left;
kernRight = period_right;
layers = (
{
layerId = m01;
shapes = (
{
closed = 1;
nodes = (
(115,-1,o),
(135,20,o),
(135,48,cs),
(135,74,o),
(115,94,o),
(88,94,cs),
(61,94,o),
(40,74,o),
(40,48,cs),
(40,20,o),
(61,-1,o),
(88,-1,cs)
);
}
);
vertWidth = 0;
width = 249;
},
{
layerId = m002;
shapes = (
{
closed = 1;
nodes = (
(157,0,o),
(192,36,o),
(192,77,cs),
(192,116,o),
(157,150,o),
(118,150,cs),
(76,150,o),
(44,116,o),
(44,77,cs),
(44,36,o),
(76,0,o),
(118,0,cs)
);
}
);
vertWidth = 0;
width = 304;
}
);
unicode = 46;
},
{
color = 6;
glyphname = comma;
kernLeft = period_left;
kernRight = period_right;
layers = (
{
layerId = m01;
shapes = (
{
closed = 1;
nodes = (
(67,-122,o),
(84,-114,o),
(87,-90,cs),
(99,21,ls),
(101,46,o),
(88,58,o),
(72,59,cs),
(56,62,o),
(42,53,o),
(39,33,cs),
(27,-84,ls),
(25,-106,o),
(38,-118,o),
(52,-120,cs)
);
}
);
vertWidth = 0;
width = 215;
},
{
layerId = m002;
shapes = (
{
closed = 1;
nodes = (
(121,-94,o),
(146,-81,o),
(156,-44,cs),
(187,80,ls),
(201,134,o),
(162,153,o),
(129,153,cs),
(99,153,o),
(75,141,o),
(65,103,cs),
(34,-20,ls),
(21,-74,o),
(59,-94,o),
(90,-94,cs)
);
}
);
vertWidth = 0;
width = 304;
}
);
unicode = 44;
},
{
color = 6;
glyphname = colon;
kernLeft = colon_left;
kernRight = colon_right;
layers = (
{
layerId = m01;
shapes = (
{
closed = 1;
nodes = (
(115,-1,o),
(135,20,o),
(135,48,cs),
(135,74,o),
(115,94,o),
(88,94,cs),
(61,94,o),
(40,74,o),
(40,48,cs),
(40,20,o),
(61,-1,o),
(88,-1,cs)
);
},
{
closed = 1;
nodes = (
(149,326,o),
(169,347,o),
(169,374,cs),
(169,400,o),
(149,421,o),
(121,421,cs),
(94,421,o),
(74,400,o),
(74,374,cs),
(74,347,o),
(94,326,o),
(121,326,cs)
);
}
);
vertWidth = 0;
width = 252;
},
{
guides = (
{
angle = 84;
name = " [#ZJiWTdyg8t]";
pos = (62,306);
}
);
layerId = m002;
shapes = (
{
closed = 1;
nodes = (
(157,0,o),
(192,36,o),
(192,77,cs),
(192,116,o),
(157,150,o),
(118,150,cs),
(76,150,o),
(44,116,o),
(44,77,cs),
(44,36,o),
(76,0,o),
(118,0,cs)
);
},
{
closed = 1;
nodes = (
(187,277,o),
(222,312,o),
(222,354,cs),
(222,393,o),
(187,426,o),
(147,426,cs),
(106,426,o),
(74,393,o),
(74,354,cs),
(74,312,o),
(106,277,o),
(147,277,cs)
);
}
);
vertWidth = 0;
width = 304;
}
);
unicode = 58;
},
{
color = 6;
glyphname = semicolon;
kernLeft = colon_left;
kernRight = colon_right;
layers = (
{
layerId = m01;
shapes = (
{
closed = 1;
nodes = (
(87,-122,o),
(101,-113,o),
(103,-93,cs),
(118,25,ls),
(120,46,o),
(106,58,o),
(90,59,cs),
(74,62,o),
(59,53,o),
(57,33,cs),
(45,-84,ls),
(43,-107,o),
(58,-120,o),
(74,-121,cs)
);
},
{
closed = 1;
nodes = (
(149,326,o),
(169,347,o),
(169,374,cs),
(169,400,o),
(149,421,o),
(121,421,cs),
(94,421,o),
(74,400,o),
(74,374,cs),
(74,347,o),
(94,326,o),
(121,326,cs)
);
}
);
vertWidth = 0;
width = 252;
},
{
layerId = m002;
shapes = (
{
closed = 1;
nodes = (
(121,-94,o),
(146,-81,o),
(156,-44,cs),
(187,80,ls),
(201,134,o),
(162,153,o),
(129,153,cs),
(99,153,o),
(75,141,o),
(65,103,cs),
(34,-20,ls),
(21,-74,o),
(59,-94,o),
(90,-94,cs)
);
},
{
closed = 1;
nodes = (
(187,277,o),
(222,312,o),
(222,354,cs),
(222,393,o),
(187,426,o),
(147,426,cs),
(106,426,o),
(74,393,o),
(74,354,cs),
(74,312,o),
(106,277,o),
(147,277,cs)
);
}
);
vertWidth = 0;
width = 304;
}
);
unicode = 59;
},
{
color = 6;
glyphname = ellipsis;
layers = (
{
layerId = m01;
shapes = (
{
closed = 1;
nodes = (
(115,-1,o),
(135,20,o),
(135,48,cs),
(135,74,o),
(115,94,o),
(88,94,cs),
(61,94,o),
(40,74,o),
(40,48,cs),
(40,20,o),
(61,-1,o),
(88,-1,cs)
);
},
{
closed = 1;
nodes = (
(282,-1,o),
(302,20,o),
(302,48,cs),
(302,74,o),
(282,94,o),
(254,94,cs),
(227,94,o),
(207,74,o),
(207,48,cs),
(207,20,o),
(227,-1,o),
(254,-1,cs)
);
},
{
closed = 1;
nodes = (
(448,-1,o),
(468,20,o),
(468,48,cs),
(468,74,o),
(448,94,o),
(421,94,cs),
(393,94,o),
(373,74,o),
(373,48,cs),
(373,20,o),
(393,-1,o),
(421,-1,cs)
);
}
);
vertWidth = 0;
width = 582;
},
{
layerId = m002;
shapes = (
{
closed = 1;
nodes = (
(157,0,o),
(192,36,o),
(192,77,cs),
(192,116,o),
(157,150,o),
(118,150,cs),
(76,150,o),
(44,116,o),
(44,77,cs),
(44,36,o),
(76,0,o),
(118,0,cs)
);
},
{
closed = 1;
nodes = (
(383,0,o),
(418,36,o),
(418,77,cs),
(418,116,o),
(383,150,o),
(343,150,cs),
(302,150,o),
(270,116,o),
(270,77,cs),
(270,36,o),
(302,0,o),
(343,0,cs)
);
},
{
closed = 1;
nodes = (
(608,0,o),
(644,36,o),
(644,77,cs),
(644,116,o),
(608,150,o),
(569,150,cs),
(527,150,o),
(495,116,o),
(495,77,cs),
(495,36,o),
(527,0,o),
(569,0,cs)
);
}
);
vertWidth = 0;
width = 756;
}
);
unicode = 8230;
},
{
color = 6;
glyphname = exclam;
layers = (
{
layerId = m01;
shapes = (
{
closed = 1;
nodes = (
(131,207,o),
(147,217,o),
(150,240,cs),
(204,747,ls),
(207,764,o),
(194,772,o),
(179,772,cs),
(164,772,o),
(146,764,o),
(144,747,cs),
(89,240,ls),
(87,220,o),
(102,209,o),
(116,208,cs)
);
},
{
closed = 1;
nodes = (
(126,-1,o),
(146,20,o),
(146,48,cs),
(146,74,o),
(126,94,o),
(99,94,cs),
(71,94,o),
(51,74,o),
(51,48,cs),
(51,20,o),
(71,-1,o),
(99,-1,cs)
);
}
);
vertWidth = 0;
width = 270;
},
{
layerId = m002;
shapes = (
{
closed = 1;
nodes = (
(181,209,o),
(216,220,o),
(221,261,cs),
(270,697,ls),
(276,752,o),
(252,772,o),
(215,772,cs),
(192,772,o),
(157,762,o),
(152,721,cs),
(103,285,ls),
(97,229,o),
(121,209,o),
(158,209,cs)
);
},
{
closed = 1;
nodes = (
(181,0,o),
(216,36,o),
(216,77,cs),
(216,116,o),
(181,150,o),
(141,150,cs),
(100,150,o),
(68,116,o),
(68,77,cs),
(68,36,o),
(100,0,o),
(141,0,cs)
);
}
);
vertWidth = 0;
width = 352;
}
);
unicode = 33;
},
{
color = 6;
glyphname = exclamdown;
layers = (
{
layerId = m01;
shapes = (
{
closed = 1;
nodes = (
(106,-1,o),
(124,7,o),
(126,24,cs),
(181,531,ls),
(183,551,o),
(168,562,o),
(153,563,cs),
(139,564,o),
(122,554,o),
(120,531,cs),
(65,24,ls),
(63,7,o),
(76,-1,o),
(90,-1,cs)
);
},
{
closed = 1;
nodes = (
(198,677,o),
(219,697,o),
(219,723,cs),
(219,751,o),
(198,772,o),
(171,772,cs),
(144,772,o),
(124,751,o),
(124,723,cs),
(124,697,o),
(144,677,o),
(171,677,cs)
);
}
);
vertWidth = 0;
width = 270;
},
{
layerId = m002;
shapes = (
{
closed = 1;
nodes = (
(157,0,o),
(192,11,o),
(197,51,cs),
(246,487,ls),
(252,543,o),
(228,563,o),
(191,563,cs),
(169,563,o),
(133,552,o),
(128,511,cs),
(80,75,ls),
(74,20,o),
(97,0,o),
(134,0,cs)
);
},
{
closed = 1;
nodes = (
(249,623,o),
(282,656,o),
(282,695,cs),
(282,737,o),
(249,772,o),
(208,772,cs),
(169,772,o),
(133,737,o),
(133,695,cs),
(133,656,o),
(169,623,o),
(208,623,cs)
);
}
);
vertWidth = 0;
width = 352;
}
);
unicode = 161;
},
{
color = 6;
glyphname = question;
layers = (
{
layerId = m01;
shapes = (
{
closed = 1;
nodes = (
(225,207,o),
(240,214,o),
(244,240,c),
(253,329,l),
(388,339,o),
(495,422,o),
(495,588,cs),
(495,703,o),
(422,773,o),
(303,772,cs),
(178,772,o),
(107,694,o),
(96,581,cs),
(94,555,o),
(108,542,o),
(121,542,cs),
(138,542,o),
(152,549,o),
(154,575,cs),
(162,643,o),
(202,718,o),
(303,718,cs),
(385,718,o),
(436,668,o),
(436,587,cs),
(436,453,o),
(345,383,o),
(223,383,c),
(210,383,o),
(197,372,o),
(196,359,cs),
(183,239,ls),
(181,222,o),
(195,207,o),
(209,207,cs)
);
},
{
closed = 1;
nodes = (
(222,-1,o),
(242,20,o),
(242,48,cs),
(242,74,o),
(222,94,o),
(195,94,cs),
(168,94,o),
(147,74,o),
(147,48,cs),
(147,20,o),
(168,-1,o),
(195,-1,cs)
);
}
);
vertWidth = 0;
width = 555;
},
{
layerId = m002;
shapes = (
{
closed = 1;
nodes = (
(248,209,o),
(274,229,o),
(279,267,cs),
(285,318,l),
(440,334,o),
(504,436,o),
(517,551,cs),
(532,680,o),
(448,772,o),
(322,772,cs),
(206,772,o),
(109,695,o),
(97,586,cs),
(91,544,o),
(118,516,o),
(154,516,cs),
(177,516,o),
(207,526,o),
(210,565,cs),
(215,626,o),
(260,666,o),
(315,666,cs),
(372,666,o),
(411,621,o),
(404,557,cs),
(403,541,o),
(391,422,o),
(230,423,c),
(201,423,o),
(181,406,o),
(177,372,cs),
(166,277,ls),
(163,246,o),
(182,209,o),
(222,209,cs)
);
},
{
closed = 1;
nodes = (
(232,-1,o),
(265,32,o),
(266,68,cs),
(267,105,o),
(233,138,o),
(195,138,cs),
(156,138,o),
(127,102,o),
(127,68,cs),
(127,34,o),
(154,-1,o),
(194,-1,cs)
);
}
);
vertWidth = 0;
width = 577;
}
);
unicode = 63;
},
{
color = 6;
glyphname = questiondown;
layers = (
{
layerId = m01;
shapes = (
{
closed = 1;
nodes = (
(374,-1,o),
(446,77,o),
(456,190,cs),
(459,216,o),
(444,229,o),
(431,229,cs),
(415,229,o),
(400,222,o),
(398,196,cs),
(391,128,o),
(350,53,o),
(249,53,cs),
(168,53,o),
(116,103,o),
(116,184,cs),
(116,318,o),
(208,388,o),
(329,388,c),
(342,388,o),
(355,399,o),
(356,412,cs),
(369,532,ls),
(372,549,o),
(358,564,o),
(343,564,cs),
(328,564,o),
(312,557,o),
(309,531,c),
(299,442,l),
(164,432,o),
(57,349,o),
(57,183,cs),
(57,68,o),
(131,-2,o),
(249,-1,cs)
);
},
{
closed = 1;
nodes = (
(385,677,o),
(405,697,o),
(405,723,cs),
(405,751,o),
(385,772,o),
(358,772,cs),
(330,772,o),
(310,751,o),
(310,723,cs),
(310,697,o),
(330,677,o),
(358,677,cs)
);
}
);
vertWidth = 0;
width = 555;
},
{
layerId = m002;
shapes = (
{
closed = 1;
nodes = (
(369,-1,o),
(466,76,o),
(478,185,cs),
(484,227,o),
(457,255,o),
(421,255,cs),
(398,255,o),
(368,245,o),
(365,206,cs),
(360,145,o),
(315,105,o),
(260,105,cs),
(203,105,o),
(164,150,o),
(171,214,cs),
(172,230,o),
(184,349,o),
(345,348,c),
(374,348,o),
(394,365,o),
(398,399,cs),
(409,494,ls),
(412,525,o),
(393,562,o),
(353,562,cs),
(327,562,o),
(301,542,o),
(296,504,cs),
(290,453,l),
(135,437,o),
(71,335,o),
(58,220,cs),
(43,91,o),
(127,-1,o),
(253,-1,cs)
);
},
{
closed = 1;
nodes = (
(419,633,o),
(448,669,o),
(448,703,cs),
(448,737,o),
(421,772,o),
(381,772,cs),
(343,772,o),
(310,739,o),
(309,703,cs),
(308,666,o),
(342,633,o),
(380,633,cs)
);
}
);
vertWidth = 0;
width = 577;
}
);
unicode = 191;
},
{
color = 6;
glyphname = periodcentered;
layers = (
{
layerId = m01;
shapes = (
{
closed = 1;
nodes = (
(152,229,o),
(172,251,o),
(172,278,cs),
(172,304,o),
(152,324,o),
(125,324,cs),
(97,324,o),
(77,304,o),
(77,278,cs),
(77,251,o),
(97,229,o),
(125,229,cs)
);
}
);
vertWidth = 0;
width = 252;
},
{
layerId = m002;
shapes = (
{
closed = 1;
nodes = (
(176,177,o),
(211,213,o),
(211,254,cs),
(211,293,o),
(176,327,o),
(137,327,cs),
(95,327,o),
(63,293,o),
(63,254,cs),
(63,213,o),
(95,177,o),
(137,177,cs)
);
}
);
vertWidth = 0;
width = 304;
}
);
unicode = 183;
},
{
color = 6;
glyphname = bullet;
layers = (
{
layerId = m01;
shapes = (
{
closed = 1;
nodes = (
(216,330,o),
(259,373,o),
(259,422,cs),
(259,470,o),
(217,511,o),
(169,511,cs),
(120,511,o),
(81,469,o),
(81,422,cs),
(81,375,o),
(119,330,o),
(169,330,cs)
);
}
);
vertWidth = 0;
width = 334;
},
{
layerId = m002;
shapes = (
{
closed = 1;
nodes = (
(251,307,o),
(307,361,o),
(307,422,cs),
(307,484,o),
(252,535,o),
(192,535,cs),
(129,535,o),
(81,482,o),
(81,422,cs),
(81,362,o),
(129,307,o),
(192,307,cs)
);
}
);
vertWidth = 0;
width = 381;
}
);
unicode = 8226;
},
{
color = 6;
glyphname = asterisk;
layers = (
{
layerId = m01;
shapes = (
{
closed = 1;
nodes = (
(108,574,o),
(122,571,o),
(141,582,cs),
(296,682,ls),
(315,694,o),
(317,710,o),
(310,721,cs),
(303,729,o),
(289,733,o),
(271,722,cs),
(116,623,ls),
(97,609,o),
(94,593,o),
(102,583,cs)
);
},
{
closed = 1;
nodes = (
(304,593,o),
(303,607,o),
(287,619,cs),
(152,720,ls),
(137,732,o),
(122,729,o),
(116,720,cs),
(108,712,o),
(109,696,o),
(126,684,cs),
(260,584,ls),
(276,573,o),
(291,575,o),
(299,584,cs)
);
},
{
closed = 1;
nodes = (
(203,531,o),
(217,542,o),
(220,564,cs),
(238,740,ls),
(240,762,o),
(230,772,o),
(220,772,cs),
(208,772,o),
(194,762,o),
(191,740,cs),
(173,564,ls),
(171,544,o),
(181,535,o),
(191,532,cs)
);
}
);
vertWidth = 0;
width = 359;
},
{
layerId = m002;
shapes = (
{
closed = 1;
nodes = (
(118,497,o),
(154,488,o),
(185,508,cs),
(381,636,ls),
(411,655,o),
(421,683,o),
(402,710,cs),
(387,729,o),
(352,738,o),
(324,720,cs),
(124,590,l),
(99,571,o),
(87,544,o),
(103,519,cs)
);
},
{
closed = 1;
nodes = (
(421,532,o),
(416,558,o),
(388,579,cs),
(194,722,ls),
(166,743,o),
(132,738,o),
(118,718,cs),
(101,696,o),
(106,669,o),
(135,647,cs),
(327,506,l),
(358,486,o),
(392,491,o),
(406,511,cs)
);
},
{
closed = 1;
nodes = (
(259,437,o),
(292,457,o),
(296,494,cs),
(322,731,ls),
(327,769,o),
(299,792,o),
(271,792,cs),
(246,792,o),
(220,772,o),
(216,740,cs),
(190,504,ls),
(187,469,o),
(208,449,o),
(233,443,cs)
);
}
);
vertWidth = 0;
width = 476;
}
);
unicode = 42;
},
{
color = 6;
glyphname = numbersign;
layers = (
{
layerId = m01;
shapes = (
{
closed = 1;
nodes = (
(252,-1,o),
(268,10,o),
(272,33,cs),
(337,645,ls),
(340,664,o),
(326,675,o),
(310,675,cs),
(295,675,o),
(279,665,o),
(277,645,cs),
(211,33,ls),
(209,12,o),
(222,0,o),
(236,0,cs)
);
},
{
closed = 1;
nodes = (
(558,0,o),
(574,11,o),
(576,33,cs),
(642,645,ls),
(644,664,o),
(630,674,o),
(615,675,cs),
(600,675,o),
(583,665,o),
(581,645,cs),
(516,33,ls),
(513,11,o),
(527,-1,o),
(543,0,cs)
);
},
{
closed = 1;
nodes = (
(738,175,ls),
(758,175,o),
(767,189,o),
(766,202,cs),
(765,215,o),
(756,228,o),
(734,228,cs),
(87,228,ls),
(65,228,o),
(56,215,o),
(57,202,cs),
(58,189,o),
(70,175,o),
(90,175,cs)
);
},
{
closed = 1;
nodes = (
(766,456,ls),
(788,456,o),
(797,469,o),
(797,482,cs),
(796,495,o),
(784,510,o),
(763,510,cs),
(116,510,ls),
(95,510,o),
(86,495,o),
(87,482,cs),
(87,469,o),
(99,456,o),
(120,456,cs)
);
}
);
vertWidth = 0;
width = 865;
},
{
layerId = m002;
shapes = (
{
closed = 1;
nodes = (
(284,0,o),
(317,12,o),
(321,46,cs),
(381,621,ls),
(385,656,o),
(355,675,o),
(323,675,cs),
(293,675,o),
(270,662,o),
(266,630,cs),
(204,56,ls),
(201,19,o),
(225,0,o),
(255,0,cs)
);
},
{
closed = 1;
nodes = (
(579,0,o),
(604,13,o),
(607,46,cs),
(668,621,ls),
(672,659,o),
(643,675,o),
(615,675,cs),
(587,675,o),
(555,663,o),
(551,631,cs),
(491,56,ls),
(486,15,o),
(518,0,o),
(550,0,cs)
);
},
{
closed = 1;
nodes = (
(731,158,ls),
(765,158,o),
(786,182,o),
(785,210,cs),
(783,238,o),
(759,259,o),
(723,259,cs),
(115,259,ls),
(80,259,o),
(57,238,o),
(59,210,cs),
(61,182,o),
(88,158,o),
(122,158,cs)
);
},
{
closed = 1;
nodes = (
(757,424,ls),
(792,424,o),
(816,446,o),
(814,474,cs),
(811,501,o),
(785,525,o),
(750,525,cs),
(143,525,ls),
(107,525,o),
(84,501,o),
(87,474,cs),
(89,446,o),
(114,424,o),
(150,424,cs)
);
}
);
vertWidth = 0;
width = 884;
}
);
unicode = 35;
},
{
color = 6;
glyphname = slash;
layers = (
{
layerId = m01;
shapes = (
{
closed = 1;
nodes = (
(30,-46,o),
(43,-39,o),
(49,-23,cs),
(318,732,ls),
(328,757,o),
(309,772,o),
(291,772,cs),
(278,772,o),
(265,765,o),
(258,745,cs),
(-12,-10,ls),
(-20,-32,o),
(-2,-46,o),
(17,-46,cs)
);
}
);
vertWidth = 0;
width = 326;
},
{
layerId = m002;
shapes = (
{
closed = 1;
nodes = (
(120,-62,o),
(146,-50,o),
(156,-24,cs),
(419,699,ls),
(435,741,o),
(397,772,o),
(361,772,cs),
(337,772,o),
(311,759,o),
(301,729,cs),
(38,10,ls),
(23,-32,o),
(59,-62,o),
(97,-62,cs)
);
}
);
vertWidth = 0;
width = 472;
}
);
unicode = 47;
},
{
color = 6;
glyphname = backslash;
layers = (
{
layerId = m01;
shapes = (
{
closed = 1;
nodes = (
(43,772,o),
(25,758,o),
(33,735,cs),
(303,-19,ls),
(310,-39,o),
(323,-46,o),
(336,-46,cs),
(354,-46,o),
(373,-31,o),
(364,-6,cs),
(94,748,ls),
(88,765,o),
(75,772,o),
(62,772,cs)
);
}
);
vertWidth = 0;
width = 326;
},
{
layerId = m002;
shapes = (
{
closed = 1;
nodes = (
(125,772,o),
(93,743,o),
(103,701,cs),
(289,-19,ls),
(296,-49,o),
(326,-62,o),
(349,-62,cs),
(385,-62,o),
(418,-31,o),
(407,12,cs),
(221,734,ls),
(214,760,o),
(185,772,o),
(163,772,cs)
);
}
);
vertWidth = 0;
width = 472;
}
);
unicode = 92;
},
{
color = 6;
glyphname = hyphen;
kernLeft = hyphen_left;
kernRight = hyphen_right;
layers = (
{
layerId = m01;
shapes = (
{
closed = 1;
nodes = (
(271,210,ls),
(293,210,o),
(308,220,o),
(308,238,cs),
(308,255,o),
(295,265,o),
(273,265,cs),
(97,265,ls),
(75,265,o),
(61,255,o),
(61,238,cs),
(61,220,o),
(74,210,o),
(95,210,cs)
);
}
);
vertWidth = 0;
width = 402;
},
{
layerId = m002;
shapes = (
{
closed = 1;
nodes = (
(291,183,ls),
(334,183,o),
(360,204,o),
(360,238,cs),
(360,270,o),
(337,290,o),
(302,290,cs),
(129,290,ls),
(87,290,o),
(61,268,o),
(61,235,cs),
(61,203,o),
(83,183,o),
(119,183,cs)
);
}
);
vertWidth = 0;
width = 454;
}
);
unicode = 45;
},
{
color = 6;
glyphname = endash;
kernLeft = hyphen_left;
kernRight = hyphen_right;
layers = (
{
layerId = m01;
shapes = (
{
closed = 1;
nodes = (
(330,210,ls),
(353,210,o),
(367,220,o),
(367,238,cs),
(367,255,o),
(354,265,o),
(333,265,cs),
(97,265,ls),
(75,265,o),
(61,255,o),
(61,238,cs),
(61,220,o),
(74,210,o),
(95,210,cs)
);
}
);
vertWidth = 0;
width = 461;
},
{
layerId = m002;
shapes = (
{
closed = 1;
nodes = (
(387,183,ls),
(430,183,o),
(456,204,o),
(456,238,cs),
(456,270,o),
(434,290,o),
(398,290,cs),
(129,290,ls),
(87,290,o),
(61,268,o),
(61,235,cs),
(61,203,o),
(83,183,o),
(119,183,cs)
);
}
);
vertWidth = 0;
width = 550;
}
);
unicode = 8211;
},
{
color = 6;
glyphname = emdash;
kernLeft = hyphen_left;
kernRight = hyphen_right;
layers = (
{
layerId = m01;
shapes = (
{
closed = 1;
nodes = (
(508,210,ls),
(531,210,o),
(545,220,o),
(545,238,cs),
(545,255,o),
(532,265,o),
(511,265,cs),
(97,265,ls),
(75,265,o),
(61,255,o),
(61,238,cs),
(61,220,o),
(74,210,o),
(95,210,cs)
);
}
);
vertWidth = 0;
width = 639;
},
{
layerId = m002;
shapes = (
{
closed = 1;
nodes = (
(497,183,ls),
(539,183,o),
(565,204,o),
(565,238,cs),
(565,270,o),
(543,290,o),
(507,290,cs),
(129,290,ls),
(87,290,o),
(61,268,o),
(61,235,cs),
(61,203,o),
(83,183,o),
(119,183,cs)
);
}
);
vertWidth = 0;
width = 659;
}
);
unicode = 8212;
},
{
color = 6;
glyphname = underscore;
kernLeft = hyphen_left;
kernRight = hyphen_right;
layers = (
{
layerId = m01;
shapes = (
{
closed = 1;
nodes = (
(358,-95,ls),
(380,-95,o),
(394,-86,o),
(394,-68,cs),
(394,-50,o),
(381,-40,o),
(360,-40,cs),
(65,-40,ls),
(43,-40,o),
(29,-50,o),
(29,-68,cs),
(29,-86,o),
(42,-95,o),
(63,-95,cs)
);
}
);
vertWidth = 0;
width = 520;
},
{
layerId = m002;
shapes = (
{
closed = 1;
nodes = (
(356,-116,ls),
(399,-116,o),
(425,-95,o),
(425,-62,cs),
(425,-30,o),
(403,-10,o),
(367,-10,cs),
(99,-10,ls),
(56,-10,o),
(30,-31,o),
(30,-64,cs),
(30,-96,o),
(52,-116,o),
(88,-116,cs)
);
}
);
vertWidth = 0;
width = 551;
}
);
unicode = 95;
},
{
color = 6;
glyphname = parenleft;
layers = (
{
layerId = m01;
shapes = (
{
closed = 1;
nodes = (
(228,-354,o),
(242,-361,o),
(255,-353,cs),
(267,-346,o),
(267,-329,o),
(257,-309,cs),
(145,-103,o),
(105,76,o),
(122,238,cs),
(138,384,o),
(235,582,o),
(365,721,cs),
(384,743,o),
(385,759,o),
(377,767,cs),
(366,777,o),
(345,773,o),
(323,752,cs),
(178,602,o),
(77,392,o),
(62,238,cs),
(44,76,o),
(86,-112,o),
(216,-335,cs)
);
}
);
vertWidth = 0;
width = 421;
},
{
layerId = m002;
shapes = (
{
closed = 1;
nodes = (
(229,-361,o),
(272,-368,o),
(296,-350,cs),
(312,-336,o),
(316,-314,o),
(299,-279,c),
(190,-78,o),
(163,95,o),
(181,253,cs),
(196,396,o),
(268,542,o),
(399,682,cs),
(434,719,o),
(425,746,o),
(407,764,cs),
(388,782,o),
(349,783,o),
(315,750,cs),
(169,600,o),
(71,392,o),
(57,263,cs),
(37,76,o),
(84,-133,o),
(208,-327,cs)
);
}
);
vertWidth = 0;
width = 428;
}
);
unicode = 40;
},
{
color = 6;
glyphname = parenright;
layers = (
{
layerId = m01;
shapes = (
{
closed = 1;
nodes = (
(15,-361,o),
(37,-358,o),
(58,-336,cs),
(203,-187,o),
(304,24,o),
(320,178,cs),
(337,340,o),
(296,527,o),
(165,751,cs),
(153,770,o),
(139,777,o),
(126,769,cs),
(114,762,o),
(114,745,o),
(125,725,cs),
(236,519,o),
(277,340,o),
(259,178,cs),
(244,32,o),
(146,-166,o),
(17,-305,cs),
(-2,-327,o),
(-4,-343,o),
(5,-352,cs)
);
}
);
vertWidth = 0;
width = 421;
},
{
layerId = m002;
shapes = (
{
closed = 1;
nodes = (
(11,-343,o),
(55,-346,o),
(78,-321,cs),
(240,-157,o),
(335,49,o),
(349,195,cs),
(365,355,o),
(321,570,o),
(203,750,cs),
(173,795,o),
(140,807,o),
(114,795,cs),
(94,784,o),
(81,760,o),
(105,714,cs),
(202,532,o),
(241,367,o),
(227,226,cs),
(210,67,o),
(149,-90,o),
(2,-246,cs),
(-19,-267,o),
(-30,-296,o),
(-10,-317,cs)
);
}
);
vertWidth = 0;
width = 428;
}
);
unicode = 41;
},
{
color = 6;
glyphname = braceleft;
layers = (
{
layerId = m01;
shapes = (
{
closed = 1;
nodes = (
(215,-364,o),
(236,-366,o),
(248,-354,cs),
(261,-343,o),
(254,-318,o),
(236,-307,cs),
(189,-274,o),
(147,-252,o),
(138,-188,cs),
(127,-113,o),
(192,11,o),
(196,75,cs),
(200,127,o),
(184,171,o),
(134,234,c),
(198,280,o),
(221,317,o),
(229,369,cs),
(238,432,o),
(194,569,o),
(228,634,cs),
(251,677,o),
(312,693,o),
(366,707,cs),
(385,712,o),
(403,731,o),
(398,747,cs),
(394,765,o),
(364,775,o),
(337,766,cs),
(291,753,o),
(202,713,o),
(173,653,cs),
(139,584,o),
(177,435,o),
(166,377,cs),
(160,342,o),
(138,314,o),
(100,285,cs),
(80,271,o),
(63,263,o),
(62,244,cs),
(62,223,o),
(77,211,o),
(91,192,cs),
(121,153,o),
(135,119,o),
(133,84,cs),
(128,17,o),
(65,-112,o),
(77,-190,cs),
(88,-258,o),
(153,-317,o),
(196,-349,cs)
);
}
);
vertWidth = 0;
width = 440;
},
{
layerId = m002;
shapes = (
{
closed = 1;
nodes = (
(214,-369,o),
(251,-366,o),
(265,-343,cs),
(284,-318,o),
(268,-299,o),
(248,-279,cs),
(219,-251,o),
(198,-222,o),
(192,-165,cs),
(187,-99,o),
(233,14,o),
(234,78,cs),
(238,135,o),
(227,183,o),
(194,234,c),
(235,260,o),
(249,303,o),
(257,359,cs),
(263,424,o),
(238,545,o),
(254,607,cs),
(270,656,o),
(309,674,o),
(343,684,cs),
(369,695,o),
(383,719,o),
(368,746,cs),
(354,779,o),
(315,775,o),
(289,763,cs),
(255,747,o),
(168,712,o),
(147,642,cs),
(127,564,o),
(149,438,o),
(143,375,cs),
(138,346,o),
(127,324,o),
(106,302,cs),
(83,279,o),
(75,267,o),
(74,245,cs),
(72,216,o),
(84,204,o),
(97,182,cs),
(115,150,o),
(122,122,o),
(120,94,cs),
(116,31,o),
(71,-89,o),
(81,-170,cs),
(89,-241,o),
(150,-304,o),
(184,-339,cs)
);
}
);
vertWidth = 0;
width = 428;
}
);
unicode = 123;
},
{
color = 6;
glyphname = braceright;
layers = (
{
layerId = m01;
shapes = (
{
closed = 1;
nodes = (
(108,-342,o),
(197,-303,o),
(227,-244,cs),
(261,-175,o),
(223,12,o),
(234,70,cs),
(241,105,o),
(263,133,o),
(301,162,cs),
(321,176,o),
(339,184,o),
(339,203,cs),
(340,223,o),
(324,235,o),
(309,254,cs),
(279,293,o),
(266,328,o),
(267,362,cs),
(273,430,o),
(334,522,o),
(322,600,cs),
(311,668,o),
(247,727,o),
(203,759,cs),
(184,773,o),
(163,776,o),
(151,764,cs),
(139,753,o),
(146,728,o),
(163,716,cs),
(210,684,o),
(253,662,o),
(261,598,cs),
(272,523,o),
(209,436,o),
(204,372,cs),
(201,320,o),
(219,276,o),
(267,213,c),
(204,166,o),
(181,129,o),
(172,77,cs),
(163,15,o),
(206,-159,o),
(171,-223,cs),
(149,-266,o),
(87,-284,o),
(34,-297,cs),
(14,-303,o),
(-2,-321,o),
(1,-337,cs),
(5,-355,o),
(36,-365,o),
(62,-356,cs)
);
}
);
vertWidth = 0;
width = 440;
},
{
layerId = m002;
shapes = (
{
closed = 1;
nodes = (
(132,-324,o),
(201,-279,o),
(223,-213,cs),
(248,-138,o),
(234,-13,o),
(242,48,cs),
(247,78,o),
(263,99,o),
(284,127,cs),
(298,146,o),
(311,168,o),
(316,189,cs),
(320,207,o),
(316,216,o),
(299,244,cs),
(282,274,o),
(276,301,o),
(277,330,c),
(284,394,o),
(331,511,o),
(324,590,cs),
(318,663,o),
(246,721,o),
(214,748,cs),
(188,770,o),
(150,786,o),
(129,757,cs),
(114,734,o),
(118,710,o),
(145,689,cs),
(175,668,o),
(209,637,o),
(215,586,cs),
(217,519,o),
(170,407,o),
(163,343,cs),
(158,286,o),
(166,240,o),
(196,198,c),
(157,165,o),
(139,120,o),
(131,65,cs),
(121,0,o),
(135,-118,o),
(118,-179,cs),
(100,-232,o),
(77,-253,o),
(44,-270,cs),
(15,-285,o),
(1,-302,o),
(11,-327,cs),
(21,-356,o),
(62,-367,o),
(93,-346,c)
);
}
);
vertWidth = 0;
width = 428;
}
);
unicode = 125;
},
{
color = 6;
glyphname = bracketleft;
layers = (
{
layerId = m01;
shapes = (
{
closed = 1;
nodes = (
(202,-356,ls),
(222,-356,o),
(232,-342,o),
(230,-329,cs),
(230,-316,o),
(220,-303,o),
(198,-303,cs),
(64,-303,l),
(173,719,l),
(316,719,ls),
(336,719,o),
(346,732,o),
(346,745,cs),
(346,758,o),
(335,772,o),
(312,772,cs),
(149,772,ls),
(126,772,o),
(116,759,o),
(114,740,cs),
(1,-324,ls),
(-1,-341,o),
(8,-356,o),
(30,-356,cs)
);
}
);
vertWidth = 0;
width = 386;
},
{
layerId = m002;
shapes = (
{
closed = 1;
nodes = (
(242,-356,ls),
(278,-356,o),
(297,-337,o),
(301,-307,cs),
(304,-273,o),
(272,-255,o),
(235,-255,cs),
(144,-255,l),
(242,671,l),
(352,671,ls),
(385,671,o),
(406,691,o),
(410,719,cs),
(413,752,o),
(380,772,o),
(346,772,c),
(188,772,ls),
(154,772,o),
(131,757,o),
(127,723,cs),
(19,-298,ls),
(15,-330,o),
(39,-356,o),
(78,-356,cs)
);
}
);
vertWidth = 0;
width = 428;
}
);
unicode = 91;
},
{
color = 6;
glyphname = bracketright;
layers = (
{
layerId = m01;
shapes = (
{
closed = 1;
nodes = (
(196,-356,ls),
(222,-356,o),
(229,-343,o),
(232,-324,cs),
(345,740,ls),
(347,758,o),
(337,772,o),
(314,772,cs),
(146,772,ls),
(125,772,o),
(114,758,o),
(115,745,cs),
(116,732,o),
(128,719,o),
(150,719,cs),
(283,719,l),
(173,-303,l),
(32,-303,ls),
(12,-303,o),
(1,-316,o),
(1,-329,cs),
(2,-343,o),
(13,-356,o),
(36,-356,cs)
);
}
);
vertWidth = 0;
width = 386;
},
{
layerId = m002;
shapes = (
{
closed = 1;
nodes = (
(203,-356,ls),
(239,-356,o),
(260,-341,o),
(264,-308,cs),
(373,714,ls),
(377,747,o),
(352,772,o),
(312,772,cs),
(151,772,ls),
(114,772,o),
(96,753,o),
(93,721,cs),
(89,693,o),
(120,671,o),
(157,671,cs),
(247,671,l),
(149,-255,l),
(40,-255,ls),
(10,-255,o),
(-14,-277,o),
(-17,-305,cs),
(-19,-334,o),
(7,-356,o),
(48,-356,c)
);
}
);
vertWidth = 0;
width = 428;
}
);
unicode = 93;
},
{
color = 6;
glyphname = quotedbl;
kernLeft = quote_left;
kernRight = quote_right;
layers = (
{
layerId = m01;
shapes = (
{
closed = 1;
nodes = (
(145,594,o),
(160,604,o),
(163,623,cs),
(176,737,ls),
(178,760,o),
(163,772,o),
(147,772,cs),
(133,772,o),
(116,762,o),
(114,741,cs),
(102,627,ls),
(100,606,o),
(115,594,o),
(131,594,cs)
);
},
{
closed = 1;
nodes = (
(274,594,o),
(291,602,o),
(293,625,cs),
(304,737,ls),
(305,760,o),
(291,772,o),
(274,772,cs),
(260,772,o),
(246,763,o),
(244,746,cs),
(230,627,ls),
(228,605,o),
(244,594,o),
(260,594,cs)
);
}
);
vertWidth = 0;
width = 347;
},
{
layerId = m002;
shapes = (
{
closed = 1;
nodes = (
(188,542,o),
(216,560,o),
(220,592,cs),
(232,706,ls),
(236,746,o),
(207,772,o),
(173,772,cs),
(146,772,o),
(116,753,o),
(113,720,cs),
(100,606,ls),
(96,567,o),
(127,542,o),
(160,542,cs)
);
},
{
closed = 1;
nodes = (
(375,542,o),
(406,558,o),
(409,589,cs),
(421,707,ls),
(425,747,o),
(393,772,o),
(360,772,cs),
(333,772,o),
(305,754,o),
(301,725,cs),
(287,606,ls),
(283,561,o),
(321,542,o),
(349,542,cs)
);
}
);
vertWidth = 0;
width = 466;
}
);
unicode = 34;
},
{
color = 6;
glyphname = quotesingle;
kernLeft = quote_left;
kernRight = quote_right;
layers = (
{
layerId = m01;
shapes = (
{
closed = 1;
nodes = (
(145,594,o),
(162,602,o),
(163,619,cs),
(175,737,ls),
(176,760,o),
(162,772,o),
(145,772,cs),
(131,772,o),
(116,763,o),
(114,746,cs),
(101,627,ls),
(99,605,o),
(114,594,o),
(131,594,cs)
);
}
);
vertWidth = 0;
width = 216;
},
{
layerId = m002;
shapes = (
{
closed = 1;
nodes = (
(188,542,o),
(219,558,o),
(221,589,cs),
(233,707,ls),
(236,747,o),
(206,772,o),
(172,772,cs),
(145,772,o),
(115,754,o),
(112,725,cs),
(100,606,ls),
(95,561,o),
(133,542,o),
(162,542,cs)
);
}
);
vertWidth = 0;
width = 278;
}
);
unicode = 39;
},
{
color = 6;
glyphname = at;
layers = (
{
layerId = m01;
shapes = (
{
closed = 1;
nodes = (
(392,62,o),
(448,150,o),
(480,278,cs),
(511,402,o),
(495,482,o),
(416,482,cs),
(321,482,o),
(241,394,o),
(209,266,cs),
(178,143,o),
(217,62,o),
(297,62,cs)
);
},
{
closed = 1;
nodes = (
(263,115,o),
(246,163,o),
(268,255,cs),
(293,356,o),
(346,429,o),
(403,429,cs),
(450,429,o),
(467,381,o),
(444,289,cs),
(419,188,o),
(367,115,o),
(310,115,cs)
);
},
{
closed = 1;
nodes = (
(341,-95,o),
(399,-81,o),
(435,-71,cs),
(459,-65,o),
(463,-49,o),
(460,-34,cs),
(454,-15,o),
(431,-14,o),
(417,-19,cs),
(381,-30,o),
(330,-42,o),
(289,-42,cs),
(145,-42,o),
(63,91,o),
(103,254,cs),
(153,454,o),
(284,571,o),
(438,571,cs),
(583,571,o),
(665,457,o),
(627,297,cs),
(605,204,o),
(541,115,o),
(493,115,cs),
(474,115,o),
(472,156,o),
(488,220,cs),
(545,444,ls),
(550,463,o),
(545,478,o),
(525,478,cs),
(503,478,o),
(491,469,o),
(485,448,cs),
(430,233,ls),
(403,127,o),
(426,62,o),
(487,62,cs),
(562,62,o),
(656,173,o),
(687,298,cs),
(733,486,o),
(627,625,o),
(441,625,cs),
(254,625,o),
(100,487,o),
(44,265,cs),
(-7,58,o),
(102,-95,o),
(292,-95,cs)
);
}
);
vertWidth = 0;
width = 754;
},
{
layerId = m002;
shapes = (
{
closed = 1;
nodes = (
(418,58,o),
(455,147,o),
(488,272,cs),
(523,400,o),
(527,485,o),
(446,485,cs),
(354,485,o),
(268,405,o),
(236,277,cs),
(203,141,o),
(245,58,o),
(340,58,cs)
);
},
{
closed = 1;
nodes = (
(340,165,o),
(333,198,o),
(347,253,cs),
(366,330,o),
(403,378,o),
(443,378,cs),
(467,378,o),
(474,347,o),
(461,296,cs),
(441,215,o),
(404,165,o),
(365,165,cs)
);
},
{
closed = 1;
nodes = (
(369,-143,o),
(438,-132,o),
(495,-116,cs),
(539,-105,o),
(560,-76,o),
(549,-39,cs),
(538,-5,o),
(503,7,o),
(454,-10,cs),
(418,-21,o),
(366,-30,o),
(331,-30,cs),
(188,-30,o),
(112,93,o),
(152,255,cs),
(203,456,o),
(331,581,o),
(488,581,cs),
(627,581,o),
(703,469,o),
(669,318,cs),
(647,228,o),
(598,162,o),
(561,162,cs),
(543,162,o),
(549,195,o),
(554,213,cs),
(606,421,ls),
(617,463,o),
(599,485,o),
(561,485,cs),
(525,485,o),
(506,472,o),
(498,438,cs),
(447,238,ls),
(410,95,o),
(461,58,o),
(523,58,c),
(640,58,o),
(753,163,o),
(788,302,cs),
(845,526,o),
(718,694,o),
(492,694,cs),
(273,694,o),
(99,538,o),
(36,285,cs),
(-25,40,o),
(102,-143,o),
(334,-143,cs)
);
}
);
vertWidth = 0;
width = 855;
}
);
unicode = 64;
},
{
color = 6;
glyphname = ampersand;
layers = (
{
layerId = m01;
shapes = (
{
closed = 1;
nodes = (
(352,-1,o),
(448,78,o),
(561,274,cs),
(573,295,o),
(576,314,o),
(558,326,cs),
(541,337,o),
(524,330,o),
(512,310,cs),
(411,128,o),
(329,53,o),
(230,53,cs),
(159,53,o),
(115,106,o),
(115,189,cs),
(115,272,o),
(160,333,o),
(270,399,cs),
(323,431,ls),
(451,508,o),
(508,583,o),
(508,661,cs),
(508,725,o),
(448,772,o),
(367,772,cs),
(249,772,o),
(162,706,o),
(162,618,cs),
(162,550,o),
(220,463,o),
(246,419,cs),
(481,26,ls),
(493,6,o),
(510,-6,o),
(529,5,cs),
(546,14,o),
(543,39,o),
(527,65,cs),
(296,455,ls),
(274,491,o),
(221,576,o),
(221,618,cs),
(221,675,o),
(280,718,o),
(360,718,cs),
(411,718,o),
(449,688,o),
(449,649,cs),
(449,594,o),
(383,533,o),
(266,461,cs),
(241,446,ls),
(109,365,o),
(56,290,o),
(56,187,cs),
(56,70,o),
(122,-1,o),
(230,-1,cs)
);
}
);
vertWidth = 0;
width = 658;
},
{
layerId = m002;
shapes = (
{
closed = 1;
nodes = (
(387,-5,o),
(495,87,o),
(599,268,cs),
(617,299,o),
(608,329,o),
(575,348,cs),
(550,364,o),
(513,353,o),
(494,321,cs),
(410,177,o),
(339,103,o),
(266,103,cs),
(216,103,o),
(176,135,o),
(176,187,cs),
(176,242,o),
(210,314,o),
(296,378,cs),
(320,396,ls),
(480,516,o),
(525,575,o),
(525,659,cs),
(525,729,o),
(459,771,o),
(354,771,cs),
(226,771,o),
(126,688,o),
(126,599,cs),
(126,543,o),
(157,501,o),
(178,467,cs),
(459,33,ls),
(476,6,o),
(524,-11,o),
(556,12,cs),
(592,38,o),
(584,71,o),
(565,100,cs),
(336,441,ls),
(296,500,o),
(248,570,o),
(247,600,cs),
(247,626,o),
(285,665,o),
(336,665,cs),
(383,665,o),
(393,652,o),
(398,634,cs),
(407,601,o),
(366,549,o),
(268,485,cs),
(227,457,ls),
(135,398,o),
(57,320,o),
(57,185,cs),
(57,68,o),
(141,-5,o),
(252,-5,cs)
);
}
);
vertWidth = 0;
width = 695;
}
);
unicode = 38;
},
{
color = 6;
glyphname = copyright;
layers = (
{
guides = (
{
angle = 263.8335;
pos = (289,338);
}
);
layerId = m01;
shapes = (
{
closed = 1;
nodes = (
(750,-95,o),
(958,113,o),
(958,368,cs),
(958,624,o),
(750,832,o),
(494,832,cs),
(239,832,o),
(31,624,o),
(31,368,cs),
(31,113,o),
(239,-95,o),
(494,-95,cs)
);
},
{
closed = 1;
nodes = (
(272,-36,o),
(90,146,o),
(90,369,cs),
(90,590,o),
(273,772,o),
(494,772,cs),
(715,772,o),
(898,590,o),
(898,369,cs),
(898,146,o),
(716,-36,o),
(494,-36,cs)
);
},
{
closed = 1;
nodes = (
(535,139,o),
(581,178,o),
(611,232,cs),
(617,244,o),
(613,260,o),
(599,268,cs),
(583,277,o),
(565,272,o),
(560,260,cs),
(537,217,o),
(505,194,o),
(474,194,cs),
(407,194,o),
(385,268,o),
(393,346,cs),
(404,447,o),
(460,558,o),
(518,558,cs),
(545,558,o),
(567,543,o),
(579,523,cs),
(584,513,o),
(599,507,o),
(614,516,cs),
(628,524,o),
(632,542,o),
(626,550,cs),
(604,586,o),
(568,613,o),
(519,613,cs),
(431,613,o),
(348,486,o),
(334,349,cs),
(323,245,o),
(365,139,o),
(468,139,cs)
);
}
);
width = 1015;
},
{
layerId = m002;
shapes = (
{
closed = 1;
nodes = (
(739,-95,o),
(947,113,o),
(947,368,cs),
(947,624,o),
(739,832,o),
(484,832,cs),
(228,832,o),
(20,624,o),
(20,368,cs),
(20,113,o),
(228,-95,o),
(484,-95,cs)
);
},
{
closed = 1;
nodes = (
(287,12,o),
(127,170,o),
(127,368,cs),
(127,563,o),
(285,725,o),
(485,725,cs),
(682,725,o),
(840,564,o),
(840,368,cs),
(840,172,o),
(681,12,o),
(485,12,cs)
);
},
{
closed = 1;
nodes = (
(527,143,o),
(576,189,o),
(605,240,cs),
(618,264,o),
(609,295,o),
(584,308,cs),
(557,322,o),
(527,314,o),
(514,290,cs),
(497,258,o),
(480,244,o),
(462,244,cs),
(428,244,o),
(410,289,o),
(418,362,cs),
(426,443,o),
(461,511,o),
(499,511,cs),
(518,511,o),
(526,505,o),
(532,497,cs),
(546,476,o),
(574,466,o),
(599,481,cs),
(625,497,o),
(631,529,o),
(618,548,cs),
(594,584,o),
(554,611,o),
(500,611,cs),
(411,611,o),
(314,504,o),
(299,371,cs),
(284,229,o),
(345,143,o),
(457,143,cs)
);
}
);
width = 1001;
}
);
unicode = 169;
},
{
color = 6;
glyphname = registered;
layers = (
{
layerId = m01;
shapes = (
{
closed = 1;
nodes = (
(322,485,o),
(330,494,o),
(331,504,cs),
(355,733,l),
(356,746,o),
(335,752,o),
(323,752,cs),
(312,752,o),
(308,748,o),
(307,737,cs),
(282,506,ls),
(280,494,o),
(289,485,o),
(304,485,cs)
);
},
{
closed = 1;
nodes = (
(438,485,o),
(447,491,o),
(450,497,cs),
(454,501,o),
(455,512,o),
(450,518,cs),
(367,628,l),
(304,632,l),
(409,494,ls),
(413,487,o),
(425,485,o),
(431,485,cs)
);
},
{
closed = 1;
nodes = (
(387,611,o),
(460,607,o),
(467,677,cs),
(472,732,o),
(418,752,o),
(323,752,c),
(322,703,l),
(379,703,o),
(422,696,o),
(419,678,cs),
(417,659,o),
(375,659,o),
(322,659,c),
(321,612,l)
);
},
{
closed = 1;
nodes = (
(525,343,o),
(647,466,o),
(647,617,cs),
(647,767,o),
(525,890,o),
(374,890,cs),
(223,890,o),
(101,767,o),
(101,617,cs),
(101,466,o),
(223,343,o),
(374,343,cs)
);
},
{
closed = 1;
nodes = (
(254,400,o),
(158,497,o),
(158,617,cs),
(158,735,o),
(254,832,o),
(374,832,cs),
(493,832,o),
(589,735,o),
(589,617,cs),
(589,497,o),
(493,400,o),
(374,400,cs)
);
}
);
width = 699;
},
{
layerId = m002;
shapes = (
{
closed = 1;
nodes = (
(322,486,o),
(336,500,o),
(339,519,cs),
(361,726,ls),
(364,750,o),
(348,766,o),
(326,766,cs),
(307,766,o),
(293,753,o),
(291,735,cs),
(268,524,ls),
(266,500,o),
(283,486,o),
(302,486,cs)
);
},
{
closed = 1;
nodes = (
(447,486,o),
(459,493,o),
(463,506,cs),
(467,517,o),
(463,526,o),
(457,535,cs),
(402,611,l),
(314,611,l),
(397,500,ls),
(404,491,o),
(416,486,o),
(432,486,cs)
);
},
{
closed = 1;
nodes = (
(360,592,o),
(469,589,o),
(479,676,cs),
(486,746,o),
(400,766,o),
(326,766,c),
(330,700,l),
(393,701,o),
(409,695,o),
(406,676,cs),
(404,659,o),
(352,659,o),
(333,659,c),
(334,592,l)
);
},
{
closed = 1;
nodes = (
(525,343,o),
(647,466,o),
(647,617,cs),
(647,767,o),
(525,890,o),
(374,890,cs),
(223,890,o),
(101,767,o),
(101,617,cs),
(101,466,o),
(223,343,o),
(374,343,cs)
);
},
{
closed = 1;
nodes = (
(271,432,o),
(190,518,o),
(190,617,cs),
(190,718,o),
(273,801,o),
(374,801,cs),
(475,801,o),
(558,719,o),
(558,617,cs),
(558,514,o),
(475,432,o),
(374,432,cs)
);
}
);
width = 701;
}
);
unicode = 174;
},
{
color = 6;
glyphname = trademark;
layers = (
{
layerId = m01;
shapes = (
{
closed = 1;
nodes = (
(209,791,l),
(173,450,ls),
(172,434,o),
(183,416,o),
(204,416,cs),
(226,416,o),
(232,432,o),
(233,444,cs),
(270,791,l)
);
},
{
closed = 1;
nodes = (
(373,772,o),
(383,785,o),
(381,803,cs),
(380,821,o),
(368,835,o),
(349,835,cs),
(129,835,ls),
(109,835,o),
(100,821,o),
(101,803,cs),
(102,785,o),
(114,772,o),
(134,772,cs),
(354,772,ls)
);
},
{
closed = 1;
nodes = (
(557,836,l),
(539,836,o),
(533,827,o),
(525,809,cs),
(367,462,ls),
(358,441,o),
(371,416,o),
(394,416,cs),
(404,416,o),
(416,422,o),
(424,441,cs),
(567,754,l)
);
},
{
closed = 1;
nodes = (
(588,810,ls),
(586,823,o),
(577,836,o),
(557,836,c),
(536,754,l),
(595,444,ls),
(599,429,o),
(606,416,o),
(626,416,c),
(650,475,l)
);
},
{
closed = 1;
nodes = (
(644,416,o),
(651,425,o),
(657,436,cs),
(817,754,l),
(808,836,l),
(792,836,o),
(784,827,o),
(777,815,cs),
(612,485,l),
(625,416,l)
);
},
{
closed = 1;
nodes = (
(838,822,o),
(824,836,o),
(808,836,c),
(788,754,l),
(835,446,ls),
(838,430,o),
(848,416,o),
(868,416,cs),
(887,416,o),
(897,431,o),
(895,449,cs),
(840,802,ls)
);
}
);
width = 946;
},
{
layerId = m002;
shapes = (
{
closed = 1;
nodes = (
(192,740,l),
(164,478,ls),
(160,446,o),
(188,416,o),
(225,416,cs),
(257,416,o),
(277,437,o),
(279,463,cs),
(309,740,l)
);
},
{
closed = 1;
nodes = (
(387,727,o),
(410,751,o),
(407,782,cs),
(405,814,o),
(380,838,o),
(348,838,cs),
(154,838,ls),
(121,838,o),
(99,814,o),
(101,782,cs),
(103,751,o),
(128,727,o),
(162,727,cs),
(355,727,ls)
);
},
{
closed = 1;
nodes = (
(590,839,l),
(564,839,o),
(550,835,o),
(535,801,cs),
(397,495,ls),
(380,459,o),
(409,416,o),
(450,416,cs),
(469,416,o),
(489,426,o),
(503,453,cs),
(630,733,l)
);
},
{
closed = 1;
nodes = (
(647,791,ls),
(642,826,o),
(617,839,o),
(592,839,c),
(543,743,l),
(596,466,ls),
(604,429,o),
(628,416,o),
(655,416,c),
(703,491,l)
);
},
{
closed = 1;
nodes = (
(683,416,o),
(693,423,o),
(707,449,cs),
(851,733,l),
(822,839,l),
(791,839,o),
(771,830,o),
(758,803,cs),
(608,508,l),
(656,416,l)
);
},
{
closed = 1;
nodes = (
(873,830,o),
(853,839,o),
(821,839,c),
(773,743,l),
(816,467,ls),
(820,438,o),
(845,416,o),
(877,416,cs),
(911,416,o),
(933,442,o),
(928,475,cs),
(880,784,ls)
);
}
);
width = 982;
}
);
unicode = 8482;
},
{
color = 6;
glyphname = degree;
layers = (
{
layerId = m01;
shapes = (
{
closed = 1;
nodes = (
(277,480,o),
(317,557,o),
(326,630,cs),
(333,704,o),
(303,777,o),
(229,777,cs),
(168,777,o),
(113,727,o),
(102,630,cs),
(95,555,o),
(125,480,o),
(198,480,cs)
);
},
{
closed = 1;
nodes = (
(165,535,o),
(152,579,o),
(157,627,cs),
(164,693,o),
(190,722,o),
(226,722,cs),
(270,722,o),
(274,664,o),
(271,631,cs),
(264,568,o),
(235,535,o),
(207,535,cs)
);
}
);
vertWidth = 0;
width = 378;
},
{
layerId = m002;
shapes = (
{
closed = 1;
nodes = (
(303,442,o),
(349,529,o),
(360,611,cs),
(368,695,o),
(334,777,o),
(247,777,cs),
(175,777,o),
(112,721,o),
(100,611,cs),
(91,526,o),
(126,442,o),
(211,442,cs)
);
},
{
closed = 1;
nodes = (
(195,545,o),
(187,576,o),
(190,609,cs),
(194,656,o),
(213,676,o),
(238,676,cs),
(267,676,o),
(272,637,o),
(268,612,cs),
(265,568,o),
(245,545,o),
(223,545,cs)
);
}
);
vertWidth = 0;
width = 415;
}
);
unicode = 176;
},
{
color = 6;
glyphname = bar;
layers = (
{
layerId = m01;
shapes = (
{
closed = 1;
nodes = (
(70,-356,o),
(72,-339,o),
(74,-327,cs),
(192,794,ls),
(196,820,o),
(182,832,o),
(166,832,cs),
(152,832,o),
(135,820,o),
(133,798,cs),
(13,-324,ls),
(11,-342,o),
(23,-356,o),
(44,-356,cs)
);
}
);
vertWidth = 0;
width = 240;
},
{
layerId = m002;
shapes = (
{
closed = 1;
nodes = (
(119,-359,o),
(132,-334,o),
(135,-309,c),
(251,766,ls),
(254,809,o),
(226,834,o),
(192,834,cs),
(166,834,o),
(137,814,o),
(133,781,cs),
(17,-297,ls),
(12,-330,o),
(40,-359,o),
(78,-359,cs)
);
}
);
vertWidth = 0;
width = 301;
}
);
unicode = 124;
},
{
color = 6;
glyphname = brokenbar;
layers = (
{
layerId = m01;
shapes = (
{
closed = 1;
nodes = (
(127,181,o),
(114,192,o),
(100,192,cs),
(84,192,o),
(67,181,o),
(65,160,cs),
(13,-324,ls),
(11,-342,o),
(23,-356,o),
(44,-356,cs),
(70,-356,o),
(72,-339,o),
(74,-327,cs),
(126,160,ls)
);
},
{
closed = 1;
nodes = (
(196,820,o),
(182,832,o),
(166,832,cs),
(152,832,o),
(135,820,o),
(133,798,cs),
(81,316,ls),
(80,296,o),
(93,283,o),
(108,284,cs),
(124,284,o),
(140,296,o),
(141,316,cs),
(192,794,ls)
);
}
);
vertWidth = 0;
width = 240;
},
{
layerId = m002;
shapes = (
{
closed = 1;
nodes = (
(185,168,o),
(158,194,o),
(126,194,cs),
(99,194,o),
(68,173,o),
(64,141,cs),
(17,-295,ls),
(13,-328,o),
(40,-356,o),
(78,-356,cs),
(119,-356,o),
(133,-331,o),
(135,-307,cs),
(182,132,ls)
);
},
{
closed = 1;
nodes = (
(254,807,o),
(225,832,o),
(191,832,cs),
(165,832,o),
(135,811,o),
(132,778,cs),
(86,345,ls),
(81,308,o),
(110,280,o),
(144,283,cs),
(171,284,o),
(200,304,o),
(203,335,cs),
(249,764,ls)
);
}
);
vertWidth = 0;
width = 299;
}
);
unicode = 166;
},
{
color = 6;
glyphname = cent;
layers = (
{
layerId = m01;
shapes = (
{
closed = 1;
nodes = (
(222,-1,o),
(268,38,o),
(298,91,cs),
(304,103,o),
(301,120,o),
(286,128,cs),
(271,137,o),
(253,132,o),
(247,120,cs),
(225,77,o),
(192,53,o),
(162,53,cs),
(95,53,o),
(72,128,o),
(81,206,cs),
(91,307,o),
(140,366,o),
(198,366,cs),
(226,366,o),
(247,350,o),
(259,330,cs),
(265,321,o),
(279,315,o),
(295,323,cs),
(309,331,o),
(312,349,o),
(307,358,cs),
(284,393,o),
(248,421,o),
(200,421,cs),
(112,421,o),
(36,346,o),
(21,209,cs),
(11,105,o),
(52,-1,o),
(156,-1,cs)
);
},
{
closed = 1;
nodes = (
(156,-70,o),
(173,-62,o),
(176,-45,cs),
(230,462,ls),
(233,482,o),
(217,493,o),
(203,494,cs),
(189,495,o),
(172,485,o),
(170,462,cs),
(115,-45,ls),
(113,-62,o),
(126,-70,o),
(140,-70,cs)
);
}
);
width = 373;
},
{
layerId = m002;
shapes = (
{
closed = 1;
nodes = (
(252,-5,o),
(301,42,o),
(329,93,cs),
(342,116,o),
(334,147,o),
(309,160,cs),
(282,175,o),
(252,166,o),
(239,143,cs),
(221,110,o),
(204,96,o),
(187,96,cs),
(152,96,o),
(122,141,o),
(131,215,cs),
(139,296,o),
(181,328,o),
(219,328,cs),
(238,328,o),
(246,322,o),
(252,314,cs),
(266,293,o),
(293,283,o),
(318,298,cs),
(345,314,o),
(350,346,o),
(337,365,cs),
(314,402,o),
(273,428,o),
(220,428,cs),
(131,428,o),
(38,356,o),
(24,223,cs),
(8,82,o),
(69,-5,o),
(182,-5,cs)
);
},
{
closed = 1;
nodes = (
(182,-70,o),
(200,-62,o),
(202,-45,cs),
(257,462,ls),
(259,482,o),
(244,493,o),
(229,494,cs),
(215,495,o),
(198,485,o),
(196,462,cs),
(141,-45,ls),
(139,-62,o),
(152,-70,o),
(166,-70,cs)
);
}
);
width = 406;
}
);
unicode = 162;
},
{
color = 6;
glyphname = dollar;
layers = (
{
layerId = m01;
shapes = (
{
closed = 1;
nodes = (
(339,-5,o),
(447,42,o),
(457,147,cs),
(467,240,o),
(393,302,o),
(298,356,cs),
(201,412,o),
(140,438,o),
(147,506,cs),
(154,574,o),
(220,620,o),
(333,620,cs),
(393,620,o),
(430,590,o),
(446,548,cs),
(451,532,o),
(468,525,o),
(484,530,cs),
(500,535,o),
(503,554,o),
(495,575,cs),
(476,631,o),
(423,675,o),
(330,675,cs),
(178,675,o),
(100,599,o),
(90,511,cs),
(81,416,o),
(159,367,o),
(253,314,cs),
(358,254,o),
(406,226,o),
(399,156,cs),
(391,80,o),
(303,50,o),
(220,50,cs),
(145,50,o),
(114,81,o),
(105,118,cs),
(100,138,o),
(82,145,o),
(65,140,cs),
(48,135,o),
(45,116,o),
(50,97,cs),
(65,36,o),
(119,-5,o),
(201,-5,cs)
);
},
{
closed = 1;
nodes = (
(247,-82,o),
(260,-74,o),
(263,-56,cs),
(343,708,ls),
(346,727,o),
(329,739,o),
(312,739,cs),
(299,739,o),
(286,732,o),
(284,714,cs),
(203,-50,ls),
(201,-71,o),
(217,-82,o),
(234,-82,cs)
);
}
);
vertWidth = 0;
width = 561;
},
{
layerId = m002;
shapes = (
{
closed = 1;
nodes = (
(364,-5,o),
(484,45,o),
(497,165,cs),
(506,271,o),
(423,331,o),
(333,384,cs),
(240,437,o),
(204,442,o),
(209,481,cs),
(214,530,o),
(254,568,o),
(348,568,cs),
(392,568,o),
(419,550,o),
(431,518,cs),
(443,488,o),
(468,467,o),
(498,476,cs),
(532,487,o),
(543,524,o),
(529,560,cs),
(507,624,o),
(448,675,o),
(346,675,cs),
(187,675,o),
(102,590,o),
(90,493,cs),
(80,384,o),
(169,339,o),
(259,289,cs),
(355,233,o),
(384,223,o),
(379,179,cs),
(373,129,o),
(315,102,o),
(244,102,cs),
(188,102,o),
(163,121,o),
(156,146,cs),
(149,183,o),
(120,202,o),
(87,192,cs),
(56,183,o),
(44,152,o),
(55,114,cs),
(72,42,o),
(134,-5,o),
(226,-5,cs)
);
},
{
closed = 1;
nodes = (
(283,-82,o),
(308,-61,o),
(312,-21,cs),
(387,676,ls),
(391,709,o),
(373,739,o),
(331,739,cs),
(296,739,o),
(272,714,o),
(268,682,cs),
(194,-14,ls),
(189,-57,o),
(209,-82,o),
(248,-82,cs)
);
}
);
vertWidth = 0;
width = 599;
}
);
unicode = 36;
},
{
color = 6;
glyphname = euro;
layers = (
{
layerId = m01;
shapes = (
{
closed = 1;
nodes = (
(448,-6,o),
(541,75,o),
(577,149,cs),
(593,179,o),
(595,196,o),
(575,207,cs),
(555,217,o),
(541,204,o),
(527,177,cs),
(497,118,o),
(432,49,o),
(336,49,cs),
(220,49,o),
(173,182,o),
(213,397,cs),
(249,596,o),
(341,723,o),
(455,723,cs),
(512,723,o),
(558,680,o),
(583,662,cs),
(595,652,o),
(617,644,o),
(632,662,cs),
(647,680,o),
(638,697,o),
(627,707,cs),
(594,737,o),
(544,778,o),
(451,778,cs),
(311,778,o),
(197,636,o),
(153,404,cs),
(105,151,o),
(176,-6,o),
(341,-6,cs)
);
},
{
closed = 1;
nodes = (
(314,236,ls),
(335,236,o),
(346,251,o),
(346,264,cs),
(346,277,o),
(335,290,o),
(314,290,cs),
(44,290,ls),
(23,290,o),
(12,276,o),
(12,263,cs),
(12,249,o),
(23,236,o),
(44,236,cs)
);
},
{
closed = 1;
nodes = (
(334,416,ls),
(355,416,o),
(366,430,o),
(366,443,cs),
(366,456,o),
(355,469,o),
(334,469,cs),
(64,469,ls),
(43,469,o),
(32,455,o),
(32,442,cs),
(32,429,o),
(43,416,o),
(64,416,cs)
);
}
);
width = 665;
},
{
layerId = m002;
shapes = (
{
closed = 1;
nodes = (
(463,-6,o),
(562,65,o),
(602,138,cs),
(630,188,o),
(612,227,o),
(582,242,cs),
(552,258,o),
(525,246,o),
(511,215,cs),
(484,157,o),
(426,99,o),
(335,99,cs),
(246,99,o),
(210,194,o),
(235,393,cs),
(257,567,o),
(329,671,o),
(457,671,cs),
(504,671,o),
(552,637,o),
(577,619,cs),
(604,601,o),
(633,605,o),
(652,638,cs),
(672,674,o),
(657,709,o),
(636,725,cs),
(606,747,o),
(522,778,o),
(449,778,cs),
(264,778,o),
(151,649,o),
(115,407,cs),
(78,157,o),
(152,-6,o),
(334,-6,cs)
);
},
{
closed = 1;
nodes = (
(314,229,ls),
(354,229,o),
(368,258,o),
(368,280,cs),
(368,304,o),
(354,331,o),
(314,331,cs),
(44,331,ls),
(4,331,o),
(-11,304,o),
(-11,280,cs),
(-11,257,o),
(4,229,o),
(44,229,cs)
);
},
{
closed = 1;
nodes = (
(329,385,ls),
(369,385,o),
(384,413,o),
(384,436,cs),
(384,460,o),
(369,487,o),
(329,487,cs),
(59,487,ls),
(19,487,o),
(5,460,o),
(5,436,cs),
(5,412,o),
(19,385,o),
(59,385,cs)
);
}
);
width = 691;
}
);
unicode = 8364;
},
{
color = 6;
glyphname = sterling;
layers = (
{
layerId = m01;
shapes = (
{
closed = 1;
nodes = (
(108,375,o),
(118,362,o),
(141,362,cs),
(394,362,ls),
(418,362,o),
(423,375,o),
(423,390,cs),
(423,404,o),
(415,416,o),
(391,416,cs),
(138,416,ls),
(114,416,o),
(108,404,o),
(108,390,cs)
);
},
{
closed = 1;
nodes = (
(121,0,l),
(170,64,o),
(247,156,o),
(284,253,cs),
(310,322,o),
(308,438,o),
(270,489,cs),
(232,542,o),
(192,605,o),
(192,651,cs),
(192,671,o),
(200,688,o),
(219,699,cs),
(235,708,o),
(257,712,o),
(280,712,cs),
(336,712,o),
(405,689,o),
(446,655,cs),
(474,631,o),
(493,634,o),
(503,645,cs),
(513,657,o),
(518,672,o),
(492,695,cs),
(442,738,o),
(359,772,o),
(284,772,cs),
(252,772,o),
(221,766,o),
(195,751,cs),
(150,725,o),
(127,689,o),
(127,645,cs),
(127,595,o),
(157,533,o),
(216,459,cs),
(235,435,o),
(247,337,o),
(225,277,cs),
(185,171,o),
(74,53,o),
(69,45,cs),
(52,20,o),
(57,0,o),
(87,0,c)
);
},
{
closed = 1;
nodes = (
(413,0,ls),
(437,0,o),
(443,15,o),
(442,30,cs),
(441,44,o),
(434,59,o),
(410,59,cs),
(113,59,l),
(91,0,l)
);
}
);
width = 561;
},
{
layerId = m002;
shapes = (
{
closed = 1;
nodes = (
(99,336,o),
(122,315,o),
(160,315,cs),
(410,315,ls),
(448,315,o),
(467,336,o),
(467,365,cs),
(467,394,o),
(442,416,o),
(404,416,cs),
(154,416,ls),
(116,416,o),
(99,394,o),
(99,365,cs)
);
},
{
closed = 1;
nodes = (
(158,0,l),
(220,64,o),
(292,164,o),
(323,261,cs),
(345,330,o),
(345,454,o),
(307,505,cs),
(259,569,o),
(238,607,o),
(238,636,cs),
(238,646,o),
(241,655,o),
(249,659,cs),
(261,666,o),
(278,670,o),
(296,670,cs),
(340,670,o),
(394,651,o),
(432,619,cs),
(467,588,o),
(507,598,o),
(523,618,cs),
(539,640,o),
(544,666,o),
(512,696,cs),
(465,740,o),
(381,773,o),
(303,773,cs),
(265,773,o),
(228,765,o),
(198,747,cs),
(146,716,o),
(119,681,o),
(119,633,cs),
(119,569,o),
(176,484,o),
(209,443,cs),
(228,419,o),
(230,333,o),
(208,272,cs),
(169,166,o),
(97,118,o),
(61,65,cs),
(48,48,o),
(38,0,o),
(103,0,cs)
);
},
{
closed = 1;
nodes = (
(405,0,ls),
(441,0,o),
(463,17,o),
(461,49,cs),
(459,77,o),
(436,102,o),
(398,102,cs),
(163,102,l),
(127,0,l)
);
}
);
width = 600;
}
);
unicode = 163;
},
{
color = 6;
glyphname = yen;
layers = (
{
layerId = m01;
shapes = (
{
closed = 1;
nodes = (
(53,763,o),
(51,747,o),
(59,728,cs),
(261,286,l),
(301,345,l),
(115,748,ls),
(109,763,o),
(96,778,o),
(74,770,cs)
);
},
{
closed = 1;
nodes = (
(103,-4,o),
(125,-4,o),
(135,14,cs),
(552,723,ls),
(563,741,o),
(558,759,o),
(541,769,cs),
(526,776,o),
(512,772,o),
(501,754,cs),
(86,45,ls),
(77,31,o),
(78,15,o),
(90,7,cs)
);
},
{
closed = 1;
nodes = (
(356,113,ls),
(378,113,o),
(388,127,o),
(388,140,cs),
(388,153,o),
(378,166,o),
(356,166,cs),
(87,166,ls),
(65,166,o),
(55,152,o),
(55,139,cs),
(55,126,o),
(65,113,o),
(87,113,cs)
);
},
{
closed = 1;
nodes = (
(377,292,ls),
(398,292,o),
(409,307,o),
(409,320,cs),
(409,333,o),
(398,346,o),
(377,346,cs),
(107,346,ls),
(86,346,o),
(75,331,o),
(75,318,cs),
(75,305,o),
(86,292,o),
(107,292,cs)
);
}
);
width = 539;
},
{
layerId = m002;
shapes = (
{
closed = 1;
nodes = (
(51,756,o),
(45,722,o),
(58,694,cs),
(258,265,l),
(328,373,l),
(169,738,ls),
(157,765,o),
(125,781,o),
(88,767,cs)
);
},
{
closed = 1;
nodes = (
(115,-8,o),
(165,-2,o),
(182,26,cs),
(576,687,ls),
(593,715,o),
(584,748,o),
(554,766,cs),
(529,779,o),
(489,772,o),
(470,741,cs),
(78,89,ls),
(63,64,o),
(69,30,o),
(91,11,cs)
);
},
{
closed = 1;
nodes = (
(374,114,ls),
(415,114,o),
(429,143,o),
(429,165,cs),
(429,189,o),
(415,216,o),
(374,216,cs),
(105,216,ls),
(64,216,o),
(50,189,o),
(50,165,cs),
(50,141,o),
(64,114,o),
(105,114,cs)
);
},
{
closed = 1;
nodes = (
(390,270,ls),
(430,270,o),
(444,298,o),
(444,321,cs),
(444,345,o),
(430,372,o),
(390,372,cs),
(120,372,ls),
(80,372,o),
(65,345,o),
(65,321,cs),
(65,297,o),
(80,270,o),
(120,270,cs)
);
}
);
width = 569;
}
);
unicode = 165;
},
{
color = 6;
glyphname = plus;
layers = (
{
layerId = m01;
shapes = (
{
closed = 1;
nodes = (
(245,105,o),
(259,112,o),
(261,131,cs),
(291,393,ls),
(293,415,o),
(283,429,o),
(268,430,cs),
(257,431,o),
(241,424,o),
(239,405,cs),
(210,143,ls),
(208,120,o),
(219,106,o),
(233,105,cs)
);
},
{
closed = 1;
nodes = (
(385,244,ls),
(406,244,o),
(417,258,o),
(417,271,cs),
(417,284,o),
(406,297,o),
(385,297,cs),
(115,297,ls),
(94,297,o),
(83,284,o),
(83,271,cs),
(83,257,o),
(94,244,o),
(115,244,cs)
);
}
);
vertWidth = 0;
width = 506;
},
{
layerId = m002;
shapes = (
{
closed = 1;
nodes = (
(259,81,o),
(287,90,o),
(291,125,cs),
(320,388,ls),
(324,430,o),
(301,454,o),
(276,454,cs),
(255,454,o),
(225,448,o),
(221,413,cs),
(192,149,ls),
(188,102,o),
(213,81,o),
(238,81,cs)
);
},
{
closed = 1;
nodes = (
(388,219,ls),
(429,219,o),
(443,247,o),
(443,270,cs),
(443,293,o),
(429,321,o),
(388,321,cs),
(119,321,ls),
(78,321,o),
(64,293,o),
(64,270,cs),
(64,246,o),
(78,219,o),
(119,219,cs)
);
}
);
vertWidth = 0;
width = 506;
}
);
unicode = 43;
},
{
color = 6;
glyphname = minus;
layers = (
{
layerId = m01;
shapes = (
{
closed = 1;
nodes = (
(385,244,ls),
(406,244,o),
(417,258,o),
(417,271,cs),
(417,284,o),
(406,297,o),
(385,297,cs),
(115,297,ls),
(94,297,o),
(83,284,o),
(83,271,cs),
(83,257,o),
(94,244,o),
(115,244,cs)
);
}
);
vertWidth = 0;
width = 506;
},
{
layerId = m002;
shapes = (
{
closed = 1;
nodes = (
(388,219,ls),
(429,219,o),
(443,247,o),
(443,270,cs),
(443,293,o),
(429,321,o),
(388,321,cs),
(119,321,ls),
(78,321,o),
(64,293,o),
(64,270,cs),
(64,246,o),
(78,219,o),
(119,219,cs)
);
}
);
vertWidth = 0;
width = 506;
}
);
unicode = 8722;
},
{
color = 6;
glyphname = multiply;
layers = (
{
layerId = m01;
shapes = (
{
closed = 1;
nodes = (
(399,388,ls),
(416,404,o),
(416,418,o),
(405,428,cs),
(394,438,o),
(378,441,o),
(361,425,cs),
(78,146,ls),
(64,133,o),
(64,119,o),
(74,108,cs),
(84,97,o),
(101,93,o),
(119,110,cs)
);
},
{
closed = 1;
nodes = (
(354,94,o),
(368,95,o),
(379,103,cs),
(392,113,o),
(398,127,o),
(384,144,cs),
(144,419,ls),
(128,437,o),
(114,440,o),
(103,431,cs),
(91,422,o),
(87,403,o),
(99,388,cs),
(340,110,ls)
);
}
);
vertWidth = 0;
width = 506;
},
{
layerId = m002;
shapes = (
{
closed = 1;
nodes = (
(399,356,ls),
(434,391,o),
(424,413,o),
(405,432,cs),
(388,449,o),
(359,460,o),
(330,431,cs),
(81,178,ls),
(55,152,o),
(57,125,o),
(75,106,cs),
(93,87,o),
(120,72,o),
(152,105,cs)
);
},
{
closed = 1;
nodes = (
(342,78,o),
(369,83,o),
(388,97,cs),
(411,114,o),
(421,140,o),
(398,171,c),
(171,421,ls),
(140,455,o),
(114,450,o),
(96,437,cs),
(75,421,o),
(64,387,o),
(87,362,cs),
(315,109,ls)
);
}
);
vertWidth = 0;
width = 506;
}
);
unicode = 215;
},
{
color = 6;
glyphname = divide;
layers = (
{
layerId = m01;
shapes = (
{
closed = 1;
nodes = (
(255,103,o),
(274,122,o),
(274,143,cs),
(274,164,o),
(254,181,o),
(234,181,cs),
(211,181,o),
(197,162,o),
(197,143,cs),
(197,122,o),
(213,103,o),
(234,103,cs)
);
},
{
closed = 1;
nodes = (
(385,244,ls),
(406,244,o),
(417,258,o),
(417,271,cs),
(417,284,o),
(406,297,o),
(385,297,cs),
(115,297,ls),
(94,297,o),
(83,284,o),
(83,271,cs),
(83,258,o),
(94,244,o),
(115,244,cs)
);
},
{
closed = 1;
nodes = (
(284,360,o),
(303,379,o),
(303,399,cs),
(303,419,o),
(284,437,o),
(264,437,cs),
(242,437,o),
(226,418,o),
(226,399,cs),
(226,380,o),
(242,360,o),
(264,360,cs)
);
}
);
vertWidth = 0;
width = 506;
},
{
layerId = m002;
shapes = (
{
closed = 1;
nodes = (
(271,57,o),
(303,89,o),
(303,126,cs),
(303,160,o),
(271,190,o),
(236,190,cs),
(200,190,o),
(171,160,o),
(171,126,cs),
(171,89,o),
(200,57,o),
(236,57,cs)
);
},
{
closed = 1;
nodes = (
(388,219,ls),
(429,219,o),
(443,247,o),
(443,270,cs),
(443,293,o),
(429,321,o),
(388,321,cs),
(119,321,ls),
(78,321,o),
(64,293,o),
(64,270,cs),
(64,246,o),
(78,219,o),
(119,219,cs)
);
},
{
closed = 1;
nodes = (
(293,349,o),
(326,381,o),
(326,418,cs),
(326,453,o),
(293,482,o),
(259,482,cs),
(222,482,o),
(194,453,o),
(194,418,cs),
(194,381,o),
(222,349,o),
(259,349,cs)
);
}
);
vertWidth = 0;
width = 506;
}
);
unicode = 247;
},
{
color = 6;
glyphname = equal;
layers = (
{
layerId = m01;
shapes = (
{
closed = 1;
nodes = (
(372,153,ls),
(393,153,o),
(404,168,o),
(404,181,cs),
(404,194,o),
(393,207,o),
(372,207,cs),
(102,207,ls),
(81,207,o),
(70,192,o),
(70,179,cs),
(70,166,o),
(81,153,o),
(102,153,cs)
);
},
{
closed = 1;
nodes = (
(392,333,ls),
(413,333,o),
(424,347,o),
(424,360,cs),
(424,373,o),
(413,386,o),
(392,386,cs),
(122,386,ls),
(101,386,o),
(90,372,o),
(90,359,cs),
(90,346,o),
(101,333,o),
(122,333,cs)
);
}
);
vertWidth = 0;
width = 506;
},
{
layerId = m002;
shapes = (
{
closed = 1;
nodes = (
(374,143,ls),
(415,143,o),
(429,171,o),
(429,194,cs),
(429,217,o),
(415,245,o),
(374,245,cs),
(105,245,ls),
(64,245,o),
(50,217,o),
(50,194,cs),
(50,170,o),
(64,143,o),
(105,143,cs)
);
},
{
closed = 1;
nodes = (
(390,298,ls),
(430,298,o),
(444,327,o),
(444,349,cs),
(444,373,o),
(430,400,o),
(390,400,cs),
(120,400,ls),
(80,400,o),
(65,373,o),
(65,349,cs),
(65,326,o),
(80,298,o),
(120,298,cs)
);
}
);
vertWidth = 0;
width = 506;
}
);
unicode = 61;
},
{
color = 6;
glyphname = notequal;
layers = (
{
layerId = m01;
shapes = (
{
closed = 1;
nodes = (
(372,153,ls),
(393,153,o),
(404,168,o),
(404,181,cs),
(404,194,o),
(393,207,o),
(372,207,cs),
(102,207,ls),
(81,207,o),
(70,192,o),
(70,179,cs),
(70,166,o),
(81,153,o),
(102,153,cs)
);
},
{
closed = 1;
nodes = (
(392,333,ls),
(413,333,o),
(424,347,o),
(424,360,cs),
(424,373,o),
(413,386,o),
(392,386,cs),
(122,386,ls),
(101,386,o),
(90,372,o),
(90,359,cs),
(90,346,o),
(101,333,o),
(122,333,cs)
);
},
{
closed = 1;
nodes = (
(343,402,ls),
(360,430,o),
(343,448,o),
(327,448,cs),
(315,448,o),
(307,443,o),
(298,430,cs),
(133,131,ls),
(122,109,o),
(131,95,o),
(144,89,cs),
(154,84,o),
(171,87,o),
(182,106,cs)
);
}
);
vertWidth = 0;
width = 506;
},
{
layerId = m002;
shapes = (
{
closed = 1;
nodes = (
(374,143,ls),
(415,143,o),
(429,171,o),
(429,194,cs),
(429,217,o),
(415,245,o),
(374,245,cs),
(105,245,ls),
(64,245,o),
(50,217,o),
(50,194,cs),
(50,170,o),
(64,143,o),
(105,143,cs)
);
},
{
closed = 1;
nodes = (
(390,298,ls),
(430,298,o),
(444,327,o),
(444,349,cs),
(444,373,o),
(430,400,o),
(390,400,cs),
(120,400,ls),
(80,400,o),
(65,373,o),
(65,349,cs),
(65,326,o),
(80,298,o),
(120,298,cs)
);
},
{
closed = 1;
nodes = (
(387,400,ls),
(428,467,o),
(375,484,o),
(348,484,cs),
(328,484,o),
(314,478,o),
(299,455,cs),
(102,132,ls),
(80,95,o),
(102,67,o),
(125,56,cs),
(144,48,o),
(176,51,o),
(195,82,cs)
);
}
);
vertWidth = 0;
width = 506;
}
);
unicode = 8800;
},
{
color = 6;
glyphname = greater;
layers = (
{
guides = (
{
name = " [#GqRMvt6B8x]";
pos = (131,333);
}
);
layerId = m01;
shapes = (
{
closed = 1;
nodes = (
(394,235,ls),
(404,240,o),
(411,249,o),
(411,259,cs),
(411,267,o),
(409,276,o),
(399,282,cs),
(187,430,ls),
(169,443,o),
(153,443,o),
(143,432,cs),
(132,419,o),
(134,402,o),
(152,388,cs),
(360,244,l),
(364,279,l),
(116,165,ls),
(93,154,o),
(88,143,o),
(91,128,cs),
(95,116,o),
(108,103,o),
(131,114,cs)
);
}
);
vertWidth = 0;
width = 506;
},
{
guides = (
{
name = " [#GqRMvt6B8x]";
pos = (131,333);
}
);
layerId = m002;
shapes = (
{
closed = 1;
nodes = (
(404,216,ls),
(423,223,o),
(435,245,o),
(435,263,cs),
(435,277,o),
(432,292,o),
(415,303,cs),
(202,425,ls),
(169,444,o),
(146,442,o),
(127,423,cs),
(106,402,o),
(105,364,o),
(139,345,cs),
(323,244,l),
(329,293,l),
(120,211,ls),
(77,195,o),
(77,171,o),
(83,149,cs),
(89,126,o),
(109,99,o),
(154,116,cs)
);
}
);
vertWidth = 0;
width = 506;
}
);
unicode = 62;
},
{
color = 6;
glyphname = less;
layers = (
{
layerId = m01;
shapes = (
{
closed = 1;
nodes = (
(336,108,o),
(352,108,o),
(362,119,cs),
(373,132,o),
(371,150,o),
(353,163,cs),
(145,308,l),
(141,272,l),
(388,386,ls),
(412,397,o),
(417,409,o),
(413,423,cs),
(410,435,o),
(397,448,o),
(374,437,cs),
(110,316,ls),
(101,311,o),
(94,302,o),
(94,292,cs),
(94,284,o),
(96,276,o),
(106,270,cs),
(318,121,ls)
);
}
);
vertWidth = 0;
width = 506;
},
{
layerId = m002;
shapes = (
{
closed = 1;
nodes = (
(334,110,o),
(366,112,o),
(383,128,cs),
(405,150,o),
(405,188,o),
(371,207,cs),
(187,308,l),
(181,258,l),
(390,340,ls),
(432,356,o),
(432,380,o),
(426,403,cs),
(421,425,o),
(400,453,o),
(355,435,cs),
(106,335,ls),
(87,328,o),
(75,307,o),
(75,289,cs),
(75,274,o),
(77,259,o),
(95,248,cs),
(308,126,ls)
);
}
);
vertWidth = 0;
width = 506;
}
);
unicode = 60;
},
{
color = 6;
glyphname = greaterequal;
layers = (
{
layerId = m01;
shapes = (
{
closed = 1;
nodes = (
(368,153,ls),
(390,153,o),
(400,166,o),
(400,181,cs),
(400,194,o),
(390,207,o),
(368,207,cs),
(99,207,ls),
(77,207,o),
(67,192,o),
(67,179,cs),
(67,166,o),
(77,153,o),
(99,153,cs)
);
},
{
closed = 1;
nodes = (
(375,278,ls),
(397,278,o),
(407,291,o),
(407,305,cs),
(407,312,o),
(404,321,o),
(397,326,cs),
(176,466,ls),
(157,478,o),
(141,476,o),
(132,465,cs),
(122,451,o),
(126,435,o),
(144,423,cs),
(317,312,l),
(323,331,l),
(106,331,ls),
(84,331,o),
(74,317,o),
(74,304,cs),
(74,291,o),
(84,278,o),
(106,278,cs)
);
}
);
vertWidth = 0;
width = 506;
},
{
layerId = m002;
shapes = (
{
closed = 1;
nodes = (
(374,126,ls),
(415,126,o),
(429,154,o),
(429,177,cs),
(429,201,o),
(415,228,o),
(374,228,cs),
(105,228,ls),
(64,228,o),
(50,201,o),
(50,177,cs),
(50,153,o),
(64,126,o),
(105,126,cs)
);
},
{
closed = 1;
nodes = (
(372,263,ls),
(411,263,o),
(426,290,o),
(426,314,cs),
(426,329,o),
(421,345,o),
(405,355,cs),
(201,493,ls),
(166,517,o),
(141,505,o),
(126,486,c),
(109,462,o),
(106,430,o),
(143,410,cs),
(260,347,l),
(276,365,l),
(128,365,ls),
(88,365,o),
(72,336,o),
(72,314,c),
(72,291,o),
(87,263,o),
(128,263,cs)
);
}
);
vertWidth = 0;
width = 506;
}
);
unicode = 8805;
},
{
color = 6;
glyphname = lessequal;
layers = (
{
layerId = m01;
shapes = (
{
closed = 1;
nodes = (
(368,153,ls),
(390,153,o),
(400,166,o),
(400,181,cs),
(400,194,o),
(390,207,o),
(368,207,cs),
(99,207,ls),
(77,207,o),
(67,192,o),
(67,179,cs),
(67,166,o),
(77,153,o),
(99,153,cs)
);
},
{
closed = 1;
nodes = (
(375,278,ls),
(397,278,o),
(407,291,o),
(407,305,cs),
(407,318,o),
(397,331,o),
(375,331,cs),
(177,331,l),
(181,315,l),
(390,423,ls),
(409,432,o),
(411,451,o),
(402,465,cs),
(392,476,o),
(378,476,o),
(358,466,cs),
(89,328,ls),
(78,322,o),
(74,314,o),
(74,304,cs),
(74,291,o),
(84,278,o),
(106,278,cs)
);
}
);
vertWidth = 0;
width = 506;
},
{
layerId = m002;
shapes = (
{
closed = 1;
nodes = (
(374,126,ls),
(415,126,o),
(429,154,o),
(429,177,cs),
(429,201,o),
(415,228,o),
(374,228,cs),
(105,228,ls),
(64,228,o),
(50,201,o),
(50,177,cs),
(50,153,o),
(64,126,o),
(105,126,cs)
);
},
{
closed = 1;
nodes = (
(372,263,ls),
(411,263,o),
(426,290,o),
(426,314,cs),
(426,336,o),
(412,365,o),
(372,365,cs),
(215,365,l),
(228,334,l),
(397,407,ls),
(434,423,o),
(434,461,o),
(416,485,cs),
(400,505,o),
(378,513,o),
(343,494,cs),
(101,359,ls),
(80,347,o),
(72,330,o),
(72,314,cs),
(72,291,o),
(87,263,o),
(127,263,cs)
);
}
);
vertWidth = 0;
width = 506;
}
);
unicode = 8804;
},
{
color = 6;
glyphname = plusminus;
layers = (
{
layerId = m01;
shapes = (
{
closed = 1;
nodes = (
(248,221,o),
(263,228,o),
(265,247,cs),
(280,404,ls),
(283,425,o),
(272,441,o),
(257,441,c),
(246,441,o),
(229,434,o),
(228,416,cs),
(214,259,ls),
(211,236,o),
(222,221,o),
(236,221,cs)
);
},
{
closed = 1;
nodes = (
(381,305,ls),
(403,305,o),
(413,320,o),
(413,333,cs),
(413,346,o),
(403,359,o),
(381,359,cs),
(112,359,ls),
(90,359,o),
(80,346,o),
(80,333,cs),
(80,318,o),
(90,305,o),
(112,305,cs)
);
},
{
closed = 1;
nodes = (
(368,153,ls),
(390,153,o),
(400,168,o),
(400,181,cs),
(400,194,o),
(390,207,o),
(368,207,cs),
(99,207,ls),
(77,207,o),
(67,194,o),
(67,181,cs),
(67,166,o),
(77,153,o),
(99,153,cs)
);
}
);
vertWidth = 0;
width = 506;
},
{
layerId = m002;
shapes = (
{
closed = 1;
nodes = (
(273,245,o),
(302,254,o),
(305,289,cs),
(334,552,ls),
(339,594,o),
(315,618,o),
(290,618,cs),
(270,618,o),
(239,612,o),
(235,577,cs),
(207,312,l),
(197,267,o),
(227,245,o),
(252,245,cs)
);
},
{
closed = 1;
nodes = (
(403,383,ls),
(443,383,o),
(457,411,o),
(457,434,cs),
(457,457,o),
(443,485,o),
(403,485,cs),
(133,485,ls),
(93,485,o),
(78,457,o),
(78,434,cs),
(78,410,o),
(93,383,o),
(133,383,cs)
);
},
{
closed = 1;
nodes = (
(374,119,ls),
(415,119,o),
(429,147,o),
(429,170,cs),
(429,194,o),
(415,221,o),
(374,221,cs),
(105,221,ls),
(64,221,o),
(50,194,o),
(50,170,cs),
(50,146,o),
(64,119,o),
(105,119,cs)
);
}
);
vertWidth = 0;
width = 506;
}
);
unicode = 177;
},
{
color = 6;
glyphname = approxequal;
layers = (
{
layerId = m01;
shapes = (
{
closed = 1;
nodes = (
(129,164,o),
(151,172,o),
(166,172,cs),
(215,172,o),
(255,139,o),
(301,139,cs),
(331,139,o),
(362,151,o),
(384,159,cs),
(402,166,o),
(410,179,o),
(404,195,cs),
(398,210,o),
(384,215,o),
(365,208,cs),
(347,201,o),
(326,192,o),
(310,192,cs),
(265,192,o),
(225,226,o),
(176,226,cs),
(145,226,o),
(114,214,o),
(93,206,cs),
(75,198,o),
(67,185,o),
(72,170,cs),
(78,154,o),
(93,150,o),
(112,157,cs)
);
},
{
closed = 1;
nodes = (
(151,343,o),
(172,352,o),
(188,352,cs),
(236,352,o),
(277,318,o),
(322,318,cs),
(353,318,o),
(384,330,o),
(405,339,cs),
(423,346,o),
(431,359,o),
(425,374,cs),
(419,390,o),
(405,394,o),
(386,387,cs),
(368,380,o),
(347,372,o),
(331,372,cs),
(286,372,o),
(246,405,o),
(197,405,cs),
(166,405,o),
(135,393,o),
(114,385,cs),
(96,378,o),
(88,365,o),
(94,349,cs),
(100,334,o),
(114,329,o),
(133,336,cs)
);
}
);
vertWidth = 0;
width = 506;
},
{
layerId = m002;
shapes = (
{
closed = 1;
nodes = (
(147,147,o),
(162,156,o),
(173,156,cs),
(213,156,o),
(254,129,o),
(296,129,cs),
(328,129,o),
(360,138,o),
(384,147,cs),
(421,163,o),
(430,192,o),
(419,217,cs),
(407,244,o),
(383,255,o),
(342,239,cs),
(330,234,o),
(315,228,o),
(304,228,cs),
(263,228,o),
(226,254,o),
(182,254,cs),
(149,254,o),
(116,244,o),
(94,233,cs),
(56,215,o),
(45,187,o),
(57,162,cs),
(69,135,o),
(95,124,o),
(134,141,cs)
);
},
{
closed = 1;
nodes = (
(165,314,o),
(179,322,o),
(191,322,cs),
(230,322,o),
(272,296,o),
(314,296,cs),
(346,296,o),
(378,304,o),
(402,314,cs),
(438,329,o),
(448,359,o),
(437,384,cs),
(425,410,o),
(400,422,o),
(360,405,cs),
(348,400,o),
(333,394,o),
(322,394,cs),
(280,394,o),
(244,421,o),
(200,421,cs),
(166,421,o),
(134,410,o),
(112,399,cs),
(74,381,o),
(63,353,o),
(75,328,cs),
(87,302,o),
(113,290,o),
(152,308,cs)
);
}
);
vertWidth = 0;
width = 506;
}
);
unicode = 8776;
},
{
color = 6;
glyphname = asciitilde;
layers = (
{
layerId = m01;
shapes = (
{
closed = 1;
nodes = (
(222,499,o),
(241,501,o),
(253,516,cs),
(265,530,o),
(279,541,o),
(301,541,cs),
(328,541,o),
(365,504,o),
(402,504,cs),
(438,504,o),
(474,520,o),
(495,546,cs),
(506,561,o),
(511,576,o),
(499,588,cs),
(488,599,o),
(468,596,o),
(457,582,cs),
(444,565,o),
(429,557,o),
(409,557,cs),
(384,557,o),
(348,594,o),
(309,594,cs),
(271,594,o),
(235,577,o),
(215,551,cs),
(204,538,o),
(201,520,o),
(211,510,cs)
);
}
);
width = 594;
},
{
layerId = m002;
shapes = (
{
closed = 1;
nodes = (
(178,482,o),
(203,482,o),
(221,500,cs),
(232,511,o),
(248,518,o),
(263,518,cs),
(289,518,o),
(324,486,o),
(360,486,cs),
(397,486,o),
(436,503,o),
(463,530,cs),
(482,550,o),
(484,579,o),
(467,598,cs),
(450,615,o),
(425,614,o),
(409,596,cs),
(398,586,o),
(383,579,o),
(368,579,cs),
(342,579,o),
(308,611,o),
(270,611,cs),
(233,611,o),
(194,594,o),
(168,567,cs),
(149,546,o),
(146,518,o),
(163,499,cs)
);
}
);
width = 594;
}
);
unicode = 126;
},
{
color = 6;
glyphname = asciicircum;
layers = (
{
layerId = m01;
shapes = (
{
closed = 1;
nodes = (
(289,486,l),
(239,491,l),
(355,352,ls),
(368,336,o),
(386,339,o),
(397,348,cs),
(409,359,o),
(412,377,o),
(400,391,cs),
(290,522,ls),
(280,533,o),
(260,536,o),
(244,522,cs),
(86,390,ls),
(71,378,o),
(72,361,o),
(82,350,cs),
(93,340,o),
(107,334,o),
(126,349,cs)
);
}
);
vertWidth = 0;
width = 488;
},
{
layerId = m002;
shapes = (
{
closed = 1;
nodes = (
(299,461,l),
(264,463,l),
(371,337,ls),
(392,311,o),
(421,317,o),
(437,331,cs),
(455,347,o),
(461,375,o),
(442,398,cs),
(323,539,ls),
(308,557,o),
(280,564,o),
(253,542,cs),
(91,406,ls),
(68,386,o),
(71,359,o),
(87,341,c),
(103,324,o),
(126,314,o),
(154,337,cs)
);
}
);
vertWidth = 0;
width = 535;
}
);
unicode = 94;
},
{
color = 6;
glyphname = infinity;
layers = (
{
layerId = m01;
shapes = (
{
closed = 1;
nodes = (
(252,95,o),
(331,152,o),
(406,229,c),
(373,273,l),
(307,208,o),
(236,149,o),
(178,149,cs),
(131,149,o),
(109,201,o),
(126,270,cs),
(144,340,o),
(178,375,o),
(229,375,cs),
(270,375,o),
(312,342,o),
(356,277,cs),
(399,214,ls),
(453,135,o),
(510,95,o),
(565,95,cs),
(657,95,o),
(715,149,o),
(739,255,cs),
(757,334,o),
(732,429,o),
(636,429,cs),
(552,429,o),
(473,372,o),
(398,295,c),
(431,251,l),
(498,316,o),
(568,375,o),
(626,375,cs),
(674,375,o),
(695,323,o),
(678,254,cs),
(661,184,o),
(626,149,o),
(575,149,cs),
(535,149,o),
(492,182,o),
(448,247,cs),
(405,310,ls),
(352,388,o),
(295,429,o),
(239,429,cs),
(147,429,o),
(89,375,o),
(65,268,cs),
(48,190,o),
(72,95,o),
(169,95,cs)
);
}
);
vertWidth = 0;
width = 833;
},
{
layerId = m002;
shapes = (
{
closed = 1;
nodes = (
(279,83,o),
(365,144,o),
(432,215,c),
(364,292,l),
(316,245,o),
(254,187,o),
(211,187,cs),
(176,187,o),
(162,215,o),
(173,261,cs),
(185,309,o),
(216,337,o),
(254,337,cs),
(278,337,o),
(314,307,o),
(346,258,cs),
(381,206,ls),
(434,129,o),
(500,83,o),
(552,83,cs),
(655,83,o),
(728,147,o),
(750,251,cs),
(779,368,o),
(727,441,o),
(612,441,cs),
(537,441,o),
(451,380,o),
(384,309,c),
(453,232,l),
(500,279,o),
(562,337,o),
(605,337,cs),
(643,337,o),
(655,310,o),
(643,263,cs),
(631,215,o),
(602,187,o),
(562,187,cs),
(532,187,o),
(497,217,o),
(470,266,cs),
(435,330,ls),
(397,398,o),
(330,441,o),
(261,441,cs),
(164,441,o),
(90,377,o),
(67,273,cs),
(39,156,o),
(91,83,o),
(204,83,cs)
);
}
);
vertWidth = 0;
width = 845;
}
);
unicode = 8734;
},
{
color = 6;
glyphname = percent;
layers = (
{
layerId = m01;
shapes = (
{
closed = 1;
nodes = (
(159,0,o),
(168,12,o),
(179,27,cs),
(690,720,ls),
(710,747,o),
(696,772,o),
(671,772,cs),
(656,772,o),
(647,760,o),
(636,745,cs),
(125,52,ls),
(105,25,o),
(119,0,o),
(144,0,cs)
);
},
{
closed = 1;
nodes = (
(317,407,o),
(415,526,o),
(415,658,cs),
(415,726,o),
(371,772,o),
(298,772,c),
(189,772,o),
(91,653,o),
(91,522,cs),
(91,454,o),
(135,407,o),
(208,407,c)
);
},
{
closed = 1;
nodes = (
(172,461,o),
(151,494,o),
(151,533,cs),
(151,623,o),
(216,719,o),
(290,719,cs),
(334,719,o),
(355,685,o),
(355,646,cs),
(355,549,o),
(283,461,o),
(216,461,cs)
);
},
{
closed = 1;
nodes = (
(639,0,o),
(737,119,o),
(737,251,cs),
(737,318,o),
(693,365,o),
(620,365,c),
(511,365,o),
(413,246,o),
(413,114,cs),
(413,46,o),
(457,0,o),
(530,0,c)
);
},
{
closed = 1;
nodes = (
(494,53,o),
(473,87,o),
(473,126,cs),
(473,215,o),
(538,311,o),
(612,311,cs),
(656,311,o),
(677,278,o),
(677,239,cs),
(677,141,o),
(605,53,o),
(538,53,cs)
);
}
);
vertWidth = 0;
width = 830;
},
{
layerId = m002;
shapes = (
{
closed = 1;
nodes = (
(242,0,o),
(258,12,o),
(277,38,cs),
(745,672,ls),
(791,735,o),
(746,772,o),
(702,772,cs),
(678,772,o),
(663,760,o),
(643,734,cs),
(175,100,ls),
(128,37,o),
(175,0,o),
(219,0,cs)
);
},
{
closed = 1;
nodes = (
(345,373,o),
(451,494,o),
(451,636,cs),
(451,716,o),
(400,772,o),
(312,772,cs),
(198,772,o),
(90,652,o),
(90,510,cs),
(90,429,o),
(143,373,o),
(230,373,cs)
);
},
{
closed = 1;
nodes = (
(217,487,o),
(210,505,o),
(210,522,cs),
(210,582,o),
(251,658,o),
(305,658,cs),
(326,658,o),
(333,640,o),
(333,624,cs),
(333,558,o),
(286,487,o),
(238,487,cs)
);
},
{
closed = 1;
nodes = (
(723,0,o),
(832,120,o),
(832,263,cs),
(832,343,o),
(779,399,o),
(691,399,cs),
(577,399,o),
(470,278,o),
(470,137,cs),
(470,56,o),
(522,0,o),
(609,0,cs)
);
},
{
closed = 1;
nodes = (
(596,114,o),
(589,132,o),
(589,149,cs),
(589,209,o),
(630,285,o),
(684,285,cs),
(704,285,o),
(712,267,o),
(712,251,cs),
(712,185,o),
(666,114,o),
(617,114,cs)
);
}
);
vertWidth = 0;
width = 924;
}
);
unicode = 37;
},
{
color = 6;
glyphname = grave;
layers = (
{
layerId = m01;
shapes = (
{
closed = 1;
nodes = (
(324,531,o),
(340,527,o),
(350,533,cs),
(360,538,o),
(364,550,o),
(356,567,cs),
(307,681,ls),
(299,696,o),
(284,702,o),
(271,702,cs),
(252,701,o),
(234,684,o),
(249,658,cs),
(314,549,ls)
);
}
);
vertWidth = 0;
width = 594;
},
{
layerId = m002;
shapes = (
{
closed = 1;
nodes = (
(320,525,o),
(347,532,o),
(362,541,cs),
(377,548,o),
(407,569,o),
(391,601,cs),
(333,715,ls),
(322,737,o),
(303,746,o),
(285,746,cs),
(254,746,o),
(207,710,o),
(233,668,cs),
(301,556,ls)
);
}
);
vertWidth = 0;
width = 594;
}
);
unicode = 96;
},
{
color = 6;
glyphname = tilde;
layers = (
{
layerId = m01;
shapes = (
{
closed = 1;
nodes = (
(222,499,o),
(241,501,o),
(253,516,cs),
(265,530,o),
(279,541,o),
(301,541,cs),
(328,541,o),
(365,504,o),
(402,504,cs),
(438,504,o),
(474,520,o),
(495,546,cs),
(506,561,o),
(511,576,o),
(499,588,cs),
(488,599,o),
(468,596,o),
(457,582,cs),
(444,565,o),
(429,557,o),
(409,557,cs),
(384,557,o),
(348,594,o),
(309,594,cs),
(271,594,o),
(235,577,o),
(215,551,cs),
(204,538,o),
(201,520,o),
(211,510,cs)
);
}
